<svg width="50" height="67" viewBox="0 0 50 67" fill="none" xmlns="http://www.w3.org/2000/svg">
<path d="M12.7563 11.288L2.05225 16.856L1.11625 15.368L10.8603 10.304L1.11625 5.24L2.05225 3.752L12.7563 9.32V11.288Z" fill="white"/>
<path d="M30.7563 23.288L20.0523 28.856L19.1163 27.368L28.8603 22.304L19.1163 17.24L20.0523 15.752L30.7563 21.32V23.288Z" fill="white"/>
<path d="M30.7563 48.288L20.0523 53.856L19.1163 52.368L28.8603 47.304L19.1163 42.24L20.0523 40.752L30.7563 46.32V48.288Z" fill="white"/>
<path d="M12.7563 36.288L2.05225 41.856L1.11625 40.368L10.8603 35.304L1.11625 30.24L2.05225 28.752L12.7563 34.32V36.288Z" fill="white"/>
<path d="M48.7563 36.288L38.0523 41.856L37.1163 40.368L46.8603 35.304L37.1163 30.24L38.0523 28.752L48.7563 34.32V36.288Z" fill="white"/>
<path d="M12.7563 61.288L2.05225 66.856L1.11625 65.368L10.8603 60.304L1.11625 55.24L2.05225 53.752L12.7563 59.32V61.288Z" fill="white"/>
</svg>
