<svg width="50" height="67" viewBox="0 0 50 67" fill="none" xmlns="http://www.w3.org/2000/svg">
<path d="M37.2436 55.7121L47.9476 50.1441L48.8836 51.6321L39.1396 56.6961L48.8836 61.7601L47.9476 63.2481L37.2436 57.6801L37.2436 55.7121Z" fill="white"/>
<path d="M19.2436 43.7121L29.9476 38.1441L30.8836 39.6321L21.1396 44.6961L30.8836 49.7601L29.9476 51.2481L19.2436 45.6801L19.2436 43.7121Z" fill="white"/>
<path d="M19.2436 18.7121L29.9476 13.1441L30.8836 14.6321L21.1396 19.6961L30.8836 24.7601L29.9476 26.2481L19.2436 20.6801L19.2436 18.7121Z" fill="white"/>
<path d="M37.2436 30.7121L47.9476 25.1441L48.8836 26.6321L39.1396 31.6961L48.8836 36.7601L47.9476 38.2481L37.2436 32.6801L37.2436 30.7121Z" fill="white"/>
<path d="M1.24362 30.7121L11.9476 25.1441L12.8836 26.6321L3.13962 31.6961L12.8836 36.7601L11.9476 38.2481L1.24362 32.6801L1.24362 30.7121Z" fill="white"/>
<path d="M37.2436 5.7121L47.9476 0.144103L48.8836 1.6321L39.1396 6.6961L48.8836 11.7601L47.9476 13.2481L37.2436 7.6801L37.2436 5.7121Z" fill="white"/>
</svg>
