<svg width="413" height="735" viewBox="0 0 413 735" fill="none" xmlns="http://www.w3.org/2000/svg">
<path d="M558.114 53.061L550.4 48.5513L550.342 48.5954C540.821 43.2485 527.819 36.697 517.888 32.158C509.925 28.515 499.067 24.1229 490.767 21.3319C485.83 19.672 479.263 17.3951 474.268 15.9409C467.701 14.0313 458.871 11.6663 452.216 10.0651C447.309 8.88998 440.727 7.53856 435.761 6.62782C430.134 5.59956 422.582 4.45379 416.926 3.64587C415.442 3.44022 401.911 1.54529 383.532 0.796133C376.054 0.487655 364.315 0.267315 350.916 0.943027C346.215 1.17806 333.756 1.8097 318.154 4.0278C297.732 6.92161 284.509 10.3442 284.377 10.3736C278.603 11.8866 270.876 13.8256 265.146 15.5002C260.18 16.9545 253.745 19.0257 248.706 20.8031C243.666 22.5805 236.982 25.0189 232.045 27.0608C225.361 29.8224 216.59 33.8179 210.022 36.8145C209.905 36.8586 194.831 44.262 185.605 49.7265C176.334 55.2056 164.111 62.8147 155.399 69.1605C148.405 74.2724 139.105 81.1618 132.582 86.8466C128.586 90.3279 123.18 94.8817 119.33 98.5246C113.938 103.622 106.798 110.482 101.759 115.932C98.2183 119.751 93.517 124.848 90.1526 128.829C85.8038 133.97 80.1328 140.962 76.0632 146.324C72.9633 150.408 68.9524 155.96 66.0728 160.205C62.5321 165.449 57.8455 172.691 54.6867 177.935C51.528 183.18 47.429 190.23 44.667 195.68C40.1419 204.655 34.2506 216.701 30.416 225.984C20.8664 249.12 16.165 266.424 13.0945 278.69C11.7134 284.243 9.99451 291.675 9.02485 297.316C7.3353 307.173 5.19031 320.364 4.23535 330.323C3.67706 335.979 2.98655 343.544 2.83963 349.228C2.70741 354.252 2.41357 360.965 2.41357 366.004C2.41357 371.688 2.56049 379.298 2.83963 384.953C3.11878 390.608 3.67706 398.129 4.22066 403.77C4.70548 408.764 5.64575 415.389 6.24812 420.369C6.93863 425.995 8.34903 433.413 9.43622 438.966C11.3608 448.778 14.7546 461.69 17.3844 471.327C18.8977 476.85 21.3218 484.077 23.2464 489.468C26.3464 498.164 32.8255 516.261 45.6513 540.323C50.4115 549.254 57.5223 560.77 62.9582 569.319C66.2638 574.52 71.024 580.983 74.7703 586.109C78.5167 591.236 83.747 597.92 87.9341 602.708C94.7952 610.553 104.168 620.791 111.514 628.165C116.407 633.071 123.253 639.3 128.513 643.824C134.198 648.716 141.912 655.076 147.95 659.512C152.328 662.744 158.205 667.107 162.715 670.074C167.225 673.041 173.264 676.963 177.848 679.813C180.727 681.605 184.606 683.955 187.603 685.571C197.226 690.742 210.14 697.47 220.057 702.009C228.02 705.652 238.95 709.838 247.192 712.835C253.686 715.185 262.457 718.02 269.127 719.812C278.971 722.442 292.208 725.629 302.213 727.554C307.84 728.626 315.377 729.904 321.062 730.536C325.955 731.079 332.272 731.872 337.385 732.313C342.498 732.754 349.315 733.106 354.442 733.385C359.305 733.635 365.784 733.694 370.691 733.664C375.598 733.635 382.092 733.356 387.028 733.224C391.965 733.091 398.532 732.519 403.439 732.049C413.327 731.094 426.432 729.067 436.246 727.451C441.476 726.599 448.366 725.012 453.523 723.793C488.137 715.567 521.384 702.332 552.354 684.425C556.997 681.752 563.153 678.094 567.619 675.127C574.965 670.236 584.794 663.713 591.714 658.249C599.985 651.712 610.783 642.678 618.629 635.627C624.138 630.662 631.19 623.685 636.2 618.22C640.828 613.182 647.043 606.484 651.333 601.151C657.753 593.19 666.127 582.393 671.886 573.947C687.386 551.207 695.437 534.55 700.756 523.533C703.327 518.2 706.544 510.973 708.674 505.45C712.274 496.122 716.916 483.592 719.796 474.015C727.23 449.248 729.83 432.591 731.726 420.428C732.607 414.817 733.562 407.281 733.974 401.611C734.708 391.593 735.487 378.196 735.575 368.148C735.722 351.197 734.209 331.675 732.607 320.041C730.947 307.981 728.685 291.484 721.735 266.674C719.047 257.038 714.625 244.434 711.216 235.033C709.247 229.598 706.324 222.518 703.826 217.215C701.329 211.912 698.052 204.832 695.393 199.602C693.086 195.078 689.751 189.188 687.327 184.737C684.448 179.434 680.128 172.633 676.852 167.565C671.299 158.971 663.174 147.998 656.974 139.875C653.081 134.778 647.674 128.535 643.237 123.526C638.801 118.517 632.718 111.951 627.885 107.324C620.245 100.008 609.828 90.4748 601.689 83.7324C595.901 78.9437 587.908 72.877 581.767 68.5436C574.833 63.6667 565.312 57.5265 558.114 53.061ZM558.114 53.061C557.232 52.5322 556.351 52.018 555.454 51.5039M555.454 51.5039C505.341 22.933 438.817 28.8969 368.164 68.2792C438.817 28.8822 505.326 22.9184 555.454 51.5039Z" stroke="#4D2CAB" stroke-linecap="round" stroke-linejoin="bevel" stroke-dasharray="4 4"/>
<path d="M368.144 68.0153C438.888 28.5611 505.483 22.5886 555.676 51.2156C456.438 -8.50982 292.149 -10.1721 188.718 47.5085C236.557 19.8818 300.269 27.1783 368.144 68.03V68.0153Z" stroke="#4D2CAB" stroke-miterlimit="10" stroke-linecap="round" stroke-linejoin="bevel" stroke-dasharray="4 4"/>
<path d="M437.05 39.7693C400.553 17.8062 340.121 17.1884 302.08 38.4012" stroke="#4D2CAB" stroke-miterlimit="10" stroke-linecap="round" stroke-linejoin="bevel" stroke-dasharray="4 4"/>
<path d="M500.466 34.0782C430.414 -8.08268 314.42 -9.25954 241.396 31.4597" stroke="#4D2CAB" stroke-miterlimit="10" stroke-linecap="round" stroke-linejoin="bevel" stroke-dasharray="4 4"/>
<path d="M368.144 68.0146C394.976 13.335 420.278 -6.96581 439.417 10.893" stroke="#4D2CAB" stroke-miterlimit="10" stroke-linecap="round" stroke-linejoin="bevel" stroke-dasharray="4 4"/>
<path d="M368.144 68.0152C345.239 12.8353 323.806 -7.93618 307.771 9.55484" stroke="#4D2CAB" stroke-miterlimit="10" stroke-linecap="round" stroke-linejoin="bevel" stroke-dasharray="4 4"/>
<path d="M368.144 68.0169C300.269 27.1653 236.542 19.8687 188.718 47.4954C85.287 105.176 81.8889 200.34 181.113 260.065C230.982 175.67 297.401 107.456 368.144 68.0169Z" stroke="#4D2CAB" stroke-miterlimit="10" stroke-linecap="round" stroke-linejoin="bevel" stroke-dasharray="4 4"/>
<path d="M302.094 38.4021C264.053 59.6149 262.802 94.6117 299.299 116.589" stroke="#4D2CAB" stroke-miterlimit="10" stroke-linecap="round" stroke-linejoin="bevel" stroke-dasharray="4 4"/>
<path d="M241.412 31.4595C168.388 72.1787 165.99 139.362 236.043 181.523" stroke="#4D2CAB" stroke-miterlimit="10" stroke-linecap="round" stroke-linejoin="bevel" stroke-dasharray="4 4"/>
<path d="M368.145 68.0126C273.835 52.6546 185.247 69.3218 118.725 114.969" stroke="#4D2CAB" stroke-miterlimit="10" stroke-linecap="round" stroke-linejoin="bevel" stroke-dasharray="4 4"/>
<path d="M368.145 68.0142C272.805 81.4597 183.246 125.209 115.989 191.231" stroke="#4D2CAB" stroke-miterlimit="10" stroke-linecap="round" stroke-linejoin="bevel" stroke-dasharray="4 4"/>
<path d="M368.145 68.0152C297.401 107.469 230.982 175.668 181.113 260.063C280.351 319.789 444.64 321.451 548.071 263.771C499.923 178.375 436.02 108.852 368.145 68.0005V68.0152Z" stroke="#4D2CAB" stroke-miterlimit="10" stroke-linecap="round" stroke-linejoin="bevel" stroke-dasharray="4 4"/>
<path d="M299.299 116.59C335.796 138.553 396.228 139.171 434.27 117.958" stroke="#4D2CAB" stroke-miterlimit="10" stroke-linecap="round" stroke-linejoin="bevel" stroke-dasharray="4 4"/>
<path d="M236.042 181.538C306.094 223.699 422.088 224.876 495.112 184.156" stroke="#4D2CAB" stroke-miterlimit="10" stroke-linecap="round" stroke-linejoin="bevel" stroke-dasharray="4 4"/>
<path d="M368.145 68.0149C341.313 122.695 316.187 205.222 297.372 300.385" stroke="#4D2CAB" stroke-miterlimit="10" stroke-linecap="round" stroke-linejoin="bevel" stroke-dasharray="4 4"/>
<path d="M368.145 68.0149C391.049 123.195 412.659 206.192 429.017 301.724" stroke="#4D2CAB" stroke-miterlimit="10" stroke-linecap="round" stroke-linejoin="bevel" stroke-dasharray="4 4"/>
<path d="M368.145 68.017C436.02 108.869 499.923 178.391 548.071 263.787C651.502 206.106 654.9 110.943 555.677 51.2174C505.498 22.605 438.888 28.5776 368.145 68.017Z" stroke="#4D2CAB" stroke-miterlimit="10" stroke-linecap="round" stroke-linejoin="bevel" stroke-dasharray="4 4"/>
<path d="M368.145 68.0188C462.455 83.3768 551.219 128.936 618.065 196.311" stroke="#4D2CAB" stroke-miterlimit="10" stroke-linecap="round" stroke-linejoin="bevel" stroke-dasharray="4 4"/>
<path d="M368.145 68.018C463.485 54.5724 553.22 73.0491 620.786 120.05" stroke="#4D2CAB" stroke-miterlimit="10" stroke-linecap="round" stroke-linejoin="bevel" stroke-dasharray="4 4"/>
<path d="M555.676 51.2134C605.854 79.8257 633.613 139.61 633.848 219.533C493.508 135.079 261.182 132.725 114.899 214.282C114.678 134.358 140.878 75.133 188.717 47.5063C292.148 -10.1743 456.437 -8.51202 555.676 51.2134Z" stroke="#4D2CAB" stroke-miterlimit="10" stroke-linecap="round" stroke-linejoin="bevel" stroke-dasharray="4 4"/>
<path d="M598.19 89.8006C476.518 16.5707 275.084 14.5406 148.263 85.2549" stroke="#4D2CAB" stroke-miterlimit="10" stroke-linecap="round" stroke-linejoin="bevel" stroke-dasharray="4 4"/>
<path d="M624.626 146.731C489.052 65.1457 264.611 62.8655 123.3 141.656" stroke="#4D2CAB" stroke-miterlimit="10" stroke-linecap="round" stroke-linejoin="bevel" stroke-dasharray="4 4"/>
<path d="M307.771 9.55225C291.737 27.0433 283.043 80.6932 283.263 160.616" stroke="#4D2CAB" stroke-miterlimit="10" stroke-linecap="round" stroke-linejoin="bevel" stroke-dasharray="4 4"/>
<path d="M188.718 47.4963C140.879 75.123 114.679 134.348 114.9 214.272C-31.3686 295.828 -36.179 430.416 104.146 514.885C103.926 434.962 131.243 344.476 181.113 260.066C81.8744 200.341 85.2873 105.177 188.718 47.4963Z" stroke="#4D2CAB" stroke-miterlimit="10" stroke-linecap="round" stroke-linejoin="bevel" stroke-dasharray="4 4"/>
<path d="M148.264 85.26C21.4429 155.974 17.2798 272.66 138.937 345.889" stroke="#4D2CAB" stroke-miterlimit="10" stroke-linecap="round" stroke-linejoin="bevel" stroke-dasharray="4 4"/>
<path d="M123.299 141.662C-18.0115 220.452 -22.6601 350.466 112.914 432.066" stroke="#4D2CAB" stroke-miterlimit="10" stroke-linecap="round" stroke-linejoin="bevel" stroke-dasharray="4 4"/>
<path d="M118.724 114.973C52.1873 160.62 15.69 229.775 15.9107 309.699" stroke="#4D2CAB" stroke-miterlimit="10" stroke-linecap="round" stroke-linejoin="bevel" stroke-dasharray="4 4"/>
<path d="M115.989 191.234C48.7314 257.241 11.837 337.62 12.0576 417.544" stroke="#4D2CAB" stroke-miterlimit="10" stroke-linecap="round" stroke-linejoin="bevel" stroke-dasharray="4 4"/>
<path d="M181.113 260.062C131.244 344.457 103.926 434.957 104.147 514.881C244.487 599.335 476.813 601.688 623.096 520.132C622.876 440.209 596.234 349.179 548.072 263.784C444.641 321.464 280.352 319.802 181.113 260.076V260.062Z" stroke="#4D2CAB" stroke-miterlimit="10" stroke-linecap="round" stroke-linejoin="bevel" stroke-dasharray="4 4"/>
<path d="M138.951 345.884C260.623 419.114 462.057 421.144 588.878 350.429" stroke="#4D2CAB" stroke-miterlimit="10" stroke-linecap="round" stroke-linejoin="bevel" stroke-dasharray="4 4"/>
<path d="M112.914 432.06C248.487 513.646 472.929 515.926 614.24 437.135" stroke="#4D2CAB" stroke-miterlimit="10" stroke-linecap="round" stroke-linejoin="bevel" stroke-dasharray="4 4"/>
<path d="M297.372 300.383C278.557 395.562 268.333 491.975 268.554 571.899" stroke="#4D2CAB" stroke-miterlimit="10" stroke-linecap="round" stroke-linejoin="bevel" stroke-dasharray="4 4"/>
<path d="M633.836 219.523C634.056 299.446 606.738 389.931 556.869 474.327C457.631 414.601 293.342 412.939 189.911 470.62C141.763 385.224 115.122 294.194 114.886 214.271C261.155 132.715 493.495 135.054 633.836 219.523Z" stroke="#4D2CAB" stroke-miterlimit="10" stroke-linecap="round" stroke-linejoin="bevel" stroke-dasharray="4 4"/>
<path d="M625.068 302.343C489.494 220.757 265.053 218.477 123.742 297.268" stroke="#4D2CAB" stroke-miterlimit="10" stroke-linecap="round" stroke-linejoin="bevel" stroke-dasharray="4 4"/>
<path d="M599.044 388.515C477.372 315.285 275.938 313.255 149.117 383.969" stroke="#4D2CAB" stroke-miterlimit="10" stroke-linecap="round" stroke-linejoin="bevel" stroke-dasharray="4 4"/>
<path d="M283.264 160.619C283.484 240.543 292.62 337.148 308.978 432.679" stroke="#4D2CAB" stroke-miterlimit="10" stroke-linecap="round" stroke-linejoin="bevel" stroke-dasharray="4 4"/>
<path d="M114.9 214.268C115.121 294.191 141.762 385.221 189.925 470.617C86.4938 528.297 83.0957 623.461 182.319 683.186C132.141 654.574 104.382 594.804 104.147 514.881C-36.1934 430.427 -31.3683 295.839 114.9 214.268Z" stroke="#4D2CAB" stroke-miterlimit="10" stroke-linecap="round" stroke-linejoin="bevel" stroke-dasharray="4 4"/>
<path d="M123.741 297.28C-17.5696 376.071 -22.2182 506.084 113.356 587.684" stroke="#4D2CAB" stroke-miterlimit="10" stroke-linecap="round" stroke-linejoin="bevel" stroke-dasharray="4 4"/>
<path d="M149.117 383.969C22.2965 454.684 18.1333 571.369 139.791 644.599" stroke="#4D2CAB" stroke-miterlimit="10" stroke-linecap="round" stroke-linejoin="bevel" stroke-dasharray="4 4"/>
<path d="M15.9116 309.695C16.1323 389.618 53.0709 470.718 119.916 538.093" stroke="#4D2CAB" stroke-miterlimit="10" stroke-linecap="round" stroke-linejoin="bevel" stroke-dasharray="4 4"/>
<path d="M12.0576 417.537C12.2783 497.46 49.614 567.35 117.195 614.351" stroke="#4D2CAB" stroke-miterlimit="10" stroke-linecap="round" stroke-linejoin="bevel" stroke-dasharray="4 4"/>
<path d="M104.146 514.878C104.367 594.801 132.126 654.571 182.319 683.183C281.557 742.909 445.846 744.571 549.277 686.89C597.116 659.264 623.316 600.038 623.095 520.13C476.827 601.686 244.486 599.347 104.146 514.878Z" stroke="#4D2CAB" stroke-miterlimit="10" stroke-linecap="round" stroke-linejoin="bevel" stroke-dasharray="4 4"/>
<path d="M113.356 587.668C248.93 669.253 473.371 671.533 614.682 592.743" stroke="#4D2CAB" stroke-miterlimit="10" stroke-linecap="round" stroke-linejoin="bevel" stroke-dasharray="4 4"/>
<path d="M139.791 644.583C261.463 717.813 462.896 719.843 589.717 649.129" stroke="#4D2CAB" stroke-miterlimit="10" stroke-linecap="round" stroke-linejoin="bevel" stroke-dasharray="4 4"/>
<path d="M268.553 571.898C268.774 651.821 279.439 705.648 298.563 723.506" stroke="#4D2CAB" stroke-miterlimit="10" stroke-linecap="round" stroke-linejoin="bevel" stroke-dasharray="4 4"/>
<path d="M556.868 474.322C506.999 558.717 440.58 626.931 369.836 667.577C301.961 625.533 238.058 555.996 189.91 470.6C293.341 412.92 457.63 414.582 556.868 474.307V474.322Z" stroke="#4D2CAB" stroke-miterlimit="10" stroke-linecap="round" stroke-linejoin="bevel" stroke-dasharray="4 4"/>
<path d="M440.625 433.998C421.81 529.176 396.684 611.703 369.852 667.589" stroke="#4D2CAB" stroke-miterlimit="10" stroke-linecap="round" stroke-linejoin="bevel" stroke-dasharray="4 4"/>
<path d="M308.963 432.672C325.322 528.204 346.932 611.201 369.836 667.588" stroke="#4D2CAB" stroke-miterlimit="10" stroke-linecap="round" stroke-linejoin="bevel" stroke-dasharray="4 4"/>
<path d="M189.91 470.616C238.058 556.012 301.961 625.535 369.836 667.593C299.092 705.841 232.482 711.798 182.304 683.186C83.0659 623.461 86.4787 528.297 189.91 470.616Z" stroke="#4D2CAB" stroke-miterlimit="10" stroke-linecap="round" stroke-linejoin="bevel" stroke-dasharray="4 4"/>
<path d="M119.917 538.093C186.762 605.468 275.526 651.027 369.837 667.592" stroke="#4D2CAB" stroke-miterlimit="10" stroke-linecap="round" stroke-linejoin="bevel" stroke-dasharray="4 4"/>
<path d="M117.195 614.343C184.776 661.343 274.496 679.835 369.851 667.581" stroke="#4D2CAB" stroke-miterlimit="10" stroke-linecap="round" stroke-linejoin="bevel" stroke-dasharray="4 4"/>
<path d="M182.304 683.188C232.482 711.8 299.092 705.842 369.836 667.594C437.711 707.24 501.438 714.521 549.262 686.909C445.831 744.59 281.542 742.928 182.304 683.202V683.188Z" stroke="#4D2CAB" stroke-miterlimit="10" stroke-linecap="round" stroke-linejoin="bevel" stroke-dasharray="4 4"/>
<path d="M298.562 723.51C317.686 741.354 343.003 721.068 369.835 667.594" stroke="#4D2CAB" stroke-miterlimit="10" stroke-linecap="round" stroke-linejoin="bevel" stroke-dasharray="4 4"/>
<path d="M430.208 724.848C414.173 742.339 392.74 721.583 369.835 667.594" stroke="#4D2CAB" stroke-miterlimit="10" stroke-linecap="round" stroke-linejoin="bevel" stroke-dasharray="4 4"/>
<path d="M549.278 686.894C501.439 714.521 437.727 707.239 369.852 667.579C440.595 626.933 507.014 558.72 556.883 474.325C656.122 534.05 652.709 629.214 549.278 686.894Z" stroke="#4D2CAB" stroke-miterlimit="10" stroke-linecap="round" stroke-linejoin="bevel" stroke-dasharray="4 4"/>
<path d="M619.272 619.431C552.75 665.079 464.162 681.761 369.852 667.594" stroke="#4D2CAB" stroke-miterlimit="10" stroke-linecap="round" stroke-linejoin="bevel" stroke-dasharray="4 4"/>
<path d="M621.993 543.17C554.736 609.192 465.192 652.956 369.852 667.593" stroke="#4D2CAB" stroke-miterlimit="10" stroke-linecap="round" stroke-linejoin="bevel" stroke-dasharray="4 4"/>
<path d="M558.114 53.061L550.4 48.5513L550.342 48.5954C540.821 43.2485 527.819 36.697 517.888 32.158C509.925 28.515 499.067 24.1229 490.767 21.3319C485.83 19.672 479.263 17.3951 474.268 15.9409C467.701 14.0313 458.871 11.6663 452.216 10.0651C447.309 8.88998 440.727 7.53856 435.761 6.62782C430.134 5.59956 422.582 4.45379 416.926 3.64587C415.442 3.44022 401.911 1.54529 383.532 0.796133C376.054 0.487655 364.315 0.267315 350.916 0.943027C346.215 1.17806 333.756 1.8097 318.154 4.0278C297.732 6.92161 284.509 10.3442 284.377 10.3736C278.603 11.8866 270.876 13.8256 265.146 15.5002C260.18 16.9545 253.745 19.0257 248.706 20.8031C243.666 22.5805 236.982 25.0189 232.045 27.0608C225.361 29.8224 216.59 33.8179 210.022 36.8145C209.905 36.8586 194.831 44.262 185.605 49.7265C176.334 55.2056 164.111 62.8147 155.399 69.1605C148.405 74.2724 139.105 81.1618 132.582 86.8466C128.586 90.3279 123.18 94.8817 119.33 98.5246C113.938 103.622 106.798 110.482 101.759 115.932C98.2183 119.751 93.517 124.848 90.1526 128.829C85.8038 133.97 80.1328 140.962 76.0632 146.324C72.9633 150.408 68.9524 155.96 66.0728 160.205C62.5321 165.449 57.8455 172.691 54.6867 177.935C51.528 183.18 47.429 190.23 44.667 195.68C40.1419 204.655 34.2506 216.701 30.416 225.984C20.8664 249.12 16.165 266.424 13.0945 278.69C11.7134 284.243 9.99451 291.675 9.02485 297.316C7.3353 307.173 5.19031 320.364 4.23535 330.323C3.67706 335.979 2.98655 343.544 2.83963 349.228C2.70741 354.252 2.41357 360.965 2.41357 366.004C2.41357 371.688 2.56049 379.298 2.83963 384.953C3.11878 390.608 3.67706 398.129 4.22066 403.77C4.70548 408.764 5.64575 415.389 6.24812 420.369C6.93863 425.995 8.34903 433.413 9.43622 438.966C11.3608 448.778 14.7546 461.69 17.3844 471.327C18.8977 476.85 21.3218 484.077 23.2464 489.468C26.3464 498.164 32.8255 516.261 45.6513 540.323C50.4115 549.254 57.5223 560.77 62.9582 569.319C66.2638 574.52 71.024 580.983 74.7703 586.109C78.5167 591.236 83.747 597.92 87.9341 602.708C94.7952 610.553 104.168 620.791 111.514 628.165C116.407 633.071 123.253 639.3 128.513 643.824C134.198 648.716 141.912 655.076 147.95 659.512C152.328 662.744 158.205 667.107 162.715 670.074C167.225 673.041 173.264 676.963 177.848 679.813C180.727 681.605 184.606 683.955 187.603 685.571C197.226 690.742 210.14 697.47 220.057 702.009C228.02 705.652 238.95 709.838 247.192 712.835C253.686 715.185 262.457 718.02 269.127 719.812C278.971 722.442 292.208 725.629 302.213 727.554C307.84 728.626 315.377 729.904 321.062 730.536C325.955 731.079 332.272 731.872 337.385 732.313C342.498 732.754 349.315 733.106 354.442 733.385C359.305 733.635 365.784 733.694 370.691 733.664C375.598 733.635 382.092 733.356 387.028 733.224C391.965 733.091 398.532 732.519 403.439 732.049C413.327 731.094 426.432 729.067 436.246 727.451C441.476 726.599 448.366 725.012 453.523 723.793C488.137 715.567 521.384 702.332 552.354 684.425C556.997 681.752 563.153 678.094 567.619 675.127C574.965 670.236 584.794 663.713 591.714 658.249C599.985 651.712 610.783 642.678 618.629 635.627C624.138 630.662 631.19 623.685 636.2 618.22C640.828 613.182 647.043 606.484 651.333 601.151C657.753 593.19 666.127 582.393 671.886 573.947C687.386 551.207 695.437 534.55 700.756 523.533C703.327 518.2 706.544 510.973 708.674 505.45C712.274 496.122 716.916 483.592 719.796 474.015C727.23 449.248 729.83 432.591 731.726 420.428C732.607 414.817 733.562 407.281 733.974 401.611C734.708 391.593 735.487 378.196 735.575 368.148C735.722 351.197 734.209 331.675 732.607 320.041C730.947 307.981 728.685 291.484 721.735 266.674C719.047 257.038 714.625 244.434 711.216 235.033C709.247 229.598 706.324 222.518 703.826 217.215C701.329 211.912 698.052 204.832 695.393 199.602C693.086 195.078 689.751 189.188 687.327 184.737C684.448 179.434 680.128 172.633 676.852 167.565C671.299 158.971 663.174 147.998 656.974 139.875C653.081 134.778 647.674 128.535 643.237 123.526C638.801 118.517 632.718 111.951 627.885 107.324C620.245 100.008 609.828 90.4748 601.689 83.7324C595.901 78.9437 587.908 72.877 581.767 68.5436C574.833 63.6667 565.312 57.5265 558.114 53.061ZM558.114 53.061C557.232 52.5322 556.351 52.018 555.454 51.5039M555.454 51.5039C505.341 22.933 438.817 28.8969 368.164 68.2792C438.817 28.8822 505.326 22.9184 555.454 51.5039Z" stroke="#4D2CAB" stroke-miterlimit="10" stroke-linecap="round" stroke-linejoin="bevel" stroke-dasharray="4 4"/>
<path d="M368.145 68.0106C438.889 28.5565 505.484 22.584 555.677 51.211C456.439 -8.51446 292.15 -10.1768 188.719 47.5039C236.558 19.8772 300.27 27.1737 368.145 68.0253V68.0106Z" stroke="#4D2CAB" stroke-miterlimit="10" stroke-linecap="round" stroke-linejoin="bevel" stroke-dasharray="4 4"/>
<path d="M368.145 68.0071C394.977 13.3274 420.279 -6.97338 439.418 10.8854" stroke="#4D2CAB" stroke-miterlimit="10" stroke-linecap="round" stroke-linejoin="bevel" stroke-dasharray="4 4"/>
<path d="M368.145 68.0103C345.24 12.8304 323.807 -7.94106 307.772 9.54996" stroke="#4D2CAB" stroke-miterlimit="10" stroke-linecap="round" stroke-linejoin="bevel" stroke-dasharray="4 4"/>
<path d="M368.144 68.0069C300.269 27.1552 236.542 19.8587 188.718 47.4854C85.287 105.166 81.8889 200.33 181.113 260.055C230.982 175.66 297.401 107.446 368.144 68.0069Z" stroke="#4D2CAB" stroke-miterlimit="10" stroke-linecap="round" stroke-linejoin="bevel" stroke-dasharray="4 4"/>
<path d="M368.145 68.0082C273.835 52.6502 185.247 69.3174 118.725 114.965" stroke="#4D2CAB" stroke-miterlimit="10" stroke-linecap="round" stroke-linejoin="bevel" stroke-dasharray="4 4"/>
<path d="M368.145 68.0068C272.805 81.4524 183.246 125.202 115.989 191.224" stroke="#4D2CAB" stroke-miterlimit="10" stroke-linecap="round" stroke-linejoin="bevel" stroke-dasharray="4 4"/>
<path d="M368.145 68.0071C297.401 107.461 230.982 175.66 181.113 260.055C280.351 319.781 444.64 321.443 548.071 263.762C499.923 178.367 436.02 108.844 368.145 67.9924V68.0071Z" stroke="#4D2CAB" stroke-miterlimit="10" stroke-linecap="round" stroke-linejoin="bevel" stroke-dasharray="4 4"/>
<path d="M368.144 68.0098C341.312 122.689 316.186 205.216 297.371 300.38" stroke="#4D2CAB" stroke-miterlimit="10" stroke-linecap="round" stroke-linejoin="bevel" stroke-dasharray="4 4"/>
<path d="M368.144 68.0098C391.048 123.19 412.658 206.187 429.016 301.719" stroke="#4D2CAB" stroke-miterlimit="10" stroke-linecap="round" stroke-linejoin="bevel" stroke-dasharray="4 4"/>
<path d="M368.145 68.0145C436.02 108.866 499.923 178.389 548.071 263.785C651.502 206.104 654.9 110.94 555.677 51.2149C505.498 22.6026 438.888 28.5751 368.145 68.0145Z" stroke="#4D2CAB" stroke-miterlimit="10" stroke-linecap="round" stroke-linejoin="bevel" stroke-dasharray="4 4"/>
<path d="M368.145 68.0164C462.455 83.3743 551.219 128.933 618.065 196.308" stroke="#4D2CAB" stroke-miterlimit="10" stroke-linecap="round" stroke-linejoin="bevel" stroke-dasharray="4 4"/>
<path d="M368.145 68.0129C463.485 54.5673 553.22 73.0439 620.786 120.045" stroke="#4D2CAB" stroke-miterlimit="10" stroke-linecap="round" stroke-linejoin="bevel" stroke-dasharray="4 4"/>
<path d="M555.676 51.2115C605.854 79.8238 633.613 139.608 633.848 219.531C493.508 135.077 261.182 132.723 114.899 214.28C114.678 134.356 140.878 75.1311 188.717 47.5044C292.148 -10.1763 456.437 -8.51397 555.676 51.2115Z" stroke="#4D2CAB" stroke-miterlimit="10" stroke-linecap="round" stroke-linejoin="bevel" stroke-dasharray="4 4"/>
<path d="M598.191 89.7959C476.519 16.566 275.085 14.536 148.264 85.2503" stroke="#4D2CAB" stroke-miterlimit="10" stroke-linecap="round" stroke-linejoin="bevel" stroke-dasharray="4 4"/>
<path d="M624.627 146.727C489.053 65.1411 264.612 62.8609 123.301 141.651" stroke="#4D2CAB" stroke-miterlimit="10" stroke-linecap="round" stroke-linejoin="bevel" stroke-dasharray="4 4"/>
<path d="M307.772 9.55029C291.738 27.0413 283.044 80.6912 283.264 160.614" stroke="#4D2CAB" stroke-miterlimit="10" stroke-linecap="round" stroke-linejoin="bevel" stroke-dasharray="4 4"/>
<path d="M188.718 47.4883C140.879 75.115 114.679 134.34 114.9 214.263C-31.3686 295.82 -36.179 430.408 104.146 514.877C103.926 434.953 131.243 344.468 181.113 260.058C81.8744 200.332 85.2873 105.169 188.718 47.4883Z" stroke="#4D2CAB" stroke-miterlimit="10" stroke-linecap="round" stroke-linejoin="bevel" stroke-dasharray="4 4"/>
<path d="M148.264 85.2458C21.4429 155.96 17.2798 272.645 138.937 345.875" stroke="#4D2CAB" stroke-miterlimit="10" stroke-linecap="round" stroke-linejoin="bevel" stroke-dasharray="4 4"/>
<path d="M123.301 141.651C-18.0096 220.441 -22.6582 350.455 112.916 432.055" stroke="#4D2CAB" stroke-miterlimit="10" stroke-linecap="round" stroke-linejoin="bevel" stroke-dasharray="4 4"/>
<path d="M118.725 114.962C52.1882 160.609 15.691 229.764 15.9116 309.688" stroke="#4D2CAB" stroke-miterlimit="10" stroke-linecap="round" stroke-linejoin="bevel" stroke-dasharray="4 4"/>
<path d="M115.99 191.226C48.7324 257.233 11.8379 337.612 12.0586 417.535" stroke="#4D2CAB" stroke-miterlimit="10" stroke-linecap="round" stroke-linejoin="bevel" stroke-dasharray="4 4"/>
<path d="M181.112 260.06C131.243 344.455 103.925 434.955 104.146 514.878C244.486 599.332 476.812 601.686 623.095 520.13C622.875 440.207 596.233 349.177 548.071 263.781C444.64 321.462 280.351 319.8 181.112 260.074V260.06Z" stroke="#4D2CAB" stroke-miterlimit="10" stroke-linecap="round" stroke-linejoin="bevel" stroke-dasharray="4 4"/>
<path d="M138.951 345.876C260.623 419.106 462.057 421.136 588.878 350.422" stroke="#4D2CAB" stroke-miterlimit="10" stroke-linecap="round" stroke-linejoin="bevel" stroke-dasharray="4 4"/>
<path d="M112.914 432.058C248.487 513.643 472.929 515.924 614.24 437.133" stroke="#4D2CAB" stroke-miterlimit="10" stroke-linecap="round" stroke-linejoin="bevel" stroke-dasharray="4 4"/>
<path d="M297.371 300.381C278.556 395.559 268.332 491.973 268.553 571.896" stroke="#4D2CAB" stroke-miterlimit="10" stroke-linecap="round" stroke-linejoin="bevel" stroke-dasharray="4 4"/>
<path d="M633.836 219.511C634.056 299.434 606.738 389.92 556.869 474.315C457.631 414.59 293.342 412.927 189.911 470.608C141.763 385.212 115.122 294.183 114.886 214.259C261.155 132.703 493.495 135.042 633.836 219.511Z" stroke="#4D2CAB" stroke-miterlimit="10" stroke-linecap="round" stroke-linejoin="bevel" stroke-dasharray="4 4"/>
<path d="M625.068 302.331C489.494 220.746 265.053 218.466 123.742 297.256" stroke="#4D2CAB" stroke-miterlimit="10" stroke-linecap="round" stroke-linejoin="bevel" stroke-dasharray="4 4"/>
<path d="M599.044 388.509C477.372 315.279 275.938 313.249 149.117 383.964" stroke="#4D2CAB" stroke-miterlimit="10" stroke-linecap="round" stroke-linejoin="bevel" stroke-dasharray="4 4"/>
<path d="M283.264 160.616C283.484 240.54 292.62 337.145 308.978 432.676" stroke="#4D2CAB" stroke-miterlimit="10" stroke-linecap="round" stroke-linejoin="bevel" stroke-dasharray="4 4"/>
<path d="M114.9 214.264C115.121 294.188 141.762 385.217 189.925 470.613C86.4938 528.294 83.0957 623.457 182.319 683.183C132.141 654.57 104.382 594.801 104.147 514.878C-36.1934 430.423 -31.3683 295.835 114.9 214.264Z" stroke="#4D2CAB" stroke-miterlimit="10" stroke-linecap="round" stroke-linejoin="bevel" stroke-dasharray="4 4"/>
<path d="M123.741 297.282C-17.5696 376.073 -22.2182 506.086 113.356 587.686" stroke="#4D2CAB" stroke-miterlimit="10" stroke-linecap="round" stroke-linejoin="bevel" stroke-dasharray="4 4"/>
<path d="M149.116 383.972C22.2955 454.686 18.1324 571.371 139.79 644.601" stroke="#4D2CAB" stroke-miterlimit="10" stroke-linecap="round" stroke-linejoin="bevel" stroke-dasharray="4 4"/>
<path d="M15.9116 309.694C16.1323 389.617 53.0709 470.717 119.916 538.092" stroke="#4D2CAB" stroke-miterlimit="10" stroke-linecap="round" stroke-linejoin="bevel" stroke-dasharray="4 4"/>
<path d="M12.0576 417.539C12.2783 497.462 49.614 567.353 117.195 614.354" stroke="#4D2CAB" stroke-miterlimit="10" stroke-linecap="round" stroke-linejoin="bevel" stroke-dasharray="4 4"/>
<path d="M104.146 514.876C104.367 594.799 132.126 654.569 182.319 683.181C281.557 742.906 445.846 744.569 549.277 686.888C597.116 659.261 623.316 600.036 623.095 520.127C476.827 601.684 244.486 599.345 104.146 514.876Z" stroke="#4D2CAB" stroke-miterlimit="10" stroke-linecap="round" stroke-linejoin="bevel" stroke-dasharray="4 4"/>
<path d="M113.356 587.665C248.93 669.251 473.371 671.531 614.682 592.74" stroke="#4D2CAB" stroke-miterlimit="10" stroke-linecap="round" stroke-linejoin="bevel" stroke-dasharray="4 4"/>
<path d="M139.791 644.577C261.463 717.807 462.896 719.837 589.717 649.123" stroke="#4D2CAB" stroke-miterlimit="10" stroke-linecap="round" stroke-linejoin="bevel" stroke-dasharray="4 4"/>
<path d="M268.553 571.895C268.774 651.818 279.439 705.645 298.563 723.504" stroke="#4D2CAB" stroke-miterlimit="10" stroke-linecap="round" stroke-linejoin="bevel" stroke-dasharray="4 4"/>
<path d="M556.868 474.32C506.999 558.715 440.58 626.929 369.836 667.574C301.961 625.531 238.058 555.994 189.91 470.598C293.341 412.917 457.63 414.58 556.868 474.305V474.32Z" stroke="#4D2CAB" stroke-miterlimit="10" stroke-linecap="round" stroke-linejoin="bevel" stroke-dasharray="4 4"/>
<path d="M501.939 552.905C431.887 510.744 315.893 509.567 242.869 550.286" stroke="#4D2CAB" stroke-miterlimit="10" stroke-linecap="round" stroke-linejoin="bevel" stroke-dasharray="4 4"/>
<path d="M438.697 618.173C402.2 596.21 341.768 595.592 303.727 616.805" stroke="#4D2CAB" stroke-miterlimit="10" stroke-linecap="round" stroke-linejoin="bevel" stroke-dasharray="4 4"/>
<path d="M440.625 433.996C421.81 529.174 396.684 611.701 369.852 667.587" stroke="#4D2CAB" stroke-miterlimit="10" stroke-linecap="round" stroke-linejoin="bevel" stroke-dasharray="4 4"/>
<path d="M308.963 432.67C325.322 528.201 346.932 611.199 369.836 667.585" stroke="#4D2CAB" stroke-miterlimit="10" stroke-linecap="round" stroke-linejoin="bevel" stroke-dasharray="4 4"/>
<path d="M189.91 470.614C238.058 556.01 301.961 625.532 369.836 667.59C299.092 705.838 232.482 711.796 182.304 683.184C83.0659 623.458 86.4787 528.295 189.91 470.614Z" stroke="#4D2CAB" stroke-miterlimit="10" stroke-linecap="round" stroke-linejoin="bevel" stroke-dasharray="4 4"/>
<path d="M242.883 550.285C169.859 591.005 167.461 658.188 237.514 700.349" stroke="#4D2CAB" stroke-miterlimit="10" stroke-linecap="round" stroke-linejoin="bevel" stroke-dasharray="4 4"/>
<path d="M303.727 616.805C265.685 638.018 264.435 673.015 300.932 694.993" stroke="#4D2CAB" stroke-miterlimit="10" stroke-linecap="round" stroke-linejoin="bevel" stroke-dasharray="4 4"/>
<path d="M119.916 538.091C186.761 605.466 275.525 651.025 369.836 667.589" stroke="#4D2CAB" stroke-miterlimit="10" stroke-linecap="round" stroke-linejoin="bevel" stroke-dasharray="4 4"/>
<path d="M117.195 614.337C184.776 661.338 274.496 679.829 369.851 667.575" stroke="#4D2CAB" stroke-miterlimit="10" stroke-linecap="round" stroke-linejoin="bevel" stroke-dasharray="4 4"/>
<path d="M182.304 683.181C232.482 711.794 299.092 705.836 369.836 667.588C437.711 707.233 501.438 714.515 549.262 686.903C445.831 744.584 281.542 742.922 182.304 683.196V683.181Z" stroke="#4D2CAB" stroke-miterlimit="10" stroke-linecap="round" stroke-linejoin="bevel" stroke-dasharray="4 4"/>
<path d="M237.513 700.349C307.566 742.51 423.559 743.687 496.583 702.968" stroke="#4D2CAB" stroke-miterlimit="10" stroke-linecap="round" stroke-linejoin="bevel" stroke-dasharray="4 4"/>
<path d="M300.932 694.984C337.429 716.947 397.86 717.565 435.902 696.352" stroke="#4D2CAB" stroke-miterlimit="10" stroke-linecap="round" stroke-linejoin="bevel" stroke-dasharray="4 4"/>
<path d="M298.561 723.504C317.685 741.348 343.002 721.062 369.834 667.588" stroke="#4D2CAB" stroke-miterlimit="10" stroke-linecap="round" stroke-linejoin="bevel" stroke-dasharray="4 4"/>
<path d="M430.208 724.842C414.173 742.333 392.74 721.576 369.835 667.588" stroke="#4D2CAB" stroke-miterlimit="10" stroke-linecap="round" stroke-linejoin="bevel" stroke-dasharray="4 4"/>
<path d="M549.278 686.892C501.439 714.519 437.727 707.237 369.852 667.577C440.595 626.931 507.014 558.718 556.883 474.323C656.122 534.048 652.709 629.211 549.278 686.892Z" stroke="#4D2CAB" stroke-miterlimit="10" stroke-linecap="round" stroke-linejoin="bevel" stroke-dasharray="4 4"/>
<path d="M619.272 619.429C552.75 665.076 464.162 681.758 369.852 667.592" stroke="#4D2CAB" stroke-miterlimit="10" stroke-linecap="round" stroke-linejoin="bevel" stroke-dasharray="4 4"/>
<path d="M621.993 543.168C554.736 609.19 465.192 652.954 369.852 667.591" stroke="#4D2CAB" stroke-miterlimit="10" stroke-linecap="round" stroke-linejoin="bevel" stroke-dasharray="4 4"/>
<path d="M369.851 667.596C440.889 627.995 507.558 559.516 557.634 474.768C457.998 414.807 293.062 413.13 189.219 471.046C237.558 556.78 301.711 626.582 369.866 667.596H369.851Z" stroke="#4D2CAB" stroke-miterlimit="10" stroke-linecap="round" stroke-linejoin="bevel" stroke-dasharray="4 4"/>
<path d="M438.977 618.829C402.332 596.778 341.666 596.16 303.477 617.461" stroke="#4D2CAB" stroke-miterlimit="10" stroke-linecap="round" stroke-linejoin="bevel" stroke-dasharray="4 4"/>
<path d="M502.468 553.614C432.136 511.276 315.686 510.1 242.368 550.981" stroke="#4D2CAB" stroke-miterlimit="10" stroke-linecap="round" stroke-linejoin="bevel" stroke-dasharray="4 4"/>
<path d="M369.853 667.595C396.788 612.695 422.031 529.844 440.905 434.283" stroke="#4D2CAB" stroke-miterlimit="10" stroke-linecap="round" stroke-linejoin="bevel" stroke-dasharray="4 4"/>
<path d="M369.852 667.597C346.859 612.196 325.161 528.86 308.744 432.946" stroke="#4D2CAB" stroke-miterlimit="10" stroke-linecap="round" stroke-linejoin="bevel" stroke-dasharray="4 4"/>
<path d="M369.852 667.595C301.697 626.582 237.558 556.78 189.204 471.046C85.3614 528.947 81.9486 624.493 181.569 684.454C231.954 713.184 298.814 707.197 369.852 667.595Z" stroke="#4D2CAB" stroke-miterlimit="10" stroke-linecap="round" stroke-linejoin="bevel" stroke-dasharray="4 4"/>
<path d="M303.462 617.46C265.273 638.761 264.008 673.905 300.652 695.956" stroke="#4D2CAB" stroke-miterlimit="10" stroke-linecap="round" stroke-linejoin="bevel" stroke-dasharray="4 4"/>
<path d="M242.383 550.981C169.065 591.862 166.653 659.311 236.999 701.648" stroke="#4D2CAB" stroke-miterlimit="10" stroke-linecap="round" stroke-linejoin="bevel" stroke-dasharray="4 4"/>
<path d="M369.852 667.596C275.159 652.165 186.057 606.429 118.932 538.79" stroke="#4D2CAB" stroke-miterlimit="10" stroke-linecap="round" stroke-linejoin="bevel" stroke-dasharray="4 4"/>
<path d="M369.851 667.593C274.129 681.097 184.041 662.532 116.195 615.34" stroke="#4D2CAB" stroke-miterlimit="10" stroke-linecap="round" stroke-linejoin="bevel" stroke-dasharray="4 4"/>
<path d="M369.853 667.596C298.815 707.197 231.954 713.185 181.57 684.455C281.206 744.416 446.142 746.093 549.985 688.177C501.955 715.906 437.993 708.595 369.838 667.582L369.853 667.596Z" stroke="#4D2CAB" stroke-miterlimit="10" stroke-linecap="round" stroke-linejoin="bevel" stroke-dasharray="4 4"/>
<path d="M300.653 695.958C337.297 718.009 397.964 718.627 436.153 697.326" stroke="#4D2CAB" stroke-miterlimit="10" stroke-linecap="round" stroke-linejoin="bevel" stroke-dasharray="4 4"/>
<path d="M236.985 701.651C307.317 743.988 423.767 745.165 497.085 704.284" stroke="#4D2CAB" stroke-miterlimit="10" stroke-linecap="round" stroke-linejoin="bevel" stroke-dasharray="4 4"/>
<path d="M369.852 667.599C342.917 722.499 317.497 742.859 298.299 724.941" stroke="#4D2CAB" stroke-miterlimit="10" stroke-linecap="round" stroke-linejoin="bevel" stroke-dasharray="4 4"/>
<path d="M369.853 667.599C392.845 722.999 414.367 743.844 430.461 726.28" stroke="#4D2CAB" stroke-miterlimit="10" stroke-linecap="round" stroke-linejoin="bevel" stroke-dasharray="4 4"/>
<path d="M369.852 667.595C438.006 708.609 501.968 715.92 549.999 688.19C653.842 630.289 657.255 534.743 557.634 474.782C507.573 559.516 440.89 627.994 369.852 667.61V667.595Z" stroke="#4D2CAB" stroke-miterlimit="10" stroke-linecap="round" stroke-linejoin="bevel" stroke-dasharray="4 4"/>
<path d="M369.852 667.597C464.544 683.028 553.471 666.273 620.272 620.449" stroke="#4D2CAB" stroke-miterlimit="10" stroke-linecap="round" stroke-linejoin="bevel" stroke-dasharray="4 4"/>
<path d="M369.852 667.597C465.574 654.093 555.486 610.167 623.008 543.88" stroke="#4D2CAB" stroke-miterlimit="10" stroke-linecap="round" stroke-linejoin="bevel" stroke-dasharray="4 4"/>
<path d="M189.205 471.045C140.865 385.311 114.107 293.899 113.886 213.667C-32.9709 295.561 -37.8107 430.679 103.088 515.486C103.309 595.718 131.186 655.738 181.57 684.468C81.9344 624.507 85.362 528.961 189.205 471.06V471.045Z" stroke="#4D2CAB" stroke-miterlimit="10" stroke-linecap="round" stroke-linejoin="bevel" stroke-dasharray="4 4"/>
<path d="M148.235 384.026C20.9135 455.02 16.721 572.176 138.879 645.7" stroke="#4D2CAB" stroke-miterlimit="10" stroke-linecap="round" stroke-linejoin="bevel" stroke-dasharray="4 4"/>
<path d="M122.771 297C-19.0989 376.115 -23.7622 506.643 112.341 588.567" stroke="#4D2CAB" stroke-miterlimit="10" stroke-linecap="round" stroke-linejoin="bevel" stroke-dasharray="4 4"/>
<path d="M118.931 538.775C51.8211 471.135 14.7354 389.697 14.5 309.464" stroke="#4D2CAB" stroke-miterlimit="10" stroke-linecap="round" stroke-linejoin="bevel" stroke-dasharray="4 4"/>
<path d="M116.195 615.342C48.3496 568.15 10.852 497.965 10.6313 417.733" stroke="#4D2CAB" stroke-miterlimit="10" stroke-linecap="round" stroke-linejoin="bevel" stroke-dasharray="4 4"/>
<path d="M181.569 684.457C131.185 655.727 103.308 595.707 103.087 515.475C243.987 600.267 477.254 602.636 624.111 520.741C624.332 600.973 598.014 660.434 549.999 688.178C446.156 746.08 281.205 744.417 181.584 684.457H181.569Z" stroke="#4D2CAB" stroke-miterlimit="10" stroke-linecap="round" stroke-linejoin="bevel" stroke-dasharray="4 4"/>
<path d="M138.879 645.708C261.037 719.232 463.279 721.276 590.601 650.283" stroke="#4D2CAB" stroke-miterlimit="10" stroke-linecap="round" stroke-linejoin="bevel" stroke-dasharray="4 4"/>
<path d="M112.341 588.557C248.444 670.481 473.797 672.761 615.668 593.647" stroke="#4D2CAB" stroke-miterlimit="10" stroke-linecap="round" stroke-linejoin="bevel" stroke-dasharray="4 4"/>
<path d="M298.284 724.938C279.072 707.02 268.377 652.958 268.142 572.726" stroke="#4D2CAB" stroke-miterlimit="10" stroke-linecap="round" stroke-linejoin="bevel" stroke-dasharray="4 4"/>
<path d="M634.908 218.935C634.688 138.688 606.811 78.6829 556.427 49.9529C456.791 -10.0079 291.84 -11.6703 187.997 46.2311C139.967 73.9607 113.649 133.421 113.885 213.668C260.742 131.774 494.009 134.142 634.908 218.935Z" stroke="#4D2CAB" stroke-miterlimit="10" stroke-linecap="round" stroke-linejoin="bevel" stroke-dasharray="4 4"/>
<path d="M625.656 145.849C489.552 63.9255 264.199 61.6453 122.329 140.759" stroke="#4D2CAB" stroke-miterlimit="10" stroke-linecap="round" stroke-linejoin="bevel" stroke-dasharray="4 4"/>
<path d="M599.103 88.6991C476.945 15.175 274.702 13.1303 147.381 84.1241" stroke="#4D2CAB" stroke-miterlimit="10" stroke-linecap="round" stroke-linejoin="bevel" stroke-dasharray="4 4"/>
<path d="M282.912 159.795C282.691 79.5481 291.429 25.6922 307.523 8.14233" stroke="#4D2CAB" stroke-miterlimit="10" stroke-linecap="round" stroke-linejoin="bevel" stroke-dasharray="4 4"/>
<path d="M556.413 49.9509C506.97 21.7505 441.655 26.9875 372.117 65.7649C370.014 64.4998 366.527 64.4704 364.335 65.6914C297.607 25.5311 235.131 19.0143 187.998 46.2291C291.841 -11.6722 456.792 -10.0099 556.413 49.9509Z" stroke="#4D2CAB" stroke-miterlimit="10" stroke-linecap="round" stroke-linejoin="bevel" stroke-dasharray="4 4"/>
<path d="M439.698 9.4686C420.854 -8.11069 396.022 11.1603 369.646 64.9132" stroke="#4D2CAB" stroke-miterlimit="10" stroke-linecap="round" stroke-linejoin="bevel" stroke-dasharray="4 4"/>
<path d="M307.522 8.12724C323.321 -9.09898 344.343 10.6281 366.85 64.8811" stroke="#4D2CAB" stroke-miterlimit="10" stroke-linecap="round" stroke-linejoin="bevel" stroke-dasharray="4 4"/>
<path d="M187.998 46.2279C235.131 19.0131 297.607 25.53 364.335 65.6902C362.143 66.9112 362.07 68.9265 364.173 70.1917C294.621 108.969 229.497 176.476 180.363 259.636C80.7276 199.675 84.1552 104.129 187.998 46.2279Z" stroke="#4D2CAB" stroke-miterlimit="10" stroke-linecap="round" stroke-linejoin="bevel" stroke-dasharray="4 4"/>
<path d="M117.726 113.971C183.276 69.0003 270.143 52.0241 362.85 67.1173" stroke="#4D2CAB" stroke-miterlimit="10" stroke-linecap="round" stroke-linejoin="bevel" stroke-dasharray="4 4"/>
<path d="M114.989 190.523C181.26 125.472 269.069 81.9434 362.791 68.7332" stroke="#4D2CAB" stroke-miterlimit="10" stroke-linecap="round" stroke-linejoin="bevel" stroke-dasharray="4 4"/>
<path d="M180.363 259.639C229.497 176.48 294.621 108.972 364.174 70.1951C366.277 71.4602 369.764 71.4896 371.955 70.2686C438.683 110.429 501.336 179.231 548.793 263.361C444.95 321.263 279.999 319.6 180.378 259.639H180.363Z" stroke="#4D2CAB" stroke-miterlimit="10" stroke-linecap="round" stroke-linejoin="bevel" stroke-dasharray="4 4"/>
<path d="M297.078 300.126C315.613 206.36 340.254 124.804 366.63 71.0508" stroke="#4D2CAB" stroke-miterlimit="10" stroke-linecap="round" stroke-linejoin="bevel" stroke-dasharray="4 4"/>
<path d="M429.254 301.464C413.145 207.345 391.947 125.333 369.425 71.0798" stroke="#4D2CAB" stroke-miterlimit="10" stroke-linecap="round" stroke-linejoin="bevel" stroke-dasharray="4 4"/>
<path d="M548.792 263.371C501.35 179.24 438.682 110.439 371.955 70.2783C374.146 69.0573 374.22 67.0419 372.116 65.7768C441.669 26.9994 506.969 21.7624 556.412 49.9628C656.048 109.924 652.62 205.47 548.777 263.371H548.792Z" stroke="#4D2CAB" stroke-miterlimit="10" stroke-linecap="round" stroke-linejoin="bevel" stroke-dasharray="4 4"/>
<path d="M619.05 195.629C553.191 129.255 466.147 83.9458 373.426 68.8379" stroke="#4D2CAB" stroke-miterlimit="10" stroke-linecap="round" stroke-linejoin="bevel" stroke-dasharray="4 4"/>
<path d="M621.801 119.064C555.221 72.7542 467.236 54.0128 373.5 67.223" stroke="#4D2CAB" stroke-miterlimit="10" stroke-linecap="round" stroke-linejoin="bevel" stroke-dasharray="4 4"/>
<path d="M369.851 667.593C440.889 627.992 507.558 559.513 557.634 474.765C457.998 414.804 293.062 413.127 189.219 471.043C237.558 556.777 301.711 626.58 369.866 667.593H369.851Z" stroke="#4D2CAB" stroke-miterlimit="10" stroke-linecap="round" stroke-linejoin="bevel" stroke-dasharray="4 4"/>
<path d="M369.853 667.592C396.788 612.692 422.031 529.841 440.905 434.28" stroke="#4D2CAB" stroke-miterlimit="10" stroke-linecap="round" stroke-linejoin="bevel" stroke-dasharray="4 4"/>
<path d="M369.852 667.594C346.859 612.193 325.161 528.857 308.744 432.943" stroke="#4D2CAB" stroke-miterlimit="10" stroke-linecap="round" stroke-linejoin="bevel" stroke-dasharray="4 4"/>
<path d="M369.852 667.593C301.697 626.579 237.558 556.777 189.204 471.043C85.3614 528.944 81.9486 624.49 181.569 684.451C231.954 713.181 298.814 707.194 369.852 667.593Z" stroke="#4D2CAB" stroke-miterlimit="10" stroke-linecap="round" stroke-linejoin="bevel" stroke-dasharray="4 4"/>
<path d="M369.852 667.593C275.159 652.162 186.057 606.426 118.932 538.786" stroke="#4D2CAB" stroke-miterlimit="10" stroke-linecap="round" stroke-linejoin="bevel" stroke-dasharray="4 4"/>
<path d="M369.851 667.59C274.129 681.094 184.041 662.529 116.195 615.337" stroke="#4D2CAB" stroke-miterlimit="10" stroke-linecap="round" stroke-linejoin="bevel" stroke-dasharray="4 4"/>
<path d="M634.908 218.932C634.688 138.685 606.811 78.6804 556.427 49.9504C456.791 -10.0104 291.84 -11.6727 187.997 46.2286C139.967 73.9583 113.649 133.419 113.885 213.666C260.742 131.771 494.009 134.14 634.908 218.932Z" stroke="#4D2CAB" stroke-miterlimit="10" stroke-linecap="round" stroke-linejoin="bevel" stroke-dasharray="4 4"/>
<path d="M625.656 145.847C489.552 63.923 264.199 61.6429 122.329 140.757" stroke="#4D2CAB" stroke-miterlimit="10" stroke-linecap="round" stroke-linejoin="bevel" stroke-dasharray="4 4"/>
<path d="M599.103 88.6967C476.945 15.1726 274.702 13.1278 147.381 84.1216" stroke="#4D2CAB" stroke-miterlimit="10" stroke-linecap="round" stroke-linejoin="bevel" stroke-dasharray="4 4"/>
<path d="M282.913 159.793C282.692 79.5456 291.43 25.6898 307.524 8.13989" stroke="#4D2CAB" stroke-miterlimit="10" stroke-linecap="round" stroke-linejoin="bevel" stroke-dasharray="4 4"/>
<path d="M187.998 46.2257C235.131 19.0109 297.607 25.5278 364.335 65.688C362.143 66.909 362.07 68.9243 364.173 70.1895C294.621 108.967 229.497 176.474 180.363 259.634C80.7276 199.673 84.1552 104.127 187.998 46.2257Z" stroke="#4D2CAB" stroke-miterlimit="10" stroke-linecap="round" stroke-linejoin="bevel" stroke-dasharray="4 4"/>
<path d="M239.839 30.2507C165.918 71.4701 163.476 139.492 234.411 182.183" stroke="#4D2CAB" stroke-miterlimit="10" stroke-linecap="round" stroke-linejoin="bevel" stroke-dasharray="4 4"/>
<path d="M299.432 36.741C259.86 58.807 258.566 95.216 296.519 118.062" stroke="#4D2CAB" stroke-miterlimit="10" stroke-linecap="round" stroke-linejoin="bevel" stroke-dasharray="4 4"/>
<path d="M117.726 113.969C183.276 68.9981 270.143 52.0219 362.85 67.1151" stroke="#4D2CAB" stroke-miterlimit="10" stroke-linecap="round" stroke-linejoin="bevel" stroke-dasharray="4 4"/>
<path d="M114.989 190.521C181.26 125.47 269.069 81.9412 362.791 68.731" stroke="#4D2CAB" stroke-miterlimit="10" stroke-linecap="round" stroke-linejoin="bevel" stroke-dasharray="4 4"/>
<path d="M180.363 259.633C229.497 176.473 294.621 108.966 364.174 70.1882C366.277 71.4534 369.764 71.4828 371.955 70.2618C438.683 110.422 501.336 179.224 548.793 263.354C444.95 321.256 279.999 319.593 180.378 259.633H180.363Z" stroke="#4D2CAB" stroke-miterlimit="10" stroke-linecap="round" stroke-linejoin="bevel" stroke-dasharray="4 4"/>
<path d="M234.395 182.183C305.315 224.873 422.751 226.065 496.672 184.831" stroke="#4D2CAB" stroke-miterlimit="10" stroke-linecap="round" stroke-linejoin="bevel" stroke-dasharray="4 4"/>
<path d="M296.534 118.059C334.502 140.904 397.346 141.537 436.918 119.486" stroke="#4D2CAB" stroke-miterlimit="10" stroke-linecap="round" stroke-linejoin="bevel" stroke-dasharray="4 4"/>
<path d="M297.078 300.119C315.613 206.353 340.254 124.797 366.63 71.0439" stroke="#4D2CAB" stroke-miterlimit="10" stroke-linecap="round" stroke-linejoin="bevel" stroke-dasharray="4 4"/>
<path d="M429.254 301.457C413.145 207.338 391.947 125.326 369.425 71.073" stroke="#4D2CAB" stroke-miterlimit="10" stroke-linecap="round" stroke-linejoin="bevel" stroke-dasharray="4 4"/>
<path d="M548.792 263.369C501.35 179.238 438.682 110.436 371.955 70.2761C374.146 69.0551 374.22 67.0397 372.116 65.7746C441.669 26.9972 506.969 21.7602 556.412 49.9606C656.048 109.921 652.62 205.467 548.777 263.369H548.792Z" stroke="#4D2CAB" stroke-miterlimit="10" stroke-linecap="round" stroke-linejoin="bevel" stroke-dasharray="4 4"/>
<path d="M619.05 195.627C553.191 129.253 466.147 83.9436 373.426 68.8357" stroke="#4D2CAB" stroke-miterlimit="10" stroke-linecap="round" stroke-linejoin="bevel" stroke-dasharray="4 4"/>
<path d="M621.801 119.061C555.221 72.752 467.236 54.0106 373.5 67.2208" stroke="#4D2CAB" stroke-miterlimit="10" stroke-linecap="round" stroke-linejoin="bevel" stroke-dasharray="4 4"/>
<path d="M372.118 65.7649C370.794 66.5005 369.47 67.2508 368.146 68.0158C366.881 67.2214 365.601 66.4564 364.336 65.6914C366.528 64.4703 370.015 64.4997 372.118 65.7649Z" stroke="#4D2CAB" stroke-miterlimit="10" stroke-linecap="round" stroke-linejoin="bevel" stroke-dasharray="4 4"/>
<path d="M369.646 64.9084C369.146 65.9237 368.646 66.9684 368.146 68.013" stroke="#4D2CAB" stroke-miterlimit="10" stroke-linecap="round" stroke-linejoin="bevel" stroke-dasharray="4 4"/>
<path d="M366.865 64.8823C367.292 65.9123 367.719 66.9569 368.145 68.0163" stroke="#4D2CAB" stroke-miterlimit="10" stroke-linecap="round" stroke-linejoin="bevel" stroke-dasharray="4 4"/>
<path d="M364.335 65.6875C365.601 66.4526 366.881 67.2324 368.146 68.0122C366.822 68.7332 365.498 69.4542 364.174 70.1899C362.069 68.9245 362.143 66.9087 364.335 65.6875Z" stroke="#4D2CAB" stroke-miterlimit="10" stroke-linecap="round" stroke-linejoin="bevel" stroke-dasharray="4 4"/>
<path d="M362.85 67.1143C364.615 67.4085 366.381 67.7028 368.147 68.0118" stroke="#4D2CAB" stroke-miterlimit="10" stroke-linecap="round" stroke-linejoin="bevel" stroke-dasharray="4 4"/>
<path d="M362.791 68.7342C364.571 68.484 366.351 68.2486 368.146 68.0132" stroke="#4D2CAB" stroke-miterlimit="10" stroke-linecap="round" stroke-linejoin="bevel" stroke-dasharray="4 4"/>
<path d="M364.174 70.1905C365.498 69.4549 366.822 68.7193 368.146 68.0132C369.411 68.7488 370.691 69.5138 371.956 70.2788C369.764 71.4999 366.278 71.4704 364.174 70.2052V70.1905Z" stroke="#4D2CAB" stroke-miterlimit="10" stroke-linecap="round" stroke-linejoin="bevel" stroke-dasharray="4 4"/>
<path d="M366.645 71.0442C367.145 70.029 367.645 69.0137 368.145 68.0132" stroke="#4D2CAB" stroke-miterlimit="10" stroke-linecap="round" stroke-linejoin="bevel" stroke-dasharray="4 4"/>
<path d="M369.425 71.0736C368.998 70.0437 368.571 69.0137 368.145 68.0132" stroke="#4D2CAB" stroke-miterlimit="10" stroke-linecap="round" stroke-linejoin="bevel" stroke-dasharray="4 4"/>
<path d="M371.955 70.2781C370.69 69.513 369.41 68.7626 368.145 68.0122C369.469 67.2471 370.793 66.4967 372.117 65.761C374.221 67.0264 374.148 69.0421 371.955 70.2634V70.2781Z" stroke="#4D2CAB" stroke-miterlimit="10" stroke-linecap="round" stroke-linejoin="bevel" stroke-dasharray="4 4"/>
<path d="M373.441 68.8352C371.676 68.5409 369.91 68.2761 368.145 68.0112" stroke="#4D2CAB" stroke-miterlimit="10" stroke-linecap="round" stroke-linejoin="bevel" stroke-dasharray="4 4"/>
<path d="M373.5 67.2168C371.72 67.4669 369.94 67.7318 368.145 68.0113" stroke="#4D2CAB" stroke-miterlimit="10" stroke-linecap="round" stroke-linejoin="bevel" stroke-dasharray="4 4"/>
<path d="M372.187 66.4601C370.805 67.1236 369.423 67.8003 368.042 68.4903M372.187 66.4601C374.382 67.6013 374.305 69.4191 372.018 70.5204C369.73 71.6218 366.092 71.5952 363.897 70.4541C361.701 69.313 361.778 67.4951 364.066 66.3938C366.353 65.2925 369.991 65.319 372.187 66.4601Z" stroke="#4D2CAB" stroke-linecap="round" stroke-linejoin="bevel" stroke-dasharray="4 4"/>
<path d="M180.362 259.633C229.496 176.474 294.62 108.966 364.173 70.1887C366.276 71.4538 369.763 71.4833 371.954 70.2623C438.682 110.422 501.335 179.224 548.792 263.355C444.949 321.256 279.998 319.594 180.377 259.633H180.362Z" stroke="#4D2CAB" stroke-miterlimit="10" stroke-linecap="round" stroke-linejoin="bevel" stroke-dasharray="4 4"/>
<path d="M297.078 300.116C315.613 206.35 340.254 124.794 366.63 71.0413" stroke="#4D2CAB" stroke-miterlimit="10" stroke-linecap="round" stroke-linejoin="bevel" stroke-dasharray="4 4"/>
<path d="M429.254 301.454C413.145 207.335 391.947 125.323 369.425 71.0701" stroke="#4D2CAB" stroke-miterlimit="10" stroke-linecap="round" stroke-linejoin="bevel" stroke-dasharray="4 4"/>
<path d="M372.118 65.7615C370.794 66.4971 369.47 67.2474 368.146 68.0124C366.881 67.218 365.601 66.453 364.336 65.688C366.528 64.4669 370.015 64.4963 372.118 65.7615Z" stroke="#4D2CAB" stroke-miterlimit="10" stroke-linecap="round" stroke-linejoin="bevel" stroke-dasharray="4 4"/>
<path d="M370.795 66.5067C369.398 65.6681 367.073 65.6386 365.602 66.4479" stroke="#4D2CAB" stroke-miterlimit="10" stroke-linecap="round" stroke-linejoin="bevel" stroke-dasharray="4 4"/>
<path d="M369.469 67.2586C368.763 66.8319 367.601 66.8172 366.88 67.2292" stroke="#4D2CAB" stroke-miterlimit="10" stroke-linecap="round" stroke-linejoin="bevel" stroke-dasharray="4 4"/>
<path d="M369.646 64.905C369.146 65.9203 368.646 66.9649 368.146 68.0096" stroke="#4D2CAB" stroke-miterlimit="10" stroke-linecap="round" stroke-linejoin="bevel" stroke-dasharray="4 4"/>
<path d="M366.865 64.876C367.292 65.9059 367.719 66.9506 368.145 68.01" stroke="#4D2CAB" stroke-miterlimit="10" stroke-linecap="round" stroke-linejoin="bevel" stroke-dasharray="4 4"/>
<path d="M364.335 65.6895C365.601 66.4546 366.881 67.2344 368.146 68.0142C366.822 68.7352 365.498 69.4561 364.174 70.1918C362.069 68.9265 362.143 66.9107 364.335 65.6895Z" stroke="#4D2CAB" stroke-miterlimit="10" stroke-linecap="round" stroke-linejoin="bevel" stroke-dasharray="4 4"/>
<path d="M365.601 66.4548C364.145 67.2641 364.086 68.6177 365.498 69.4564" stroke="#4D2CAB" stroke-miterlimit="10" stroke-linecap="round" stroke-linejoin="bevel" stroke-dasharray="4 4"/>
<path d="M366.88 67.2292C366.145 67.6412 366.13 68.3033 366.822 68.73" stroke="#4D2CAB" stroke-miterlimit="10" stroke-linecap="round" stroke-linejoin="bevel" stroke-dasharray="4 4"/>
<path d="M362.85 67.1162C364.615 67.4105 366.381 67.7048 368.147 68.0137" stroke="#4D2CAB" stroke-miterlimit="10" stroke-linecap="round" stroke-linejoin="bevel" stroke-dasharray="4 4"/>
<path d="M362.791 68.7332C364.571 68.483 366.351 68.2476 368.146 68.0122" stroke="#4D2CAB" stroke-miterlimit="10" stroke-linecap="round" stroke-linejoin="bevel" stroke-dasharray="4 4"/>
<path d="M364.174 70.191C365.498 69.4554 366.822 68.7198 368.146 68.0137C369.411 68.7493 370.691 69.5143 371.956 70.2793C369.764 71.5003 366.278 71.4709 364.174 70.2057V70.191Z" stroke="#4D2CAB" stroke-miterlimit="10" stroke-linecap="round" stroke-linejoin="bevel" stroke-dasharray="4 4"/>
<path d="M365.498 69.4521C366.895 70.2908 369.22 70.3202 370.691 69.511" stroke="#4D2CAB" stroke-miterlimit="10" stroke-linecap="round" stroke-linejoin="bevel" stroke-dasharray="4 4"/>
<path d="M366.822 68.7358C367.529 69.1625 368.691 69.1772 369.412 68.7653" stroke="#4D2CAB" stroke-miterlimit="10" stroke-linecap="round" stroke-linejoin="bevel" stroke-dasharray="4 4"/>
<path d="M366.645 71.0447C367.145 70.0294 367.645 69.0142 368.145 68.0137" stroke="#4D2CAB" stroke-miterlimit="10" stroke-linecap="round" stroke-linejoin="bevel" stroke-dasharray="4 4"/>
<path d="M369.425 71.0741C368.998 70.0442 368.571 69.0142 368.145 68.0137" stroke="#4D2CAB" stroke-miterlimit="10" stroke-linecap="round" stroke-linejoin="bevel" stroke-dasharray="4 4"/>
<path d="M371.955 70.2803C370.69 69.5152 369.41 68.7648 368.145 68.0144C369.469 67.2493 370.793 66.4989 372.117 65.7632C374.221 67.0286 374.148 69.0443 371.955 70.2656V70.2803Z" stroke="#4D2CAB" stroke-miterlimit="10" stroke-linecap="round" stroke-linejoin="bevel" stroke-dasharray="4 4"/>
<path d="M370.691 69.513C372.148 68.7038 372.206 67.3502 370.794 66.5115" stroke="#4D2CAB" stroke-miterlimit="10" stroke-linecap="round" stroke-linejoin="bevel" stroke-dasharray="4 4"/>
<path d="M369.41 68.7659C370.146 68.3539 370.161 67.6918 369.469 67.2651" stroke="#4D2CAB" stroke-miterlimit="10" stroke-linecap="round" stroke-linejoin="bevel" stroke-dasharray="4 4"/>
<path d="M373.441 68.8347C371.676 68.5404 369.91 68.2756 368.145 68.0107" stroke="#4D2CAB" stroke-miterlimit="10" stroke-linecap="round" stroke-linejoin="bevel" stroke-dasharray="4 4"/>
<path d="M373.5 67.219C371.72 67.4691 369.94 67.734 368.145 68.0135" stroke="#4D2CAB" stroke-miterlimit="10" stroke-linecap="round" stroke-linejoin="bevel" stroke-dasharray="4 4"/>
<path d="M372.187 66.4601C370.805 67.1236 369.423 67.8003 368.042 68.4903M372.187 66.4601C374.382 67.6013 374.305 69.4191 372.018 70.5204C369.73 71.6218 366.092 71.5952 363.897 70.4541C361.701 69.313 361.778 67.4951 364.066 66.3938C366.353 65.2925 369.991 65.319 372.187 66.4601Z" stroke="#4D2CAB" stroke-miterlimit="10" stroke-linecap="round" stroke-linejoin="bevel" stroke-dasharray="4 4"/>
</svg>
