<?xml version="1.0" encoding="UTF-8"?>
<svg xmlns="http://www.w3.org/2000/svg" xmlns:i="http://ns.adobe.com/AdobeIllustrator/10.0/" version="1.1" viewBox="0 0 684.36 369.08">
  <!-- Generator: Adobe Illustrator 30.0.0, SVG Export Plug-In . SVG Version: 2.1.1 Build 123)  -->
  <defs>
    <style>
      .st0 {
        stroke: #933a21;
      }

      .st0, .st1, .st2, .st3 {
        fill: none;
        stroke-linecap: round;
        stroke-linejoin: round;
      }

      .st4 {
        fill: #cdf3a3;
      }

      .st1 {
        stroke: #6ab418;
      }

      .st2 {
        stroke: #4d2cab;
      }

      .st5 {
        fill: #ef7e5f;
      }

      .st3 {
        stroke: #725f00;
      }

      .st6 {
        fill: #9f93f2;
      }

      .st7 {
        fill: #f9ee8f;
      }
    </style>
  </defs>
  <g id="layer-1">
    <path id="base-1" class="st5" d="M467.12,326.73l-174.17,41.92-136.24-69.37-18.46-8.66-24.45-8.48-58.39-17.3L3.49,238.4l73.36-22.96,63.88-11.98c.5-1.5,4.59-9.18,16.97-27.95,18.46-34.93,64.88-91.83,103.31-84.34,30.74,5.99,57.06,47.08,66.38,66.87l65.38-14.97,23.45,8.98,42.92,20.96,44.91,19.46,25.45,14.97,19.96,13.47,24.95,20.46,21.96,14.97,16.47,6.49,20.46,3.49,37.43,1.5,12.98,4.49-62.88,15.97-32.94,38.43-23.96,20.79-17.97,10.48-15.47,4.66h-18.96l-17.47-10.98-26.95-24.95Z"/>
    <path id="grid-1" class="st0" d="M2.5,238.41c30.93-8.93,60.79-20.03,92.45-26.45,34.38-6.97,68.71-12.66,102.82-20.94,64.83-15.74,129.78-34.94,195.25-47.39,28.47,8.19,51.14,22.6,78,34.46,26.17,11.56,49.87,22.01,72.95,39.18,21.94,16.32,46.15,40.42,73.49,46.62,22.71,5.15,42.5-.76,65.89,8.01-129.12,35.35-260.37,64.27-390.32,96.63-49.28-22.85-95.84-51.2-145.24-73.72-25.52-11.63-52.49-17.46-79.09-26.04-23.64-7.62-43.91-19.7-66.18-30.36h-.02ZM283.59,364.19c64.96-16.43,130.12-32.08,195.16-48.17,65.01-16.09,132.59-25.05,195.54-47.69M274.17,359.69c64.83-16.76,130.15-31.79,195.17-47.87,29.34-7.25,58.78-16.52,88.96-19.07,39.49-3.32,71.54-9.89,107.62-26.87M264.73,355.07c64.61-17.27,130.22-31.39,195.17-47.43,31.52-7.79,59.65-13.88,92.31-13.56,40.95.4,71.13-8.1,105.98-29.55M255.32,350.38c64.28-18.04,130.3-30.91,195.17-46.93,33.35-8.23,60.04-8.14,94.21-5.26,43.62,3.67,72.82-7.13,106.29-34.17M245.9,345.55c64.03-18.4,130.31-30.76,195.17-46.29,35.37-8.46,65.66,1.35,100.94,5.81,44.93,5.67,72.23-9.23,102.07-41.1M236.5,340.65c34.75-10.06,69.55-16.13,104.88-23.57,30.08-6.33,59.95-17.43,90.35-21.87,37.09-5.42,72.81,13.7,108.96,18.95,47.34,6.87,69.74-14.94,96.85-49.67M227.09,335.7c34-9.91,67.36-16.9,102.16-22.93,30.63-5.31,63.87-20.43,95.08-18.34,41.5,2.78,78.37,26.09,119.51,30.8,46.43,5.31,64.14-25.77,87.41-59.77M217.68,330.72c35.06-10.24,68.86-17.98,104.91-23.53,31.56-4.86,63.96-19.71,96.05-12.49,41.88,9.42,78.57,36.09,121.83,41.08,49.4,5.69,62.9-34.1,83.78-70.51M208.28,325.72c35.03-10.22,68.71-19.16,104.91-23.96,34.05-4.49,66.9-18.62,100.95-7.25,43.36,14.48,78.5,48.85,125.94,51.91,49,3.16,58.39-47.57,76.26-82.85M198.89,320.74c34.87-10.11,68.79-20.26,104.91-24.54,35.34-4.18,71.8-17.75,106.24-3.88,44.05,17.75,78.14,63.8,128.6,63.01,45.92-.73,53.2-62.15,68.79-95.13M189.5,315.79c34.71-9.96,69-20.72,104.92-25.18,34.95-4.34,78.05-17.27,111.43-3.11,24.12,10.23,44.51,28.34,64.85,44.4,18.61,14.69,39.07,33.11,64.58,29.16,40.51-6.26,47.89-75.22,62.21-105.94M180.11,310.88c35.1-9.93,70.62-18.3,105.71-28.02,18.92-5.24,35.4-5.57,55-5.31,21,.28,40.02-5.24,60.42,2.78,24.51,9.64,44.95,29.12,64.37,46.24,15.41,13.58,39.64,42.63,63.32,35.32,17.58-5.43,25.25-26.28,30.98-42.04,8.76-24.14,15.37-48.28,26.62-71.46M170.73,306.05c35.96-9.99,70.64-17.14,103.6-34.49,19.98-10.52,37.58-12.41,59.41-7.72,20.33,4.36,43.18,2.65,62.5,8.43,25.16,7.54,45.05,27.68,63.75,45.16,14.29,13.35,38.69,48.08,61.35,38.44,13.92-5.92,21.06-30.66,25.45-43.28,8.61-24.81,15.55-49.05,27.97-72.33M161.35,301.31c18.64-5.06,38.22-8.57,56.4-15.05,18.17-6.48,31.89-20.13,47.22-31.4,20.43-15.01,38.37-19.86,62.56-11.07,9.96,3.61,19.12,9.2,28.84,13.31,11.63,4.92,22.12,4.46,34.26,6.85,24.26,4.77,41.86,21.22,59.36,37.93,12.4,11.85,37.3,47.6,57.9,41.85,14.12-3.94,20.7-31.48,24.73-43.1,8.46-24.34,16.03-47.45,29.69-69.47M151.98,296.77c16.19-4.34,35.7-6.45,50.75-13.97,21.72-10.85,36.37-35.85,54.58-51.54,19.27-16.61,36.23-24.02,60.75-13.89,23.4,9.67,41.16,34.8,66.53,39.48,23.48,4.32,36.58,10.83,54.71,27.88,11.21,10.55,32.39,39.91,49.94,39.88,19.52-.04,24.21-28.6,29.79-43.35,8.18-21.61,16.54-41.18,30.62-59.68M142.61,292.5c15.49-4.27,34.48-5.8,47.8-15.35,22.43-16.09,34.61-47.4,53.52-67.46,18.83-19.98,37.57-34.48,64.93-22.64,28.63,12.4,42.16,43.63,68.28,58.7,8.22,4.75,15.41,2.42,23.45,4.95,9.19,2.89,17.42,9.64,24.68,15.65,12.16,10.08,29.4,33.6,46.21,35.76,20.09,2.6,24.75-21.65,31.28-36.39,9.01-20.35,18.49-37.72,34.32-53.57M133.24,288.51c15.17-4.4,32.76-6.37,44.73-17.34,20.43-18.76,30.23-51.33,45.83-73.89,15.42-22.28,40.67-54.38,71.68-43.96,32.71,10.99,50.32,51.24,71.94,74.41,14.58,15.61,27.45,13.58,44.55,24.03,13.36,8.15,26.92,25.58,43.15,27.58,17.61,2.18,22.79-14.88,30.05-28.12,10.66-19.43,21.67-34.59,39.93-47.47M123.18,284.79c13.19-4.55,29.74-7.37,40.06-17.17,20.67-19.63,29.73-56.7,43.71-80.96,14.02-24.35,41.06-69.74,75.39-62.92,34.29,6.8,56.92,56.24,72.75,81.62,12.9,20.7,20.42,27.51,41.97,34.01,13.92,4.2,24.97,16.94,39.65,18.81,16.84,2.14,23.14-10.65,31.91-22.89,12.7-17.74,25.5-29.35,45.73-38M111.61,281.21c11.03-4.43,26.82-8.29,36.02-16.1,20.94-17.78,29.88-58.43,41.85-82.05,13.85-27.34,40.57-81.44,77.78-81.51,36.08-.07,59.87,56.82,73.49,81.29,10.47,18.77,19.96,42.67,41.64,48.15,11.13,2.82,24.99,8.1,36.54,8.9,15.91,1.1,23.76-8.39,34.06-19.02,15.25-15.76,30.66-22.57,51.96-27.78M99.38,277.72c10.04-4.64,23.06-9.11,32.04-15.55,21.3-15.3,30-53.37,40.62-75.78,15.47-32.68,37.44-83.23,76.32-93.74,37.43-10.12,63.93,47.37,77.14,71.32,8.92,16.17,22.4,54.21,42.32,59.73,9.15,2.53,24.66,1.93,34.47,1.62,15.03-.48,24.69-7.89,36.79-15.96,17.66-11.78,36.02-15.38,56.52-20.39M87.16,274.29c9.26-4.84,19.03-10.01,27.71-15.82,23.27-15.55,32.31-45.64,44.12-70.48,16.4-34.46,34.87-74.99,72.67-89.53,38.87-14.94,61.13,23.18,78.43,52.57,10.49,17.81,22.94,54.02,42.15,64.73,9.43,5.26,22.17.66,32.58-.93,15.93-2.43,28.85-9.08,43.74-14.74,18.42-7.02,38.54-10.59,57.68-15.27M75.46,270.89c8.7-5.01,16.58-11.25,25.22-16.32,22.52-13.2,31.1-29.84,43.2-53.3,16.54-32.07,37.52-70.42,70.74-87.68,36.47-18.96,59.06.98,80.11,31.5,13.05,18.93,24.01,48.62,43.01,62.58,12.07,8.86,20.24,3.62,33.3.04,35.17-9.64,70.44-18.38,105.87-27.03M64.64,267.53c25.08-15.53,51.27-28.58,67.9-53.18,31.65-46.82,89.8-134.11,147.44-67.68,14.71,16.95,25.52,41.53,43.79,55.06,13.16,9.75,20.87,5.68,35.05,1.4,36.31-10.98,72.14-17.62,108.76-26.55M54.91,264.16c8.13-5.15,15.16-11.92,23.35-16.95,15.78-9.68,31.65-11.16,45.8-23.9,37.8-34.04,82-115.78,142.13-68.29,16.03,12.66,26.83,32.83,44.4,43.52,13.52,8.23,23.26,4.91,37.45.98,18.61-5.14,34.25-13.5,51.98-20.65,19.07-7.71,38.39-2.81,58.24-6.41M46.32,260.75c8.39-5.17,15.64-12.07,24.09-17.07,14.75-8.7,31.91-9.08,46.92-16.48,45.65-22.5,75.77-89.78,135.75-59.23,15.86,8.08,28.54,23.54,45.24,29.79,14.1,5.28,26.14,1.12,40.08-2.51,20.7-5.39,33.88-15.74,52.27-25.65,19.49-10.51,37.26-2,58.24-1.46M38.78,257.29c9.09-5.15,17.08-12.08,26.29-17.01,15.08-8.06,31.38-9.76,47.61-13.85,45.24-11.37,76.36-63.83,128.28-45.85,15.21,5.27,29.76,15.61,46.09,17.54,14.08,1.66,28.51-3.69,42.03-6.99,21.95-5.37,34.21-14,52.27-27.04,20.02-14.45,35.45-5.46,58.24-1.69M32.02,253.75c26.31-13.23,47.82-24.94,77.6-30.29,41.26-7.41,78.31-40.35,121.58-32.63,15.89,2.83,28.98,8.54,45.48,6.47,14.37-1.8,28.99-6.89,43.05-10.32,20.71-5.04,35.41-9.85,52.27-23.16,21.2-16.73,32.7-12.18,58.24-7.27M25.66,250.12c27.64-11.93,51.32-24.16,81.6-29.61,19.35-3.48,37.96-5.72,56.7-11.88,19.88-6.54,37.88-11.91,59.07-11.58,30.62.48,57.72-6.97,87.41-14.2,18.13-4.41,36.51-7.23,52.27-17.31,22.74-14.54,30.86-17.34,58.24-13.63M18.82,246.34c27.74-10.82,53.08-22.5,82.65-28.18,37.76-7.26,76.01-13.89,113.96-19.78,29.78-4.62,59.13-13.21,88.42-20.32,15.84-3.85,32.73-6.51,47.9-12.49,22.8-9.01,34.13-17.44,59.9-16.8M11.01,242.44c29.27-9.99,57.13-21.28,87.64-27.3,36.2-7.13,72.51-11.3,108.43-19.97,29.16-7.05,58.3-14.16,87.45-21.24,35.52-8.62,71.71-24.09,107.8-27.41M380.55,146c16.55,2.62,29.59,3.83,43.98,12.85,11.79,7.39,21.33,16.15,34.02,22.28,28.85,13.95,51.73,25.48,77.02,45.88,20.73,16.73,47.81,46.05,75.34,49.66,21.47,2.82,37.34-8.07,60.15-1.42M368.05,148.9c16.53.9,29.23-1.95,43.98,6.66,12.76,7.44,21.31,20.17,34.02,27.89,12.18,7.41,26,11.2,38.04,18.99,15.81,10.23,29.81,23.74,44.03,35.95,19.21,16.48,49.57,51.07,76.6,51.75,20.91.52,30.67-19.8,54.07-11.39M355.56,152.64c15.48,2.1,29.89-4.73,43.98,1.09,14.01,5.78,21.82,22.55,34.02,31.39,12.83,9.31,27.48,14.16,40.22,23.98,16.78,12.91,32.04,27.93,47.75,42.06,16.71,15.02,52.1,56.24,77.14,52.65,20.32-2.92,21.94-30.18,47.81-21.68M343.05,155.76c17.24,6.47,28.15-1.7,43.98,2.04,14.57,3.44,22.38,20.95,34.02,29.83,14.03,10.72,29.6,17.96,43.33,29.62,17.76,15.08,34.14,31.83,51.17,47.7,13.8,12.85,54.87,60.3,76.77,52.06,18.58-6.99,12.53-41.2,41.66-31.78M330.54,158.81c8.29,4.16,16.9,7.52,25.83,10.06,6.05-1.37,12.1-1.62,18.16-.73,14.67,2.86,22.37,14.78,34.02,23.48,36.58,27.32,68.18,55.99,101.36,87.67,12.31,11.75,55.11,61.31,75.01,49.18,15.76-9.6,4.21-51.77,36.41-40.4M318.02,161.84c27.05,11.99,53.37,18.24,78.12,34.23,41.53,26.84,72.75,63.2,108.05,97.49,12.44,12.07,53.79,60.55,71.54,43.47,11.86-11.4-.81-60.66,32.8-46.32M305.49,164.89c26.04,11.54,53.47,21.58,78.62,34.95,47.03,24.99,77.24,70.01,113.89,107.17,12.09,12.26,52.27,60.05,66.77,35.7,7.66-12.85-3.29-67.87,31.05-49.19M292.96,167.92c26.4,11.7,53.38,22.54,79.57,34.67,49.82,23.06,82.48,71.49,117.34,111.8,8.87,10.26,30.17,37.91,45.98,42.14,13.33,3.57,12.69-.32,16.14-11.17,7.24-22.74-8.22-62.7,31.34-48.7M280.41,170.97c26.98,11.97,53.85,23.53,81.22,34.43,51.41,20.47,84.66,66.69,117.9,108.78,9.25,11.72,52.41,76.53,57.84,30.88,3.24-27.17-6.48-62.32,33.41-45.29M267.86,174.01c27.69,12.29,54.99,25.3,83.7,34.9,52.17,17.45,83.21,55.18,115.57,98.28,3.9,5.2,32.56,53.19,43.83,54.36,11.76,1.22,9.62-11.08,10.12-19.59.62-10.41-3.63-27.79,1.6-37.65,9-16.96,20.72-8.04,35.56-1.45M255.3,177.07c28.77,12.76,56.95,23.18,86.6,33.51,50.3,17.54,79.09,41.24,111.02,84.51,5.97,8.09,28.36,50.48,40.47,55.23,11.79,4.63,9.7-3.41,9.89-13.89.15-8.23-3.33-28.22,2.83-35.62,11.13-13.34,26.66-.57,39.57,5.15M242.74,180.11c14.64,6.51,29.12,14.48,44.73,17.73,15.27,3.17,29.38,2.85,44.33,8.49,42.63,16.09,77.94,37.3,105.61,73.96,9.84,13.03,22.76,42.36,36.2,52.95,10.07,7.93,8.42,6.09,10.66-4.36,1.61-7.52-2.45-25.54,5.31-31.5,11.23-8.63,33.03,7.03,43.54,11.71M230.16,183.17c15.6,6.93,28.23,14.12,45.18,13.2,16.91-.9,28.21-6.26,45.42-.82,22.39,7.07,37.94,25.41,57.66,37.16,16.58,9.87,30.09,17.44,42.81,33.15,12.11,14.96,19.36,33.88,31.54,48.56,8.72,10.51,5.44,9.83,11.64,4.32,5.62-5-.35-18.88,9.17-23.91,9.86-5.22,38.15,13.45,46.99,17.38M217.58,186.22c18.08,8.04,26.45,13.56,44.88,6.43,17.31-6.7,25.84-17.28,45.95-13.68,24.92,4.45,42.19,27.54,58.67,44.7,11.84,12.34,26.58,20.35,38.24,32.56,7.52,7.87,29.34,56.01,39.17,51.63,6.4-2.84,4.24-13.15,14.18-13.75,13.18-.8,37.37,15.89,49.32,21.2M204.99,189.28c19.62,8.72,25.42,9.99,42.9-2.55,15.88-11.39,25.19-27.83,46.48-28.11,44.89-.6,69.46,66.92,95.84,95.29,10.49,11.28,20.62,41.11,35.03,44.72,5.08,1.27,13.11-4.04,20.24-2.38,16.57,3.82,34.37,15.28,49.91,22.2M192.4,192.34c20.94,9.46,24.26,4.72,38.87-11.12,13.85-15,25.83-38.38,47.11-43.42,52.15-12.36,77.75,77.32,96.15,111.44,7.02,13.02,19.13,36.73,32.63,43.2,7.52,3.6,17.59,3.43,25.73,6.9,16.75,7.14,33.28,14.81,49.91,22.21M179.79,195.39c20.08,9.7,22.86.9,34.05-15.57,13.41-19.74,23.27-46.85,45.77-58.45,57.73-29.79,84.24,76.85,97.52,114.44,7.29,20.63,13.95,41.65,33.39,54.01,23.27,14.8,54.55,23.66,79.7,34.85M166.93,198.68c14.83,15.87,22.98-4.85,28.95-15.4,13.31-23.51,22.1-47.63,40.88-67.73,58.73-62.87,90.69,67.5,101.89,104.35,8.2,26.97,11.29,55.08,36.72,70.59,25.17,15.35,55.4,25.35,82.24,37.3M153.34,201.3c12.85,15.01,18.6.61,24.33-10.01,12.43-23.05,19.87-47.58,34.99-69.36,17.73-25.55,45.23-45.62,68.37-12.65,19.71,28.08,29.03,64.99,38.67,97.18,9.07,30.3,11.86,70.8,41.96,87.01,26.61,14.32,55.79,25.16,83.35,37.43M138.6,204c12.71,7.57,12.24,11.35,20.81-1.63,12.75-19.32,18.4-43.85,30.18-64.09,13.02-22.35,40.93-56,69.42-29.28,22.92,21.51,32.6,61.83,41.71,90.04,10.56,32.68,14.43,81.19,48.17,97.79,27.26,13.4,55.72,24.84,83.47,37.21M123.56,206.64c9.95,6.48,10.05,13.84,19.61,5.39,12.94-11.45,19.06-41.14,27.79-55.49,11.84-19.45,28.66-38.08,54.32-32.54,33.9,7.32,46.38,47.83,56.7,75.66,14.31,38.58,18.46,81.21,57.1,101.16,26.11,13.48,53.86,24.38,80.67,36.34M108.66,209.31c4.75,3.4,10.43,13.58,16.67,13.92,7.84.43,23.6-34.26,26.01-37.6,11.86-16.48,30.49-34.44,52.88-32.82,29.68,2.15,48.84,32.99,59.98,56.78,17.94,38.26,24.25,72.42,62.2,93.29,25.93,14.27,53.67,25.36,80.67,37.41M94.31,212.1c19.65,15.95,16.85,24.59,40.79,1.85,13.93-13.23,31.36-28.8,52.01-29.43,27.19-.83,45.63,21.46,59.35,41.75,12.68,18.74,20.9,43.59,37.25,59.5,8.08,7.87,20.49,13.23,30.08,18.81,25.89,15.09,53.35,26.64,80.67,38.83M80.74,215c14.29,11.81,18.79,28.63,41.3,20.24,17.99-6.7,31.05-19.23,51.17-20.79,24.88-1.94,41.79,12.53,57.59,29.49,13.97,14.99,23.22,32.27,39.94,44.52,9.25,6.78,20.58,11.91,30.42,17.79,26.02,15.54,53.01,27.95,80.68,40.3M68.06,218.08c14.82,11.91,21.23,25.26,42.62,28.62,16.58,2.6,34.8-6.54,51.19-7.45,22.57-1.27,38.91,7.24,55.98,20.89,13.88,11.09,24.84,22.03,40.21,30.94,10.05,5.82,20.41,11.09,30.42,17.06,26.22,15.64,52.78,29.1,80.68,41.55M56.28,221.32c17.33,12.43,23.8,21.84,45.89,28.79,35.58,11.21,70.81,3.28,104.45,22.63,48.72,28.03,98.4,57.16,149.86,80.09M45.3,224.68c18.42,12.2,27.83,22.18,50.23,28.96,33.31,10.09,68.38,13.9,100.57,27.27,51.23,21.27,97.35,52.16,147.72,75.08M34.84,228.15c19.57,11.83,32.25,22.54,54.96,29.28,31.77,9.43,64.26,16.04,95.34,27.83,50.94,19.33,96.68,50.9,145.98,73.86M24.58,231.66c19.72,10.85,34.69,21.95,56.64,28.79,30.63,9.54,62.38,14.93,91.97,27.7,49.9,21.55,96.11,50.96,145.24,74.08M14,235.11c21.04,10.56,38.63,22.31,61.37,29.46,28.52,8.96,57.77,14.42,85.11,26.79,49.51,22.38,96.05,50.91,145.24,74"/>
  </g>
  <g id="layer-2">
    <path id="base-2" class="st7" d="M467.12,297.79l-174.17,41.92-136.24-69.37-18.96-8.66-26.95-9.48-55.4-16.3L3.49,209.46l73.36-22.96,63.88-11.98c.5-1.5,4.59-9.18,16.97-27.95,18.46-34.93,64.88-91.83,103.31-84.34,30.74,5.99,57.06,47.08,66.38,66.87l65.38-14.97,23.45,8.98,42.92,20.96,44.91,19.46,25.45,14.97,19.96,13.47,24.95,20.46,21.96,14.97,16.47,6.49,20.46,3.49,37.43,1.5,12.98,4.49-62.88,15.97-32.94,38.43-23.96,20.79-17.97,10.48-15.47,4.66h-18.96l-17.47-10.98-26.95-24.95Z"/>
    <path id="grid-2" class="st3" d="M2.5,209.47c30.93-8.93,60.79-20.03,92.45-26.45,34.38-6.97,68.71-12.66,102.82-20.94,64.83-15.74,129.78-34.94,195.25-47.39,28.47,8.19,51.14,22.6,78,34.46,26.17,11.56,49.87,22.01,72.95,39.18,21.94,16.32,46.15,40.43,73.49,46.62,22.71,5.15,42.5-.76,65.89,8.01-129.12,35.35-260.37,64.27-390.32,96.63-49.28-22.85-95.84-51.2-145.24-73.72-25.52-11.63-52.49-17.46-79.09-26.04-23.64-7.62-43.91-19.7-66.18-30.36h-.02ZM283.59,335.25c64.96-16.43,130.12-32.08,195.16-48.16,65.01-16.09,132.59-25.05,195.54-47.69M274.17,330.74c64.83-16.76,130.15-31.79,195.17-47.87,29.34-7.25,58.78-16.52,88.96-19.07,39.49-3.32,71.54-9.89,107.62-26.87M264.73,326.12c64.61-17.27,130.22-31.39,195.17-47.43,31.52-7.79,59.65-13.88,92.31-13.56,40.95.4,71.13-8.1,105.98-29.55M255.32,321.44c64.28-18.04,130.3-30.91,195.17-46.93,33.35-8.23,60.04-8.14,94.21-5.26,43.62,3.67,72.82-7.13,106.29-34.16M245.9,316.6c64.03-18.4,130.31-30.76,195.17-46.29,35.37-8.46,65.66,1.35,100.94,5.81,44.93,5.68,72.23-9.23,102.07-41.1M236.5,311.71c34.75-10.06,69.55-16.13,104.88-23.57,30.08-6.33,59.95-17.43,90.35-21.87,37.09-5.42,72.81,13.7,108.96,18.95,47.34,6.87,69.74-14.94,96.85-49.67M227.09,306.76c34-9.91,67.36-16.9,102.16-22.93,30.63-5.31,63.87-20.43,95.08-18.34,41.5,2.78,78.37,26.1,119.51,30.8,46.43,5.31,64.14-25.78,87.41-59.77M217.68,301.77c35.06-10.24,68.86-17.98,104.91-23.53,31.56-4.85,63.96-19.71,96.05-12.49,41.88,9.42,78.57,36.09,121.83,41.07,49.4,5.7,62.9-34.1,83.78-70.51M208.28,296.78c35.03-10.22,68.71-19.16,104.91-23.95,34.05-4.49,66.9-18.62,100.95-7.25,43.36,14.48,78.5,48.85,125.94,51.91,49,3.16,58.39-47.57,76.26-82.85M198.89,291.8c34.87-10.11,68.79-20.26,104.91-24.54,35.34-4.18,71.8-17.75,106.24-3.88,44.05,17.75,78.14,63.8,128.6,63.01,45.92-.74,53.2-62.15,68.79-95.13M189.5,286.85c34.71-9.96,69-20.72,104.92-25.18,34.95-4.34,78.05-17.27,111.43-3.11,24.12,10.23,44.51,28.34,64.85,44.4,18.61,14.69,39.07,33.11,64.58,29.16,40.51-6.26,47.89-75.22,62.21-105.94M180.11,281.94c35.1-9.93,70.62-18.3,105.71-28.02,18.92-5.24,35.4-5.57,55-5.31,21,.28,40.02-5.24,60.42,2.78,24.51,9.63,44.95,29.12,64.37,46.24,15.41,13.57,39.64,42.63,63.32,35.32,17.58-5.43,25.25-26.28,30.98-42.04,8.76-24.14,15.37-48.28,26.62-71.46M170.73,277.1c35.96-9.99,70.64-17.14,103.6-34.49,19.98-10.52,37.58-12.41,59.41-7.72,20.33,4.37,43.18,2.65,62.5,8.43,25.16,7.54,45.05,27.68,63.75,45.16,14.29,13.35,38.69,48.08,61.35,38.45,13.92-5.92,21.06-30.66,25.45-43.28,8.61-24.81,15.55-49.05,27.97-72.33M161.35,272.37c18.64-5.06,38.22-8.57,56.4-15.05,18.17-6.48,31.89-20.13,47.22-31.4,20.43-15.01,38.37-19.86,62.56-11.07,9.96,3.61,19.12,9.2,28.84,13.31,11.63,4.92,22.12,4.46,34.26,6.85,24.26,4.77,41.86,21.22,59.36,37.93,12.4,11.85,37.3,47.6,57.9,41.85,14.12-3.94,20.7-31.48,24.73-43.1,8.46-24.34,16.03-47.45,29.69-69.47M151.98,267.82c16.19-4.34,35.7-6.45,50.75-13.97,21.72-10.85,36.37-35.85,54.58-51.54,19.27-16.61,36.23-24.02,60.75-13.89,23.4,9.67,41.16,34.8,66.53,39.48,23.48,4.32,36.58,10.83,54.71,27.88,11.21,10.55,32.39,39.91,49.94,39.88,19.52-.04,24.21-28.6,29.79-43.35,8.18-21.61,16.54-41.18,30.62-59.68M142.61,263.55c15.49-4.27,34.48-5.8,47.8-15.35,22.43-16.09,34.61-47.4,53.52-67.46,18.83-19.98,37.57-34.49,64.93-22.63,28.63,12.4,42.16,43.63,68.28,58.69,8.22,4.75,15.41,2.42,23.45,4.95,9.19,2.88,17.42,9.63,24.68,15.65,12.16,10.08,29.4,33.6,46.21,35.76,20.09,2.6,24.75-21.64,31.28-36.39,9.01-20.34,18.49-37.72,34.32-53.57M133.24,259.56c15.17-4.4,32.76-6.37,44.73-17.34,20.43-18.76,30.23-51.33,45.83-73.89,15.42-22.28,40.67-54.38,71.68-43.96,32.71,10.99,50.32,51.24,71.94,74.41,14.58,15.61,27.45,13.59,44.55,24.03,13.36,8.15,26.92,25.58,43.15,27.58,17.61,2.18,22.79-14.88,30.05-28.12,10.66-19.43,21.67-34.59,39.93-47.47M123.18,255.84c13.19-4.55,29.74-7.37,40.06-17.17,20.67-19.63,29.73-56.7,43.71-80.96,14.02-24.35,41.06-69.73,75.39-62.92,34.29,6.8,56.92,56.24,72.75,81.62,12.9,20.7,20.42,27.51,41.97,34.01,13.92,4.19,24.97,16.94,39.65,18.81,16.84,2.14,23.14-10.65,31.91-22.89,12.7-17.74,25.5-29.35,45.73-38M111.61,252.27c11.03-4.43,26.82-8.29,36.02-16.1,20.94-17.78,29.88-58.43,41.85-82.05,13.85-27.34,40.57-81.44,77.78-81.51,36.08-.07,59.87,56.82,73.49,81.29,10.47,18.77,19.96,42.67,41.64,48.15,11.13,2.82,24.99,8.1,36.54,8.9,15.91,1.1,23.76-8.39,34.06-19.03,15.25-15.76,30.66-22.57,51.96-27.78M99.38,248.77c10.04-4.64,23.06-9.11,32.04-15.55,21.3-15.3,30-53.37,40.62-75.78,15.47-32.68,37.44-83.23,76.32-93.74,37.43-10.12,63.93,47.37,77.14,71.32,8.92,16.17,22.4,54.21,42.32,59.73,9.15,2.53,24.66,1.93,34.47,1.62,15.03-.48,24.69-7.89,36.79-15.96,17.66-11.78,36.02-15.38,56.52-20.39M87.16,245.35c9.26-4.85,19.03-10.01,27.71-15.82,23.27-15.55,32.31-45.64,44.12-70.48,16.4-34.46,34.87-74.99,72.67-89.53,38.87-14.94,61.13,23.18,78.43,52.57,10.49,17.81,22.94,54.02,42.15,64.73,9.43,5.26,22.17.66,32.58-.93,15.93-2.43,28.85-9.08,43.74-14.74,18.42-7.02,38.54-10.59,57.68-15.27M75.46,241.95c8.7-5.01,16.58-11.25,25.22-16.32,22.52-13.2,31.1-29.84,43.2-53.3,16.54-32.07,37.52-70.42,70.74-87.69,36.47-18.96,59.06.98,80.11,31.5,13.05,18.93,24.01,48.62,43.01,62.58,12.07,8.86,20.24,3.62,33.3.04,35.17-9.65,70.44-18.38,105.87-27.03M64.64,238.59c25.08-15.53,51.27-28.58,67.9-53.18,31.65-46.82,89.8-134.11,147.44-67.68,14.71,16.95,25.52,41.53,43.79,55.06,13.16,9.75,20.87,5.67,35.05,1.39,36.31-10.98,72.14-17.62,108.76-26.55M54.91,235.21c8.13-5.15,15.16-11.92,23.35-16.95,15.78-9.68,31.65-11.16,45.8-23.9,37.8-34.04,82-115.78,142.13-68.29,16.03,12.66,26.83,32.83,44.4,43.52,13.52,8.23,23.26,4.91,37.45.98,18.61-5.14,34.25-13.5,51.98-20.65,19.07-7.71,38.39-2.81,58.24-6.41M46.32,231.8c8.39-5.17,15.64-12.07,24.09-17.07,14.75-8.7,31.91-9.08,46.92-16.48,45.65-22.5,75.77-89.78,135.75-59.23,15.86,8.08,28.54,23.54,45.24,29.79,14.1,5.28,26.14,1.12,40.08-2.51,20.7-5.39,33.88-15.74,52.27-25.65,19.49-10.51,37.26-2,58.24-1.46M38.78,228.34c9.09-5.15,17.08-12.08,26.29-17.01,15.08-8.06,31.38-9.76,47.61-13.85,45.24-11.37,76.36-63.83,128.28-45.85,15.21,5.27,29.76,15.61,46.09,17.54,14.08,1.66,28.51-3.69,42.03-6.99,21.95-5.37,34.21-14,52.27-27.04,20.02-14.45,35.45-5.46,58.24-1.69M32.02,224.81c26.31-13.23,47.82-24.94,77.6-30.29,41.26-7.41,78.31-40.35,121.58-32.63,15.89,2.83,28.98,8.54,45.48,6.47,14.37-1.8,28.99-6.89,43.05-10.32,20.71-5.04,35.41-9.85,52.27-23.16,21.2-16.73,32.7-12.18,58.24-7.27M25.66,221.18c27.64-11.92,51.32-24.16,81.6-29.61,19.35-3.48,37.96-5.72,56.7-11.88,19.88-6.54,37.88-11.91,59.07-11.58,30.62.48,57.72-6.97,87.41-14.2,18.13-4.41,36.51-7.23,52.27-17.31,22.74-14.54,30.86-17.34,58.24-13.63M18.82,217.4c27.74-10.82,53.08-22.5,82.65-28.18,37.76-7.26,76.01-13.89,113.96-19.78,29.78-4.62,59.13-13.21,88.42-20.32,15.84-3.85,32.73-6.51,47.9-12.49,22.8-9.01,34.13-17.44,59.9-16.8M11.01,213.49c29.27-9.99,57.13-21.28,87.64-27.3,36.2-7.13,72.51-11.3,108.43-19.97,29.16-7.05,58.3-14.16,87.45-21.24,35.52-8.62,71.71-24.09,107.8-27.42M380.55,117.06c16.55,2.62,29.59,3.83,43.98,12.85,11.79,7.39,21.33,16.15,34.02,22.28,28.85,13.95,51.73,25.48,77.02,45.88,20.73,16.73,47.81,46.05,75.34,49.65,21.47,2.82,37.34-8.07,60.15-1.42M368.05,119.95c16.53.9,29.23-1.95,43.98,6.67,12.76,7.44,21.31,20.16,34.02,27.89,12.18,7.41,26,11.2,38.04,18.99,15.81,10.23,29.81,23.74,44.03,35.95,19.21,16.48,49.57,51.07,76.6,51.75,20.91.52,30.67-19.8,54.07-11.39M355.56,123.7c15.48,2.1,29.89-4.73,43.98,1.09,14.01,5.78,21.82,22.55,34.02,31.39,12.83,9.31,27.48,14.16,40.22,23.98,16.78,12.92,32.04,27.93,47.75,42.07,16.71,15.02,52.1,56.24,77.14,52.65,20.32-2.92,21.94-30.18,47.81-21.68M343.05,126.82c17.24,6.47,28.15-1.7,43.98,2.04,14.57,3.44,22.38,20.95,34.02,29.83,14.03,10.72,29.6,17.96,43.33,29.62,17.76,15.08,34.14,31.83,51.17,47.7,13.8,12.85,54.87,60.3,76.77,52.06,18.58-6.99,12.53-41.2,41.66-31.78M330.54,129.86c8.29,4.16,16.9,7.52,25.83,10.06,6.05-1.37,12.1-1.62,18.16-.74,14.67,2.86,22.37,14.78,34.02,23.48,36.58,27.32,68.18,55.99,101.36,87.67,12.31,11.75,55.11,61.31,75.01,49.18,15.76-9.6,4.21-51.77,36.41-40.4M318.02,132.9c27.05,11.99,53.37,18.24,78.12,34.23,41.53,26.84,72.75,63.2,108.05,97.49,12.44,12.07,53.79,60.55,71.54,43.47,11.86-11.4-.81-60.66,32.8-46.32M305.49,135.94c26.04,11.54,53.47,21.58,78.62,34.95,47.03,24.99,77.24,70.01,113.89,107.17,12.09,12.27,52.27,60.05,66.77,35.7,7.66-12.85-3.29-67.87,31.05-49.19M292.96,138.98c26.4,11.7,53.38,22.54,79.57,34.66,49.82,23.06,82.48,71.49,117.34,111.8,8.87,10.26,30.17,37.91,45.98,42.14,13.33,3.57,12.69-.32,16.14-11.17,7.24-22.74-8.22-62.7,31.34-48.7M280.41,142.02c26.98,11.97,53.85,23.53,81.22,34.43,51.41,20.47,84.66,66.69,117.9,108.78,9.25,11.72,52.41,76.53,57.84,30.88,3.24-27.17-6.48-62.33,33.41-45.29M267.86,145.07c27.69,12.29,54.99,25.3,83.7,34.9,52.17,17.45,83.21,55.18,115.57,98.28,3.9,5.2,32.56,53.19,43.83,54.36,11.76,1.22,9.62-11.08,10.12-19.59.62-10.41-3.63-27.79,1.6-37.65,9-16.96,20.72-8.04,35.56-1.45M255.3,148.12c28.77,12.77,56.95,23.18,86.6,33.52,50.3,17.53,79.09,41.24,111.02,84.51,5.97,8.09,28.36,50.48,40.47,55.23,11.79,4.63,9.7-3.41,9.89-13.89.15-8.23-3.33-28.22,2.83-35.62,11.13-13.34,26.66-.58,39.57,5.15M242.74,151.17c14.64,6.51,29.12,14.48,44.73,17.73,15.27,3.17,29.38,2.85,44.33,8.49,42.63,16.09,77.94,37.31,105.61,73.96,9.84,13.03,22.76,42.36,36.2,52.94,10.07,7.93,8.42,6.09,10.66-4.35,1.61-7.52-2.45-25.54,5.31-31.5,11.23-8.63,33.03,7.03,43.54,11.71M230.16,154.22c15.6,6.93,28.23,14.12,45.18,13.2,16.91-.9,28.21-6.26,45.42-.82,22.39,7.07,37.94,25.41,57.66,37.16,16.58,9.87,30.09,17.44,42.81,33.15,12.11,14.96,19.36,33.88,31.54,48.56,8.72,10.51,5.44,9.83,11.64,4.32,5.62-5-.35-18.88,9.17-23.91,9.86-5.22,38.15,13.45,46.99,17.38M217.58,157.28c18.08,8.04,26.45,13.56,44.88,6.43,17.31-6.7,25.84-17.28,45.95-13.68,24.92,4.45,42.19,27.54,58.67,44.71,11.84,12.34,26.58,20.35,38.24,32.56,7.52,7.87,29.34,56.01,39.17,51.64,6.4-2.84,4.24-13.15,14.18-13.76,13.18-.8,37.37,15.89,49.32,21.2M204.99,160.33c19.62,8.72,25.42,9.99,42.9-2.54,15.88-11.39,25.19-27.83,46.48-28.11,44.89-.6,69.46,66.92,95.84,95.29,10.49,11.27,20.62,41.11,35.03,44.72,5.08,1.27,13.11-4.04,20.24-2.39,16.57,3.82,34.37,15.28,49.91,22.2M192.4,163.39c20.94,9.45,24.26,4.72,38.87-11.12,13.85-15,25.83-38.38,47.11-43.42,52.15-12.36,77.75,77.32,96.15,111.44,7.02,13.02,19.13,36.73,32.63,43.2,7.52,3.6,17.59,3.43,25.73,6.9,16.75,7.14,33.28,14.81,49.91,22.21M179.79,166.45c20.08,9.7,22.86.9,34.05-15.58,13.41-19.74,23.27-46.85,45.77-58.45,57.73-29.79,84.24,76.85,97.52,114.44,7.29,20.63,13.95,41.65,33.39,54.01,23.27,14.8,54.55,23.66,79.7,34.85M166.93,169.73c14.83,15.87,22.98-4.84,28.95-15.39,13.31-23.51,22.1-47.63,40.88-67.73,58.73-62.87,90.69,67.5,101.89,104.35,8.2,26.97,11.29,55.07,36.72,70.59,25.17,15.35,55.4,25.35,82.24,37.29M153.34,172.35c12.85,15.01,18.6.61,24.33-10.01,12.43-23.05,19.87-47.58,34.99-69.36,17.73-25.55,45.23-45.62,68.37-12.65,19.71,28.08,29.03,64.99,38.67,97.18,9.07,30.3,11.86,70.8,41.96,87.01,26.61,14.32,55.79,25.16,83.35,37.43M138.6,175.06c12.71,7.57,12.24,11.35,20.81-1.63,12.75-19.32,18.4-43.85,30.18-64.09,13.02-22.35,40.93-56,69.42-29.28,22.92,21.51,32.6,61.84,41.71,90.04,10.56,32.68,14.43,81.19,48.17,97.79,27.26,13.4,55.72,24.84,83.47,37.21M123.56,177.7c9.95,6.48,10.05,13.84,19.61,5.39,12.94-11.44,19.06-41.14,27.79-55.49,11.84-19.45,28.66-38.08,54.32-32.54,33.9,7.33,46.38,47.84,56.7,75.67,14.31,38.58,18.46,81.21,57.1,101.16,26.11,13.48,53.86,24.38,80.67,36.34M108.66,180.37c4.75,3.4,10.43,13.57,16.67,13.91,7.84.43,23.6-34.26,26.01-37.6,11.86-16.48,30.49-34.44,52.88-32.82,29.68,2.15,48.84,32.99,59.98,56.78,17.94,38.26,24.25,72.42,62.2,93.29,25.93,14.27,53.67,25.36,80.67,37.41M94.31,183.15c19.65,15.95,16.85,24.59,40.79,1.85,13.93-13.23,31.36-28.8,52.01-29.43,27.19-.83,45.63,21.46,59.35,41.75,12.68,18.74,20.9,43.59,37.25,59.5,8.08,7.87,20.49,13.23,30.08,18.81,25.89,15.09,53.35,26.64,80.67,38.83M80.74,186.06c14.29,11.81,18.79,28.63,41.3,20.24,17.99-6.7,31.05-19.23,51.17-20.79,24.88-1.94,41.79,12.53,57.59,29.49,13.97,14.99,23.22,32.27,39.94,44.52,9.25,6.78,20.58,11.91,30.42,17.79,26.02,15.54,53.01,27.95,80.68,40.3M68.06,189.13c14.82,11.91,21.23,25.26,42.62,28.62,16.58,2.6,34.8-6.54,51.19-7.45,22.57-1.27,38.91,7.24,55.98,20.89,13.88,11.09,24.84,22.03,40.21,30.94,10.05,5.82,20.41,11.09,30.42,17.06,26.22,15.64,52.78,29.1,80.68,41.55M56.28,192.37c17.33,12.42,23.8,21.84,45.89,28.79,35.58,11.21,70.81,3.28,104.45,22.63,48.72,28.03,98.4,57.16,149.86,80.09M45.3,195.73c18.42,12.2,27.83,22.18,50.23,28.96,33.31,10.09,68.38,13.9,100.57,27.27,51.23,21.27,97.35,52.16,147.72,75.08M34.84,199.21c19.57,11.83,32.25,22.54,54.96,29.28,31.77,9.43,64.26,16.04,95.34,27.83,50.94,19.33,96.68,50.9,145.98,73.86M24.58,202.72c19.72,10.85,34.69,21.95,56.64,28.79,30.63,9.54,62.38,14.93,91.97,27.7,49.9,21.55,96.11,50.96,145.24,74.08M14,206.17c21.04,10.56,38.63,22.32,61.37,29.46,28.52,8.96,57.77,14.42,85.11,26.79,49.51,22.38,96.05,50.91,145.24,74"/>
  </g>
  <g id="layer-3">
    <path id="base-3" class="st6" d="M467.12,268.84l-174.17,41.92-136.24-69.37-19.46-9.15-26.95-8.98-54.9-16.3L3.49,180.51l73.36-22.96,63.88-11.98c.5-1.5,4.59-9.18,16.97-27.95,18.46-34.93,64.88-91.83,103.31-84.34,30.74,5.99,57.06,47.08,66.38,66.87l65.38-14.97,23.45,8.98,42.92,20.96,44.91,19.46,25.45,14.97,19.96,13.48,24.95,20.46,21.96,14.97,16.47,6.49,20.46,3.49,37.43,1.5,12.98,4.49-62.88,15.97-32.94,38.43-23.96,20.79-17.97,10.48-15.47,4.66h-18.96l-17.47-10.98-26.95-24.95Z"/>
    <path id="grid-3" class="st2" d="M2.5,180.52c30.93-8.93,60.79-20.03,92.45-26.45,34.38-6.97,68.71-12.66,102.82-20.94,64.83-15.74,129.78-34.94,195.25-47.39,28.47,8.19,51.14,22.6,78,34.46,26.17,11.56,49.87,22.01,72.95,39.18,21.94,16.32,46.15,40.42,73.49,46.62,22.71,5.15,42.5-.76,65.89,8.01-129.12,35.35-260.37,64.27-390.32,96.63-49.28-22.85-95.84-51.2-145.24-73.72-25.52-11.63-52.49-17.46-79.09-26.04-23.64-7.62-43.91-19.7-66.18-30.36h-.02ZM283.59,306.3c64.96-16.43,130.12-32.08,195.16-48.17,65.01-16.09,132.59-25.05,195.54-47.69M274.17,301.79c64.83-16.76,130.15-31.79,195.17-47.87,29.34-7.25,58.78-16.52,88.96-19.07,39.49-3.32,71.54-9.89,107.62-26.87M264.73,297.18c64.61-17.27,130.22-31.39,195.17-47.43,31.52-7.79,59.65-13.88,92.31-13.56,40.95.4,71.13-8.1,105.98-29.55M255.32,292.49c64.28-18.04,130.3-30.91,195.17-46.93,33.35-8.23,60.04-8.14,94.21-5.26,43.62,3.67,72.82-7.13,106.29-34.16M245.9,287.66c64.03-18.4,130.31-30.76,195.17-46.29,35.37-8.46,65.66,1.35,100.94,5.81,44.93,5.67,72.23-9.23,102.07-41.1M236.5,282.76c34.75-10.06,69.55-16.13,104.88-23.57,30.08-6.33,59.95-17.43,90.35-21.87,37.09-5.42,72.81,13.7,108.96,18.95,47.34,6.87,69.74-14.94,96.85-49.67M227.09,277.81c34-9.91,67.36-16.9,102.16-22.93,30.63-5.31,63.87-20.43,95.08-18.34,41.5,2.78,78.37,26.1,119.51,30.8,46.43,5.31,64.14-25.77,87.41-59.77M217.68,272.83c35.06-10.24,68.86-17.98,104.91-23.53,31.56-4.85,63.96-19.71,96.05-12.49,41.88,9.42,78.57,36.09,121.83,41.07,49.4,5.7,62.9-34.1,83.78-70.51M208.28,267.83c35.03-10.22,68.71-19.16,104.91-23.95,34.05-4.49,66.9-18.62,100.95-7.25,43.36,14.48,78.5,48.85,125.94,51.91,49,3.16,58.39-47.57,76.26-82.85M198.89,262.85c34.87-10.11,68.79-20.26,104.91-24.54,35.34-4.18,71.8-17.75,106.24-3.88,44.05,17.75,78.14,63.81,128.6,63.01,45.92-.73,53.2-62.15,68.79-95.13M189.5,257.9c34.71-9.97,69-20.72,104.92-25.18,34.95-4.34,78.05-17.27,111.43-3.11,24.12,10.23,44.51,28.34,64.85,44.4,18.61,14.69,39.07,33.11,64.58,29.16,40.51-6.26,47.89-75.22,62.21-105.94M180.11,252.99c35.1-9.93,70.62-18.3,105.71-28.02,18.92-5.24,35.4-5.57,55-5.31,21,.28,40.02-5.24,60.42,2.78,24.51,9.63,44.95,29.12,64.37,46.24,15.41,13.57,39.64,42.63,63.32,35.31,17.58-5.43,25.25-26.27,30.98-42.04,8.76-24.14,15.37-48.28,26.62-71.46M170.73,248.16c35.96-9.99,70.64-17.14,103.6-34.5,19.98-10.52,37.58-12.41,59.41-7.72,20.33,4.36,43.18,2.65,62.5,8.43,25.16,7.54,45.05,27.68,63.75,45.16,14.29,13.35,38.69,48.08,61.35,38.44,13.92-5.92,21.06-30.66,25.45-43.28,8.61-24.81,15.55-49.05,27.97-72.33M161.35,243.42c18.64-5.06,38.22-8.57,56.4-15.05,18.17-6.48,31.89-20.13,47.22-31.4,20.43-15.01,38.37-19.86,62.56-11.07,9.96,3.61,19.12,9.2,28.84,13.31,11.63,4.92,22.12,4.46,34.26,6.85,24.26,4.77,41.86,21.22,59.36,37.93,12.4,11.85,37.3,47.6,57.9,41.85,14.12-3.94,20.7-31.48,24.73-43.1,8.46-24.34,16.03-47.45,29.69-69.47M151.98,238.88c16.19-4.34,35.7-6.45,50.75-13.97,21.72-10.85,36.37-35.85,54.58-51.54,19.27-16.61,36.23-24.02,60.75-13.89,23.4,9.67,41.16,34.8,66.53,39.48,23.48,4.32,36.58,10.83,54.71,27.88,11.21,10.55,32.39,39.91,49.94,39.88,19.52-.04,24.21-28.6,29.79-43.35,8.18-21.61,16.54-41.18,30.62-59.68M142.61,234.61c15.49-4.27,34.48-5.8,47.8-15.35,22.43-16.09,34.61-47.4,53.52-67.46,18.83-19.98,37.57-34.48,64.93-22.63,28.63,12.4,42.16,43.63,68.28,58.69,8.22,4.75,15.41,2.42,23.45,4.95,9.19,2.89,17.42,9.64,24.68,15.65,12.16,10.08,29.4,33.6,46.21,35.76,20.09,2.6,24.75-21.65,31.28-36.39,9.01-20.35,18.49-37.72,34.32-53.57M133.24,230.61c15.17-4.4,32.76-6.37,44.73-17.34,20.43-18.76,30.23-51.33,45.83-73.89,15.42-22.28,40.67-54.38,71.68-43.96,32.71,10.99,50.32,51.24,71.94,74.41,14.58,15.61,27.45,13.59,44.55,24.03,13.36,8.15,26.92,25.58,43.15,27.59,17.61,2.18,22.79-14.88,30.05-28.12,10.66-19.43,21.67-34.59,39.93-47.47M123.18,226.9c13.19-4.55,29.74-7.37,40.06-17.17,20.67-19.63,29.73-56.7,43.71-80.96,14.02-24.35,41.06-69.74,75.39-62.92,34.29,6.8,56.92,56.24,72.75,81.62,12.9,20.7,20.42,27.51,41.97,34,13.92,4.2,24.97,16.94,39.65,18.81,16.84,2.14,23.14-10.65,31.91-22.89,12.7-17.74,25.5-29.35,45.73-38M111.61,223.32c11.03-4.43,26.82-8.29,36.02-16.1,20.94-17.78,29.88-58.43,41.85-82.05,13.85-27.34,40.57-81.44,77.78-81.51,36.08-.07,59.87,56.82,73.49,81.29,10.47,18.77,19.96,42.67,41.64,48.15,11.13,2.82,24.99,8.1,36.54,8.9,15.91,1.1,23.76-8.39,34.06-19.03,15.25-15.76,30.66-22.57,51.96-27.78M99.38,219.83c10.04-4.64,23.06-9.11,32.04-15.55,21.3-15.3,30-53.37,40.62-75.78,15.47-32.68,37.44-83.23,76.32-93.74,37.43-10.12,63.93,47.37,77.14,71.32,8.92,16.17,22.4,54.21,42.32,59.73,9.15,2.53,24.66,1.93,34.47,1.62,15.03-.48,24.69-7.89,36.79-15.96,17.66-11.77,36.02-15.38,56.52-20.39M87.16,216.4c9.26-4.84,19.03-10.01,27.71-15.82,23.27-15.55,32.31-45.64,44.12-70.48,16.4-34.46,34.87-74.99,72.67-89.53,38.87-14.94,61.13,23.18,78.43,52.57,10.49,17.81,22.94,54.02,42.15,64.73,9.43,5.26,22.17.66,32.58-.93,15.93-2.43,28.85-9.08,43.74-14.75,18.42-7.02,38.54-10.59,57.68-15.27M75.46,213c8.7-5.01,16.58-11.25,25.22-16.32,22.52-13.2,31.1-29.84,43.2-53.3,16.54-32.07,37.52-70.42,70.74-87.68,36.47-18.96,59.06.98,80.11,31.5,13.05,18.93,24.01,48.62,43.01,62.58,12.07,8.86,20.24,3.62,33.3.04,35.17-9.65,70.44-18.38,105.87-27.03M64.64,209.64c25.08-15.53,51.27-28.58,67.9-53.18,31.65-46.82,89.8-134.12,147.44-67.68,14.71,16.95,25.52,41.53,43.79,55.06,13.16,9.75,20.87,5.68,35.05,1.4,36.31-10.98,72.14-17.62,108.76-26.55M54.91,206.26c8.13-5.15,15.16-11.92,23.35-16.95,15.78-9.68,31.65-11.16,45.8-23.9,37.8-34.04,82-115.78,142.13-68.29,16.03,12.66,26.83,32.83,44.4,43.52,13.52,8.23,23.26,4.91,37.45.98,18.61-5.14,34.25-13.5,51.98-20.65,19.07-7.71,38.39-2.81,58.24-6.41M46.32,202.86c8.39-5.17,15.64-12.07,24.09-17.07,14.75-8.7,31.91-9.08,46.92-16.48,45.65-22.5,75.77-89.78,135.75-59.23,15.86,8.08,28.54,23.54,45.24,29.79,14.1,5.28,26.14,1.12,40.08-2.51,20.7-5.39,33.88-15.74,52.27-25.65,19.49-10.51,37.26-2,58.24-1.46M38.78,199.4c9.09-5.15,17.08-12.08,26.29-17.01,15.08-8.06,31.38-9.76,47.61-13.85,45.24-11.37,76.36-63.83,128.28-45.85,15.21,5.27,29.76,15.61,46.09,17.55,14.08,1.66,28.51-3.69,42.03-7,21.95-5.37,34.21-14,52.27-27.04,20.02-14.45,35.45-5.46,58.24-1.69M32.02,195.86c26.31-13.23,47.82-24.95,77.6-30.29,41.26-7.41,78.31-40.35,121.58-32.63,15.89,2.83,28.98,8.54,45.48,6.47,14.37-1.8,28.99-6.89,43.05-10.32,20.71-5.04,35.41-9.85,52.27-23.16,21.2-16.73,32.7-12.18,58.24-7.27M25.66,192.23c27.64-11.92,51.32-24.16,81.6-29.61,19.35-3.48,37.96-5.72,56.7-11.88,19.88-6.54,37.88-11.91,59.07-11.58,30.62.48,57.72-6.97,87.41-14.2,18.13-4.41,36.51-7.23,52.27-17.31,22.74-14.54,30.86-17.34,58.24-13.63M18.82,188.45c27.74-10.82,53.08-22.5,82.65-28.18,37.76-7.26,76.01-13.89,113.96-19.78,29.78-4.62,59.13-13.21,88.42-20.32,15.84-3.85,32.73-6.51,47.9-12.49,22.8-9.01,34.13-17.44,59.9-16.8M11.01,184.55c29.27-9.99,57.13-21.28,87.64-27.3,36.2-7.13,72.51-11.3,108.43-19.97,29.16-7.05,58.3-14.16,87.45-21.24,35.52-8.62,71.71-24.09,107.8-27.41M380.55,88.11c16.55,2.62,29.59,3.83,43.98,12.85,11.79,7.39,21.33,16.15,34.02,22.28,28.85,13.95,51.73,25.48,77.02,45.88,20.73,16.73,47.81,46.05,75.34,49.66,21.47,2.82,37.34-8.07,60.15-1.42M368.05,91.01c16.53.9,29.23-1.95,43.98,6.66,12.76,7.44,21.31,20.16,34.02,27.89,12.18,7.41,26,11.2,38.04,18.99,15.81,10.23,29.81,23.74,44.03,35.95,19.21,16.48,49.57,51.07,76.6,51.75,20.91.52,30.67-19.8,54.07-11.39M355.56,94.75c15.48,2.1,29.89-4.73,43.98,1.09,14.01,5.78,21.82,22.55,34.02,31.39,12.83,9.3,27.48,14.16,40.22,23.98,16.78,12.91,32.04,27.93,47.75,42.06,16.71,15.02,52.1,56.24,77.14,52.65,20.32-2.92,21.94-30.18,47.81-21.68M343.05,97.87c17.24,6.47,28.15-1.7,43.98,2.04,14.57,3.44,22.38,20.95,34.02,29.83,14.03,10.72,29.6,17.96,43.33,29.62,17.76,15.07,34.14,31.83,51.17,47.7,13.8,12.85,54.87,60.3,76.77,52.06,18.58-6.99,12.53-41.2,41.66-31.78M330.54,100.92c8.29,4.16,16.9,7.52,25.83,10.06,6.05-1.37,12.1-1.62,18.16-.73,14.67,2.86,22.37,14.78,34.02,23.47,36.58,27.32,68.18,55.99,101.36,87.68,12.31,11.75,55.11,61.31,75.01,49.18,15.76-9.6,4.21-51.77,36.41-40.4M318.02,103.95c27.05,11.99,53.37,18.24,78.12,34.23,41.53,26.84,72.75,63.2,108.05,97.49,12.44,12.07,53.79,60.55,71.54,43.47,11.86-11.4-.81-60.66,32.8-46.32M305.49,107c26.04,11.54,53.47,21.58,78.62,34.95,47.03,24.99,77.24,70.01,113.89,107.17,12.09,12.26,52.27,60.05,66.77,35.7,7.66-12.85-3.29-67.87,31.05-49.19M292.96,110.03c26.4,11.7,53.38,22.54,79.57,34.67,49.82,23.06,82.48,71.49,117.34,111.8,8.87,10.26,30.17,37.91,45.98,42.14,13.33,3.57,12.69-.32,16.14-11.17,7.24-22.74-8.22-62.7,31.34-48.7M280.41,113.08c26.98,11.97,53.85,23.53,81.22,34.43,51.41,20.47,84.66,66.69,117.9,108.78,9.25,11.72,52.41,76.53,57.84,30.88,3.24-27.17-6.48-62.32,33.41-45.29M267.86,116.12c27.69,12.29,54.99,25.3,83.7,34.9,52.17,17.45,83.21,55.18,115.57,98.28,3.9,5.2,32.56,53.19,43.83,54.36,11.76,1.23,9.62-11.08,10.12-19.59.62-10.41-3.63-27.79,1.6-37.65,9-16.96,20.72-8.04,35.56-1.45M255.3,119.18c28.77,12.76,56.95,23.18,86.6,33.51,50.3,17.54,79.09,41.25,111.02,84.51,5.97,8.09,28.36,50.48,40.47,55.23,11.79,4.63,9.7-3.41,9.89-13.89.15-8.23-3.33-28.22,2.83-35.62,11.13-13.34,26.66-.57,39.57,5.15M242.74,122.22c14.64,6.5,29.12,14.48,44.73,17.73,15.27,3.17,29.38,2.85,44.33,8.49,42.63,16.09,77.94,37.31,105.61,73.96,9.84,13.03,22.76,42.36,36.2,52.95,10.07,7.93,8.42,6.09,10.66-4.36,1.61-7.52-2.45-25.54,5.31-31.5,11.23-8.63,33.03,7.03,43.54,11.71M230.16,125.28c15.6,6.93,28.23,14.12,45.18,13.2,16.91-.9,28.21-6.26,45.42-.82,22.39,7.07,37.94,25.41,57.66,37.16,16.58,9.87,30.09,17.44,42.81,33.15,12.11,14.96,19.36,33.88,31.54,48.56,8.72,10.51,5.44,9.83,11.64,4.32,5.62-5-.35-18.88,9.17-23.91,9.86-5.22,38.15,13.45,46.99,17.38M217.58,128.33c18.08,8.04,26.45,13.56,44.88,6.43,17.31-6.7,25.84-17.28,45.95-13.68,24.92,4.45,42.19,27.54,58.67,44.7,11.84,12.34,26.58,20.35,38.24,32.56,7.52,7.87,29.34,56.01,39.17,51.63,6.4-2.84,4.24-13.15,14.18-13.75,13.18-.8,37.37,15.89,49.32,21.2M204.99,131.39c19.62,8.72,25.42,9.99,42.9-2.54,15.88-11.39,25.19-27.83,46.48-28.11,44.89-.6,69.46,66.92,95.84,95.29,10.49,11.28,20.62,41.11,35.03,44.72,5.08,1.27,13.11-4.04,20.24-2.38,16.57,3.82,34.37,15.28,49.91,22.2M192.4,134.44c20.94,9.46,24.26,4.72,38.87-11.11,13.85-15,25.83-38.38,47.11-43.42,52.15-12.36,77.75,77.32,96.15,111.44,7.02,13.02,19.13,36.73,32.63,43.2,7.52,3.6,17.59,3.43,25.73,6.9,16.75,7.14,33.28,14.81,49.91,22.21M179.79,137.5c20.08,9.7,22.86.9,34.05-15.58,13.41-19.74,23.27-46.85,45.77-58.45,57.73-29.79,84.24,76.85,97.52,114.44,7.29,20.63,13.95,41.65,33.39,54.01,23.27,14.8,54.55,23.66,79.7,34.85M166.93,140.79c14.83,15.87,22.98-4.85,28.95-15.39,13.31-23.51,22.1-47.63,40.88-67.73,58.73-62.87,90.69,67.5,101.89,104.35,8.2,26.97,11.29,55.07,36.72,70.59,25.17,15.35,55.4,25.35,82.24,37.29M153.34,143.41c12.85,15.01,18.6.61,24.33-10.01,12.43-23.05,19.87-47.58,34.99-69.36,17.73-25.55,45.23-45.62,68.37-12.65,19.71,28.07,29.03,64.99,38.67,97.18,9.07,30.3,11.86,70.8,41.96,87.01,26.61,14.32,55.79,25.16,83.35,37.43M138.6,146.11c12.71,7.57,12.24,11.35,20.81-1.63,12.75-19.32,18.4-43.85,30.18-64.09,13.02-22.35,40.93-56,69.42-29.28,22.92,21.51,32.6,61.84,41.71,90.04,10.56,32.69,14.43,81.19,48.17,97.79,27.26,13.4,55.72,24.84,83.47,37.21M123.56,148.75c9.95,6.48,10.05,13.84,19.61,5.39,12.94-11.44,19.06-41.14,27.79-55.49,11.84-19.45,28.66-38.08,54.32-32.54,33.9,7.32,46.38,47.83,56.7,75.67,14.31,38.58,18.46,81.21,57.1,101.16,26.11,13.48,53.86,24.38,80.67,36.34M108.66,151.42c4.75,3.4,10.43,13.57,16.67,13.92,7.84.43,23.6-34.26,26.01-37.6,11.86-16.48,30.49-34.44,52.88-32.82,29.68,2.15,48.84,32.99,59.98,56.78,17.94,38.26,24.25,72.42,62.2,93.29,25.93,14.27,53.67,25.36,80.67,37.41M94.31,154.2c19.65,15.95,16.85,24.59,40.79,1.85,13.93-13.23,31.36-28.8,52.01-29.43,27.19-.83,45.63,21.46,59.35,41.74,12.68,18.74,20.9,43.59,37.25,59.5,8.08,7.87,20.49,13.23,30.08,18.81,25.89,15.09,53.35,26.64,80.67,38.83M80.74,157.11c14.29,11.81,18.79,28.63,41.3,20.24,17.99-6.7,31.05-19.23,51.17-20.79,24.88-1.94,41.79,12.53,57.59,29.49,13.97,14.99,23.22,32.27,39.94,44.52,9.25,6.78,20.58,11.91,30.42,17.79,26.02,15.54,53.01,27.95,80.68,40.3M68.06,160.19c14.82,11.91,21.23,25.26,42.62,28.62,16.58,2.6,34.8-6.54,51.19-7.45,22.57-1.27,38.91,7.24,55.98,20.89,13.88,11.09,24.84,22.03,40.21,30.94,10.05,5.82,20.41,11.09,30.42,17.05,26.22,15.64,52.78,29.1,80.68,41.55M56.28,163.43c17.33,12.42,23.8,21.84,45.89,28.79,35.58,11.21,70.81,3.28,104.45,22.63,48.72,28.03,98.4,57.16,149.86,80.09M45.3,166.79c18.42,12.2,27.83,22.18,50.23,28.96,33.31,10.09,68.38,13.9,100.57,27.27,51.23,21.27,97.35,52.16,147.72,75.08M34.84,170.26c19.57,11.83,32.25,22.54,54.96,29.28,31.77,9.43,64.26,16.04,95.34,27.83,50.94,19.33,96.68,50.9,145.98,73.86M24.58,173.77c19.72,10.85,34.69,21.95,56.64,28.79,30.63,9.54,62.38,14.93,91.97,27.7,49.9,21.55,96.11,50.97,145.24,74.08M14,177.22c21.04,10.56,38.63,22.31,61.37,29.46,28.52,8.96,57.77,14.41,85.11,26.79,49.51,22.38,96.05,50.91,145.24,74"/>
  </g>
  <g id="layer-4">
    <path id="base-4" class="st4" d="M466.12,234.23l-174.17,41.92-136.24-69.37-23.46-10.48-25.95-8.48-51.9-16.47L2.5,145.89l73.36-22.96,63.88-11.98c.5-1.5,4.59-9.18,16.97-27.95C175.17,48.08,221.58-8.82,260.01-1.33c30.74,5.99,57.06,47.08,66.38,66.87l65.38-14.97,23.46,8.98,42.92,20.96,44.92,19.46,25.45,14.97,19.96,13.47,24.95,20.46,21.96,14.97,16.47,6.49,20.46,3.49,37.43,1.5,12.98,4.49-61.88,14.97-33.94,39.43-31.94,24.95-25.45,10.98h-18.96l-17.47-10.98-26.95-24.95Z"/>
    <path id="grid-4" class="st1" d="M3.5,145.95c30.93-8.93,60.79-20.03,92.45-26.45,34.38-6.97,68.71-12.66,102.82-20.94,64.83-15.74,129.78-34.94,195.25-47.39,28.47,8.19,51.14,22.6,78,34.46,26.17,11.56,49.87,22.01,72.95,39.18,21.94,16.32,46.15,40.43,73.49,46.62,22.71,5.15,42.5-.76,65.89,8.01-129.12,35.35-260.37,64.27-390.32,96.63-49.28-22.85-95.84-51.2-145.24-73.72-25.52-11.63-52.49-17.46-79.09-26.04-23.64-7.62-43.91-19.7-66.18-30.36h-.02ZM284.59,271.73c64.96-16.43,130.12-32.08,195.16-48.16,65.01-16.09,132.59-25.05,195.54-47.69M275.17,267.23c64.83-16.76,130.15-31.79,195.17-47.87,29.34-7.25,58.78-16.52,88.96-19.07,39.49-3.32,71.54-9.89,107.62-26.87M265.73,262.61c64.61-17.27,130.22-31.39,195.17-47.43,31.52-7.79,59.65-13.88,92.31-13.56,40.95.4,71.13-8.1,105.98-29.56M256.32,257.93c64.28-18.04,130.3-30.91,195.17-46.93,33.35-8.23,60.04-8.14,94.21-5.26,43.62,3.67,72.82-7.13,106.29-34.17M246.9,253.09c64.03-18.4,130.31-30.76,195.17-46.29,35.37-8.46,65.66,1.35,100.94,5.81,44.93,5.68,72.23-9.23,102.07-41.1M237.5,248.19c34.75-10.06,69.55-16.13,104.88-23.57,30.08-6.33,59.95-17.43,90.35-21.87,37.09-5.42,72.81,13.7,108.96,18.95,47.34,6.87,69.74-14.94,96.85-49.67M228.09,243.24c34-9.91,67.36-16.9,102.16-22.93,30.63-5.31,63.87-20.43,95.08-18.34,41.5,2.78,78.37,26.1,119.51,30.8,46.43,5.31,64.14-25.78,87.41-59.77M218.68,238.26c35.06-10.24,68.86-17.98,104.91-23.53,31.56-4.85,63.96-19.71,96.05-12.49,41.88,9.42,78.57,36.09,121.83,41.07,49.4,5.7,62.9-34.1,83.78-70.51M209.28,233.27c35.03-10.22,68.71-19.16,104.91-23.96,34.05-4.49,66.9-18.62,100.95-7.25,43.36,14.48,78.5,48.85,125.94,51.91,49,3.16,58.39-47.57,76.26-82.85M199.89,228.28c34.87-10.11,68.79-20.26,104.91-24.54,35.34-4.18,71.8-17.75,106.24-3.88,44.05,17.75,78.14,63.8,128.6,63.01,45.92-.74,53.2-62.16,68.79-95.13M190.5,223.34c34.71-9.97,69-20.72,104.92-25.18,34.95-4.34,78.05-17.27,111.43-3.11,24.12,10.23,44.51,28.34,64.85,44.4,18.61,14.69,39.07,33.11,64.58,29.16,40.51-6.26,47.89-75.22,62.21-105.94M181.11,218.43c35.1-9.93,70.62-18.3,105.71-28.02,18.92-5.24,35.4-5.57,55-5.31,21,.28,40.02-5.24,60.42,2.78,24.51,9.63,44.95,29.12,64.37,46.24,15.41,13.57,39.64,42.63,63.32,35.32,17.58-5.43,25.25-26.28,30.98-42.04,8.76-24.14,15.37-48.28,26.62-71.46M171.73,213.59c35.96-9.99,70.64-17.14,103.6-34.49,19.98-10.52,37.58-12.41,59.41-7.72,20.33,4.37,43.18,2.65,62.5,8.43,25.16,7.54,45.05,27.68,63.75,45.16,14.29,13.35,38.69,48.08,61.35,38.45,13.92-5.92,21.06-30.66,25.45-43.28,8.61-24.81,15.55-49.05,27.97-72.33M162.35,208.86c18.64-5.06,38.22-8.57,56.4-15.05,18.17-6.48,31.89-20.13,47.22-31.4,20.43-15.01,38.37-19.86,62.56-11.07,9.96,3.61,19.12,9.2,28.84,13.31,11.63,4.92,22.12,4.46,34.26,6.85,24.26,4.77,41.86,21.22,59.36,37.93,12.4,11.85,37.3,47.6,57.9,41.85,14.12-3.94,20.7-31.48,24.73-43.1,8.46-24.34,16.03-47.45,29.69-69.47M152.98,204.31c16.19-4.34,35.7-6.45,50.75-13.97,21.72-10.85,36.37-35.85,54.58-51.54,19.27-16.61,36.23-24.02,60.75-13.89,23.4,9.67,41.16,34.8,66.53,39.48,23.48,4.32,36.58,10.83,54.71,27.88,11.21,10.55,32.39,39.91,49.94,39.88,19.52-.04,24.21-28.6,29.79-43.35,8.18-21.61,16.54-41.18,30.62-59.68M143.61,200.04c15.49-4.27,34.48-5.8,47.8-15.35,22.43-16.09,34.61-47.4,53.52-67.46,18.83-19.98,37.57-34.48,64.93-22.63,28.63,12.4,42.16,43.63,68.28,58.69,8.22,4.75,15.41,2.42,23.45,4.95,9.19,2.89,17.42,9.64,24.68,15.65,12.16,10.08,29.4,33.6,46.21,35.76,20.09,2.6,24.75-21.64,31.28-36.39,9.01-20.35,18.49-37.72,34.32-53.57M134.24,196.05c15.17-4.4,32.76-6.37,44.73-17.34,20.43-18.76,30.23-51.33,45.83-73.89,15.42-22.28,40.67-54.38,71.68-43.96,32.71,10.99,50.32,51.24,71.94,74.41,14.58,15.61,27.45,13.58,44.55,24.03,13.36,8.16,26.92,25.58,43.15,27.59,17.61,2.18,22.79-14.88,30.05-28.12,10.66-19.43,21.67-34.59,39.93-47.47M124.18,192.33c13.19-4.55,29.74-7.37,40.06-17.17,20.67-19.63,29.73-56.7,43.71-80.96,14.02-24.35,41.06-69.73,75.39-62.92,34.29,6.8,56.92,56.24,72.75,81.62,12.9,20.7,20.42,27.51,41.97,34,13.92,4.2,24.97,16.94,39.65,18.81,16.84,2.14,23.14-10.65,31.91-22.89,12.7-17.74,25.5-29.35,45.73-38M112.61,188.75c11.03-4.43,26.82-8.29,36.02-16.1,20.94-17.78,29.88-58.43,41.85-82.05,13.85-27.34,40.57-81.44,77.78-81.51,36.08-.07,59.87,56.82,73.49,81.29,10.47,18.77,19.96,42.67,41.64,48.15,11.13,2.82,24.99,8.1,36.54,8.9,15.91,1.1,23.76-8.39,34.06-19.02,15.25-15.76,30.66-22.57,51.96-27.78M100.38,185.26c10.04-4.64,23.06-9.11,32.04-15.55,21.3-15.3,30-53.37,40.62-75.78C188.5,61.24,210.48,10.69,249.35.18c37.43-10.12,63.93,47.37,77.14,71.32,8.92,16.17,22.4,54.21,42.32,59.73,9.15,2.53,24.66,1.93,34.47,1.62,15.03-.48,24.69-7.89,36.79-15.96,17.66-11.78,36.02-15.38,56.52-20.39M88.16,181.84c9.26-4.84,19.03-10.01,27.71-15.82,23.27-15.56,32.31-45.64,44.12-70.48,16.4-34.46,34.87-74.99,72.67-89.53,38.87-14.94,61.13,23.18,78.43,52.57,10.49,17.81,22.94,54.02,42.15,64.73,9.43,5.26,22.17.66,32.58-.93,15.93-2.43,28.85-9.08,43.74-14.75,18.42-7.02,38.54-10.59,57.68-15.27M76.46,178.44c8.7-5.01,16.58-11.25,25.22-16.32,22.52-13.2,31.1-29.84,43.2-53.3,16.54-32.07,37.52-70.42,70.74-87.69,36.47-18.96,59.06.98,80.11,31.5,13.05,18.93,24.01,48.62,43.01,62.58,12.07,8.86,20.24,3.62,33.3.04,35.17-9.65,70.44-18.38,105.87-27.03M65.64,175.07c25.08-15.53,51.27-28.58,67.9-53.18,31.65-46.82,89.8-134.11,147.44-67.68,14.71,16.95,25.52,41.53,43.79,55.06,13.16,9.75,20.87,5.68,35.05,1.4,36.31-10.98,72.14-17.62,108.76-26.55M55.91,171.7c8.13-5.15,15.16-11.92,23.35-16.95,15.78-9.68,31.65-11.16,45.8-23.9,37.8-34.04,82-115.78,142.13-68.29,16.03,12.66,26.83,32.83,44.4,43.52,13.52,8.23,23.26,4.91,37.45.98,18.61-5.14,34.25-13.5,51.98-20.65,19.07-7.71,38.39-2.81,58.24-6.41M47.32,168.29c8.39-5.17,15.64-12.07,24.09-17.07,14.75-8.7,31.91-9.08,46.92-16.48,45.65-22.5,75.77-89.78,135.75-59.23,15.86,8.08,28.54,23.54,45.24,29.79,14.1,5.28,26.14,1.12,40.08-2.51,20.7-5.39,33.88-15.74,52.27-25.65,19.49-10.51,37.26-2,58.24-1.46M39.78,164.83c9.09-5.15,17.08-12.08,26.29-17.01,15.08-8.06,31.38-9.76,47.61-13.85,45.24-11.37,76.36-63.83,128.28-45.86,15.21,5.27,29.76,15.61,46.09,17.55,14.08,1.66,28.51-3.69,42.03-7,21.95-5.37,34.21-14,52.27-27.04,20.02-14.45,35.45-5.46,58.24-1.69M33.02,161.3c26.31-13.23,47.82-24.94,77.6-30.29,41.26-7.41,78.31-40.35,121.58-32.63,15.89,2.83,28.98,8.54,45.48,6.47,14.37-1.8,28.99-6.89,43.05-10.32,20.71-5.04,35.41-9.85,52.27-23.16,21.2-16.73,32.7-12.18,58.24-7.27M26.66,157.67c27.64-11.92,51.32-24.16,81.6-29.61,19.35-3.48,37.96-5.72,56.7-11.88,19.88-6.54,37.88-11.91,59.07-11.58,30.62.48,57.72-6.97,87.41-14.2,18.13-4.41,36.51-7.23,52.27-17.31,22.74-14.54,30.86-17.34,58.24-13.63M19.82,153.89c27.74-10.82,53.08-22.5,82.65-28.18,37.76-7.26,76.01-13.89,113.96-19.78,29.78-4.62,59.13-13.21,88.42-20.32,15.84-3.85,32.73-6.51,47.9-12.49,22.8-9.01,34.13-17.44,59.9-16.8M12.01,149.98c29.27-9.99,57.13-21.28,87.64-27.3,36.2-7.13,72.51-11.3,108.42-19.97,29.16-7.05,58.3-14.16,87.45-21.24,35.52-8.62,71.71-24.09,107.8-27.41M381.55,53.54c16.55,2.62,29.59,3.83,43.98,12.85,11.79,7.39,21.33,16.15,34.02,22.28,28.85,13.95,51.73,25.48,77.02,45.88,20.73,16.73,47.81,46.05,75.34,49.66,21.47,2.82,37.34-8.07,60.15-1.42M369.05,56.44c16.53.9,29.23-1.95,43.98,6.66,12.76,7.44,21.31,20.16,34.02,27.89,12.18,7.41,26,11.2,38.04,18.99,15.81,10.23,29.81,23.74,44.03,35.95,19.21,16.48,49.57,51.07,76.6,51.75,20.91.52,30.67-19.8,54.07-11.39M356.56,60.19c15.48,2.1,29.89-4.73,43.98,1.09,14.01,5.78,21.82,22.55,34.02,31.39,12.83,9.31,27.48,14.16,40.22,23.98,16.78,12.91,32.04,27.92,47.75,42.06,16.71,15.02,52.1,56.24,77.14,52.65,20.32-2.92,21.94-30.18,47.81-21.68M344.05,63.3c17.24,6.47,28.15-1.7,43.98,2.04,14.57,3.44,22.38,20.95,34.02,29.83,14.03,10.72,29.6,17.96,43.33,29.62,17.76,15.08,34.14,31.83,51.17,47.7,13.8,12.85,54.87,60.3,76.77,52.06,18.58-7,12.53-41.2,41.66-31.78M331.54,66.35c8.29,4.16,16.9,7.52,25.83,10.06,6.05-1.37,12.1-1.62,18.16-.73,14.67,2.86,22.37,14.78,34.02,23.48,36.58,27.32,68.18,55.99,101.36,87.67,12.31,11.75,55.11,61.31,75.01,49.18,15.76-9.6,4.21-51.77,36.41-40.4M319.02,69.38c27.05,11.99,53.37,18.24,78.12,34.23,41.53,26.84,72.75,63.2,108.05,97.49,12.44,12.07,53.79,60.55,71.54,43.47,11.86-11.4-.81-60.66,32.8-46.32M306.49,72.43c26.04,11.54,53.47,21.58,78.62,34.95,47.03,24.99,77.24,70.01,113.89,107.17,12.09,12.26,52.27,60.05,66.77,35.7,7.66-12.85-3.29-67.87,31.05-49.19M293.96,75.47c26.4,11.7,53.38,22.54,79.57,34.67,49.82,23.06,82.48,71.49,117.34,111.8,8.87,10.26,30.17,37.91,45.98,42.14,13.33,3.57,12.69-.32,16.14-11.17,7.24-22.74-8.22-62.7,31.34-48.7M281.41,78.51c26.98,11.97,53.85,23.53,81.22,34.43,51.41,20.47,84.66,66.69,117.9,108.78,9.25,11.72,52.41,76.53,57.84,30.88,3.24-27.17-6.48-62.32,33.41-45.29M268.86,81.56c27.69,12.29,54.99,25.3,83.7,34.9,52.17,17.45,83.21,55.18,115.57,98.28,3.9,5.19,32.56,53.19,43.83,54.36,11.76,1.22,9.62-11.08,10.12-19.59.62-10.41-3.63-27.79,1.6-37.65,9-16.96,20.72-8.04,35.56-1.45M256.3,84.61c28.77,12.77,56.95,23.18,86.6,33.52,50.3,17.54,79.09,41.24,111.02,84.51,5.97,8.09,28.36,50.48,40.47,55.23,11.79,4.63,9.7-3.41,9.89-13.89.15-8.23-3.33-28.22,2.83-35.62,11.13-13.34,26.66-.57,39.57,5.15M243.74,87.66c14.64,6.51,29.12,14.48,44.73,17.73,15.27,3.17,29.38,2.85,44.33,8.49,42.63,16.09,77.94,37.3,105.61,73.96,9.84,13.03,22.76,42.36,36.2,52.95,10.07,7.93,8.42,6.09,10.66-4.35,1.61-7.52-2.45-25.54,5.31-31.5,11.23-8.63,33.03,7.03,43.54,11.71M231.16,90.71c15.6,6.93,28.23,14.12,45.18,13.2,16.91-.9,28.21-6.26,45.42-.82,22.39,7.07,37.94,25.41,57.66,37.16,16.58,9.87,30.09,17.44,42.81,33.15,12.11,14.96,19.36,33.88,31.54,48.56,8.72,10.51,5.44,9.83,11.64,4.32,5.62-5-.35-18.88,9.17-23.91,9.86-5.22,38.15,13.45,46.99,17.38M218.58,93.77c18.08,8.04,26.45,13.56,44.88,6.43,17.31-6.7,25.84-17.28,45.95-13.68,24.92,4.45,42.19,27.54,58.67,44.7,11.84,12.34,26.58,20.35,38.24,32.56,7.52,7.87,29.34,56.01,39.17,51.64,6.4-2.84,4.24-13.15,14.18-13.76,13.18-.8,37.37,15.9,49.32,21.2M205.99,96.82c19.62,8.72,25.42,9.99,42.9-2.54,15.88-11.39,25.19-27.83,46.48-28.11,44.89-.6,69.46,66.92,95.84,95.29,10.49,11.28,20.62,41.11,35.03,44.72,5.08,1.27,13.11-4.03,20.24-2.38,16.57,3.82,34.37,15.28,49.91,22.2M193.4,99.88c20.94,9.45,24.26,4.72,38.87-11.11,13.85-15,25.83-38.38,47.11-43.42,52.15-12.36,77.75,77.32,96.15,111.44,7.02,13.02,19.13,36.73,32.63,43.2,7.52,3.6,17.59,3.43,25.73,6.9,16.75,7.14,33.28,14.81,49.91,22.21M180.79,102.93c20.08,9.7,22.86.9,34.05-15.58,13.41-19.74,23.27-46.84,45.77-58.45,57.73-29.79,84.24,76.85,97.52,114.44,7.29,20.63,13.95,41.65,33.39,54.01,23.27,14.8,54.55,23.66,79.7,34.85M167.93,106.22c14.83,15.87,22.98-4.85,28.95-15.4,13.31-23.51,22.1-47.63,40.88-67.73,58.73-62.87,90.69,67.5,101.89,104.35,8.2,26.97,11.29,55.08,36.72,70.59,25.17,15.35,55.4,25.35,82.24,37.29M154.34,108.84c12.85,15.01,18.6.61,24.33-10.01,12.43-23.05,19.87-47.58,34.99-69.36,17.73-25.55,45.23-45.62,68.37-12.65,19.71,28.08,29.03,64.99,38.67,97.18,9.07,30.3,11.86,70.8,41.96,87.01,26.61,14.32,55.79,25.16,83.35,37.43M139.6,111.55c12.71,7.57,12.24,11.35,20.81-1.63,12.75-19.32,18.4-43.85,30.18-64.09,13.02-22.35,40.93-56,69.42-29.28,22.92,21.51,32.6,61.84,41.71,90.04,10.56,32.68,14.43,81.19,48.17,97.79,27.26,13.4,55.72,24.84,83.47,37.21M124.56,114.19c9.95,6.48,10.05,13.84,19.61,5.39,12.94-11.44,19.06-41.14,27.79-55.49,11.84-19.45,28.66-38.08,54.32-32.54,33.9,7.32,46.38,47.84,56.7,75.66,14.31,38.58,18.46,81.21,57.1,101.16,26.11,13.48,53.86,24.38,80.67,36.34M109.66,116.86c4.75,3.4,10.43,13.57,16.67,13.92,7.84.43,23.6-34.26,26.01-37.6,11.86-16.48,30.49-34.44,52.88-32.82,29.68,2.15,48.84,32.99,59.98,56.78,17.94,38.26,24.25,72.42,62.2,93.29,25.93,14.27,53.67,25.36,80.67,37.41M95.31,119.64c19.65,15.95,16.85,24.59,40.79,1.85,13.93-13.23,31.36-28.8,52.01-29.43,27.19-.83,45.63,21.46,59.35,41.75,12.68,18.74,20.9,43.59,37.25,59.5,8.08,7.87,20.49,13.23,30.08,18.81,25.89,15.09,53.35,26.64,80.67,38.83M81.74,122.54c14.29,11.81,18.79,28.63,41.3,20.24,17.99-6.7,31.05-19.23,51.17-20.79,24.88-1.94,41.79,12.53,57.59,29.49,13.97,14.99,23.22,32.27,39.94,44.52,9.25,6.78,20.58,11.91,30.42,17.79,26.02,15.54,53.01,27.95,80.68,40.3M69.06,125.62c14.82,11.91,21.23,25.26,42.62,28.62,16.58,2.6,34.8-6.54,51.19-7.45,22.57-1.27,38.91,7.24,55.98,20.89,13.88,11.09,24.84,22.03,40.21,30.94,10.05,5.82,20.41,11.09,30.42,17.06,26.22,15.64,52.78,29.1,80.68,41.55M57.28,128.86c17.33,12.43,23.8,21.84,45.89,28.79,35.58,11.21,70.81,3.28,104.45,22.64,48.72,28.03,98.4,57.16,149.86,80.09M46.3,132.22c18.42,12.2,27.83,22.18,50.23,28.96,33.31,10.09,68.38,13.9,100.57,27.26,51.23,21.27,97.35,52.16,147.72,75.08M35.84,135.69c19.57,11.83,32.25,22.54,54.96,29.28,31.77,9.43,64.26,16.04,95.34,27.83,50.94,19.33,96.68,50.9,145.98,73.85M25.58,139.21c19.72,10.85,34.69,21.95,56.64,28.79,30.63,9.54,62.38,14.93,91.97,27.7,49.9,21.55,96.11,50.96,145.24,74.08M15,142.66c21.04,10.56,38.63,22.32,61.37,29.46,28.52,8.96,57.77,14.42,85.11,26.79,49.51,22.38,96.05,50.91,145.24,74"/>
  </g>
  </svg>