<svg width="48" height="48" viewBox="0 0 48 48" fill="none" xmlns="http://www.w3.org/2000/svg">
<rect x="43.5703" y="5.1521" width="36.6417" height="37.245" transform="rotate(90 43.5703 5.1521)" fill="#1F504A" stroke="#CDF3A3" stroke-linejoin="round"/>
<rect width="27.4746" height="27.4746" transform="matrix(-0.704557 0.709647 -0.704557 -0.709648 44.3081 23.6484)" fill="#1F504A" stroke="#CDF3A3" stroke-linejoin="round"/>
<path d="M43.6196 40.1765C45.4796 40.1765 46.9995 41.6976 46.9995 43.5886C46.9993 45.4795 45.4795 46.9998 43.6196 46.9998C41.7598 46.9996 40.2399 45.4794 40.2397 43.5886C40.2397 41.6976 41.7597 40.1766 43.6196 40.1765Z" fill="#EF7E5F" stroke="#1F504A" stroke-width="2"/>
<path d="M6.27637 8.60339C4.41637 8.60339 2.89648 7.08234 2.89648 5.19128C2.89668 3.30041 4.41649 1.78015 6.27637 1.78015C8.13615 1.78026 9.65605 3.30048 9.65625 5.19128C9.65625 7.08226 8.13627 8.60328 6.27637 8.60339Z" fill="#EF7E5F" stroke="#1F504A" stroke-width="2"/>
<path d="M43.6196 1.78003C45.4796 1.78003 46.9995 3.30109 46.9995 5.19214C46.9993 7.08302 45.4795 8.60327 43.6196 8.60327C41.7598 8.60316 40.2399 7.08295 40.2397 5.19214C40.2397 3.30116 41.7597 1.78014 43.6196 1.78003Z" fill="#EF7E5F" stroke="#1F504A" stroke-width="2"/>
<path d="M24.9473 1C26.8073 1 28.3271 2.52106 28.3271 4.41211C28.3269 6.30299 26.8071 7.82324 24.9473 7.82324C23.0875 7.82313 21.5676 6.30292 21.5674 4.41211C21.5674 2.52113 23.0874 1.00011 24.9473 1Z" fill="#EF7E5F" stroke="#1F504A" stroke-width="2"/>
<path d="M43.6196 20.4974C45.4796 20.4974 46.9995 22.0185 46.9995 23.9095C46.9993 25.8004 45.4795 27.3207 43.6196 27.3207C41.7598 27.3206 40.2399 25.8004 40.2397 23.9095C40.2397 22.0186 41.7597 20.4975 43.6196 20.4974Z" fill="#EF7E5F" stroke="#1F504A" stroke-width="2"/>
<path d="M24.9473 40.1765C26.8073 40.1765 28.3271 41.6976 28.3271 43.5886C28.3269 45.4795 26.8071 46.9998 24.9473 46.9998C23.0875 46.9996 21.5676 45.4794 21.5674 43.5886C21.5674 41.6976 23.0874 40.1766 24.9473 40.1765Z" fill="#EF7E5F" stroke="#1F504A" stroke-width="2"/>
<circle cx="4.39594" cy="4.39594" r="3.39594" transform="matrix(-0.704557 0.709647 -0.704557 -0.709648 12.3887 23.9092)" fill="#EF7E5F" stroke="#1F504A" stroke-width="2"/>
<path d="M6.37451 40.1765C8.23451 40.1765 9.75439 41.6976 9.75439 43.5886C9.7542 45.4795 8.23439 46.9998 6.37451 46.9998C4.51473 46.9996 2.99483 45.4794 2.99463 43.5886C2.99463 41.6976 4.51461 40.1766 6.37451 40.1765Z" fill="#EF7E5F" stroke="#1F504A" stroke-width="2"/>
</svg>
