<svg width="48" height="49" viewBox="0 0 48 49" fill="none" xmlns="http://www.w3.org/2000/svg">
<path d="M5.72394e-07 0.5C6.3652 0.5 12.4697 3.02857 16.9706 7.52944C21.4714 12.0303 24 18.1348 24 24.5C24 30.8652 21.4714 36.9697 16.9706 41.4706C12.4697 45.9714 6.3652 48.5 3.8147e-06 48.5" stroke="#CDF3A3"/>
<path d="M48 48.5C41.6348 48.5 35.5303 45.9714 31.0294 41.4706C26.5286 36.9697 24 30.8652 24 24.5C24 18.1348 26.5286 12.0303 31.0294 7.52944C35.5303 3.02856 41.6348 0.500001 48 0.5" stroke="#CDF3A3"/>
<path d="M3.57749e-07 8.5C6.3652 8.5 12.4697 10.1857 16.9706 13.1863C21.4714 16.1869 24 20.2565 24 24.5C24 28.7435 21.4714 32.8131 16.9706 35.8137C12.4697 38.8143 6.3652 40.5 3.8147e-06 40.5" stroke="#CDF3A3"/>
<path d="M48 40.5C41.6348 40.5 35.5303 38.8143 31.0294 35.8137C26.5286 32.8131 24 28.7435 24 24.5C24 20.2565 26.5286 16.1869 31.0294 13.1863C35.5303 10.1857 41.6348 8.5 48 8.5" stroke="#CDF3A3"/>
<path d="M1.19249e-07 16.5C6.3652 16.5 12.4697 17.3429 16.9706 18.8431C21.4714 20.3434 24 22.3783 24 24.5C24 26.6217 21.4714 28.6566 16.9706 30.1569C12.4697 31.6571 6.3652 32.5 3.8147e-06 32.5" stroke="#CDF3A3"/>
<path d="M48 32.5C41.6348 32.5 35.5303 31.6571 31.0294 30.1569C26.5286 28.6566 24 26.6217 24 24.5C24 22.3783 26.5286 20.3434 31.0294 18.8431C35.5303 17.3429 41.6348 16.5 48 16.5" stroke="#CDF3A3"/>
<path d="M0 24.5H48" stroke="#CDF3A3"/>
<circle cx="24" cy="24.5" r="5" transform="rotate(90 24 24.5)" fill="#EF7E5F" stroke="#1F504A" stroke-width="2"/>
</svg>
