<svg width="687" height="367" viewBox="0 0 687 367" fill="none" xmlns="http://www.w3.org/2000/svg">
<path d="M468.159 323.735L293.986 365.656L157.743 296.286L139.278 287.63L114.824 279.146L56.4336 261.851L4.53125 235.401L77.8932 212.444L141.773 200.467C142.272 198.969 146.364 191.284 158.741 172.519C177.206 137.585 223.619 80.6921 262.047 88.178C292.789 94.1667 319.106 135.256 328.422 155.052L393.799 140.08L417.254 149.063L460.174 170.024L505.089 189.487L530.541 204.459L550.504 217.934L575.457 238.395L597.415 253.367L613.884 259.855L634.346 263.348L671.775 264.845L684.751 269.337L621.869 285.307L588.931 323.735L564.976 344.523L547.01 355.004L531.539 359.667H512.575L495.108 348.688L468.159 323.735Z" fill="#EF7E5F"/>
<path d="M3.5332 235.412C34.4615 226.48 64.3252 215.386 95.9881 208.966C130.366 201.993 164.701 196.308 198.813 188.025C263.64 172.289 328.594 153.083 394.06 140.637C422.529 148.824 445.196 163.239 472.057 175.1C498.226 186.662 521.926 197.106 545.007 214.279C566.95 230.6 591.16 254.704 618.501 260.9C641.21 266.053 661.002 260.144 684.392 268.906C555.271 304.253 424.02 333.18 294.068 365.535C244.785 342.687 198.227 314.335 148.827 291.818C123.307 280.192 96.3394 274.358 69.7336 265.776C46.0982 258.153 25.8271 246.08 3.5545 235.412H3.5332Z" stroke="#933A21" stroke-miterlimit="10"/>
<path d="M284.623 361.192C349.578 344.765 414.746 329.114 479.785 313.027C544.793 296.94 612.378 287.976 675.32 265.341" stroke="#933A21" stroke-miterlimit="10"/>
<path d="M275.202 356.686C340.029 339.928 405.356 324.895 470.375 308.819C499.717 301.569 529.154 292.296 559.337 289.751C598.826 286.429 630.872 279.86 666.953 262.879" stroke="#933A21" stroke-miterlimit="10"/>
<path d="M265.768 352.067C330.382 334.798 395.986 320.681 460.941 304.637C492.466 296.843 520.594 290.754 553.247 291.073C594.194 291.477 624.377 282.971 659.223 261.518" stroke="#933A21" stroke-miterlimit="10"/>
<path d="M256.357 347.383C320.641 329.348 386.66 316.476 451.53 300.453C484.875 292.223 511.566 292.308 545.742 295.194C589.361 298.867 618.564 288.06 652.037 261.029" stroke="#933A21" stroke-miterlimit="10"/>
<path d="M246.935 342.551C310.964 324.153 377.249 311.793 442.108 296.259C477.476 287.795 507.765 297.611 543.048 302.072C587.977 307.747 615.275 292.842 645.117 260.977" stroke="#933A21" stroke-miterlimit="10"/>
<path d="M237.534 337.652C272.285 327.591 307.088 321.522 342.414 314.08C372.49 307.746 402.364 296.652 432.76 292.212C469.853 286.793 505.572 305.915 541.718 311.163C589.063 318.03 611.463 296.226 638.569 261.497" stroke="#933A21" stroke-miterlimit="10"/>
<path d="M228.123 332.702C262.118 322.79 295.484 315.806 330.288 309.769C360.918 304.457 394.156 289.339 425.372 291.425C466.873 294.204 503.742 317.52 544.88 322.226C591.31 327.538 609.015 296.451 632.288 262.456" stroke="#933A21" stroke-miterlimit="10"/>
<path d="M218.721 327.718C253.78 317.476 287.583 309.736 323.633 304.189C355.189 299.335 387.597 284.483 419.686 291.701C461.57 301.123 498.258 327.793 541.515 332.775C590.915 338.471 604.415 298.674 625.293 262.263" stroke="#933A21" stroke-miterlimit="10"/>
<path d="M209.321 322.725C244.348 312.504 278.034 303.561 314.232 298.77C348.28 294.277 381.135 280.149 415.183 291.519C458.547 305.999 493.68 340.366 541.121 343.432C590.117 346.594 599.507 295.863 617.383 260.581" stroke="#933A21" stroke-miterlimit="10"/>
<path d="M199.931 317.743C234.799 307.628 268.719 297.482 304.843 293.202C340.178 289.018 376.643 275.455 411.085 289.327C455.13 307.075 489.22 353.132 539.685 352.333C585.603 351.599 592.886 290.179 608.472 257.206" stroke="#933A21" stroke-miterlimit="10"/>
<path d="M190.541 312.793C225.248 302.828 259.541 292.075 295.463 287.614C330.415 283.27 373.513 270.345 406.89 284.505C431.015 294.736 451.403 312.846 471.738 328.901C490.348 343.593 510.811 362.012 536.32 358.062C576.83 351.802 584.208 282.844 598.528 252.118" stroke="#933A21" stroke-miterlimit="10"/>
<path d="M181.15 307.885C216.252 297.952 251.769 289.583 286.86 279.863C305.779 274.625 322.26 274.295 341.86 274.55C362.855 274.827 381.88 269.312 402.279 277.329C426.788 286.964 447.229 306.448 466.648 323.567C482.054 337.142 506.286 366.196 529.964 358.882C547.541 353.452 555.217 332.606 560.945 316.839C569.707 292.703 576.319 268.556 587.562 245.379" stroke="#933A21" stroke-miterlimit="10"/>
<path d="M171.771 303.05C207.735 293.064 242.411 285.91 275.372 268.556C295.356 258.037 312.955 256.142 334.78 260.837C355.115 265.202 377.963 263.488 397.276 269.269C422.434 276.807 442.321 296.95 461.027 314.432C475.315 327.782 499.717 362.512 522.373 352.876C536.288 346.957 543.432 322.214 547.818 309.598C556.431 284.792 563.373 260.549 575.787 237.265" stroke="#933A21" stroke-miterlimit="10"/>
<path d="M162.391 298.313C181.033 293.256 200.612 289.743 218.796 283.259C236.97 276.775 250.683 263.126 266.014 251.862C286.445 236.851 304.384 232.006 328.573 240.79C338.528 244.399 347.694 249.989 357.415 254.098C369.041 259.017 379.538 258.559 391.675 260.944C415.939 265.714 433.538 282.162 451.03 298.878C463.433 310.727 488.325 346.478 508.926 340.729C523.043 336.79 529.623 309.247 533.658 297.632C542.122 273.294 549.692 250.18 563.351 228.163" stroke="#933A21" stroke-miterlimit="10"/>
<path d="M153.012 293.768C169.205 289.424 188.71 287.316 203.764 279.8C225.483 268.951 240.133 243.953 258.349 228.26C277.619 211.651 294.579 204.241 319.098 214.366C342.499 224.033 360.258 249.17 385.629 253.843C409.104 258.166 422.21 264.671 440.342 281.727C451.552 292.277 472.728 321.641 490.285 321.609C509.81 321.566 514.495 293.012 520.074 278.256C528.25 256.643 536.618 237.075 550.693 218.571" stroke="#933A21" stroke-miterlimit="10"/>
<path d="M143.643 289.498C159.133 285.228 178.127 283.695 191.446 274.145C213.878 258.058 226.058 226.747 244.966 206.689C263.8 186.705 282.538 172.204 309.9 184.054C338.528 196.457 352.06 227.684 378.176 242.749C386.395 247.497 393.582 245.165 401.63 247.699C410.818 250.584 419.048 257.334 426.309 263.35C438.468 273.432 455.704 296.95 472.515 299.112C492.605 301.709 497.269 277.467 503.795 262.722C512.802 242.376 522.288 225.001 538.119 209.148" stroke="#933A21" stroke-miterlimit="10"/>
<path d="M134.273 285.505C149.444 281.108 167.032 279.139 178.999 268.162C199.43 249.403 209.225 216.835 224.833 194.275C240.249 171.992 265.503 139.892 296.516 150.315C329.222 161.303 346.832 201.557 368.455 224.724C383.03 240.332 395.902 238.309 413 248.754C426.362 256.909 439.925 274.337 456.151 276.339C473.76 278.521 478.945 261.455 486.206 248.221C496.863 228.791 507.872 213.631 526.141 200.748" stroke="#933A21" stroke-miterlimit="10"/>
<path d="M124.212 281.79C137.404 277.244 153.948 274.422 164.275 264.617C184.94 244.985 194.001 207.913 207.98 183.66C222.001 159.312 249.044 113.925 283.368 120.739C317.661 127.542 340.285 176.974 356.116 202.356C369.02 223.053 376.536 229.867 398.085 236.361C412 240.556 423.051 253.3 437.733 255.173C454.576 257.313 460.878 244.527 469.641 232.283C482.342 214.546 495.139 202.931 515.368 194.286" stroke="#933A21" stroke-miterlimit="10"/>
<path d="M112.65 278.213C123.68 273.784 139.469 269.919 148.667 262.115C169.609 244.335 178.552 203.687 190.519 180.062C204.37 152.722 231.093 98.6264 268.303 98.5518C304.384 98.4773 328.169 155.373 341.796 179.838C352.262 198.608 361.758 222.51 383.435 227.993C394.561 230.814 408.422 236.095 419.974 236.893C435.88 237.99 443.737 228.504 454.032 217.868C469.278 202.111 484.694 195.297 505.988 190.091" stroke="#933A21" stroke-miterlimit="10"/>
<path d="M100.417 274.721C110.457 270.079 123.477 265.607 132.453 259.166C153.756 243.867 162.455 205.795 173.069 183.384C188.539 150.699 210.513 100.149 249.384 89.6411C286.817 79.5162 313.317 137.008 326.529 160.962C335.451 177.135 348.929 215.175 368.849 220.69C377.995 223.223 393.507 222.617 403.323 222.308C418.356 221.829 428.012 214.419 440.117 206.349C457.78 194.574 476.135 190.964 496.64 185.961" stroke="#933A21" stroke-miterlimit="10"/>
<path d="M88.1934 271.293C97.4559 266.448 107.219 261.285 115.906 255.472C139.18 239.917 148.219 209.83 160.026 184.992C176.422 150.529 194.893 109.997 232.699 95.4646C271.57 80.5275 293.832 118.642 311.133 148.037C321.62 165.849 334.076 202.058 353.282 212.768C362.715 218.028 375.449 213.429 385.861 211.842C401.788 209.415 414.713 202.761 429.597 197.097C448.016 190.081 468.138 186.503 487.28 181.83" stroke="#933A21" stroke-miterlimit="10"/>
<path d="M76.4941 267.895C85.1924 262.88 93.0709 256.641 101.716 251.574C124.233 238.372 132.815 221.731 144.92 198.277C161.464 166.21 182.438 127.861 215.656 110.592C252.131 91.6303 274.712 111.571 295.771 142.095C308.824 161.025 319.779 190.718 338.783 204.676C350.856 213.533 359.022 208.295 372.086 204.718C407.251 195.072 442.523 186.342 477.955 177.687" stroke="#933A21" stroke-miterlimit="10"/>
<path d="M65.6777 264.531C90.7611 248.998 116.952 235.955 133.582 211.351C165.234 164.528 223.385 77.2365 281.026 143.671C295.74 160.62 306.546 185.203 324.815 198.735C337.975 208.487 345.683 204.41 359.864 200.13C396.179 189.153 432.005 182.51 468.629 173.577" stroke="#933A21" stroke-miterlimit="10"/>
<path d="M55.9463 261.156C64.0803 256.003 71.107 249.232 79.2942 244.207C95.0725 234.529 110.947 233.049 125.096 220.305C162.891 186.268 207.096 104.524 267.228 152.018C283.261 164.677 294.057 184.852 311.624 195.541C325.145 203.771 334.887 200.449 349.078 196.521C367.689 191.378 383.329 183.021 401.055 175.866C420.123 168.158 439.447 173.056 459.292 169.457" stroke="#933A21" stroke-miterlimit="10"/>
<path d="M47.354 257.75C55.7435 252.576 62.9938 245.677 71.4472 240.683C86.1927 231.985 103.355 231.602 118.367 224.203C164.019 201.706 194.138 134.42 254.121 164.976C269.985 173.056 282.665 188.515 299.358 194.765C313.455 200.045 325.496 195.883 339.443 192.252C360.14 186.865 373.32 176.517 391.718 166.605C411.211 156.096 428.981 164.603 449.954 165.146" stroke="#933A21" stroke-miterlimit="10"/>
<path d="M39.8174 254.29C48.9096 249.138 56.8945 242.207 66.1038 237.277C81.1793 229.218 97.4792 227.514 113.715 223.426C158.953 212.056 190.073 159.6 241.996 177.571C257.21 182.841 271.753 193.179 288.085 195.117C302.16 196.778 316.596 191.423 330.118 188.122C352.071 182.756 364.325 174.122 382.392 161.08C402.408 146.632 417.845 155.618 440.629 159.387" stroke="#933A21" stroke-miterlimit="10"/>
<path d="M33.0562 250.754C59.3638 237.521 80.8806 225.81 110.659 220.465C151.915 213.055 188.965 180.115 232.243 187.833C248.128 190.665 261.223 196.372 277.725 194.306C292.098 192.507 306.716 187.418 320.78 183.99C341.487 178.954 356.19 174.142 373.055 160.834C394.252 144.108 405.75 148.654 431.291 153.562" stroke="#933A21" stroke-miterlimit="10"/>
<path d="M26.7007 247.124C54.3392 235.2 78.0172 222.967 108.296 217.516C127.641 214.035 146.251 211.799 165 205.635C184.877 199.098 202.88 193.721 224.067 194.051C254.686 194.53 281.782 187.078 311.475 179.849C329.606 175.441 347.982 172.62 363.75 162.537C386.491 147.994 394.614 145.194 421.987 148.91" stroke="#933A21" stroke-miterlimit="10"/>
<path d="M19.8545 243.344C47.5995 232.527 72.9383 220.848 102.504 215.163C140.267 207.902 178.51 201.269 216.465 195.381C246.243 190.761 275.596 182.169 304.885 175.057C320.727 171.203 337.612 168.552 352.784 162.569C375.589 153.562 386.917 145.13 412.681 145.768" stroke="#933A21" stroke-miterlimit="10"/>
<path d="M12.0503 239.437C41.3177 229.451 69.1798 218.155 99.6929 212.14C135.891 205.007 172.207 200.844 208.118 192.167C237.279 185.119 266.418 178.007 295.569 170.927C331.086 162.303 367.284 146.834 403.365 143.512" stroke="#933A21" stroke-miterlimit="10"/>
<path d="M381.583 143.001C398.138 145.621 411.169 146.834 425.564 155.852C437.349 163.241 446.889 172.003 459.579 178.135C488.432 192.082 511.311 203.612 536.597 224.011C557.326 240.737 584.41 270.058 611.932 273.667C633.406 276.488 649.269 265.597 672.085 272.251" stroke="#933A21" stroke-miterlimit="10"/>
<path d="M369.084 145.896C385.618 146.801 398.319 143.948 413.065 152.561C425.82 160.003 434.379 172.725 447.081 180.455C459.26 187.865 473.08 191.655 485.121 199.448C500.931 209.68 514.931 223.19 529.155 235.402C548.362 251.883 578.726 286.473 605.757 287.155C626.667 287.676 636.43 267.352 659.831 275.763" stroke="#933A21" stroke-miterlimit="10"/>
<path d="M356.595 149.645C372.075 151.742 386.491 144.917 400.576 150.731C414.587 156.512 422.391 173.28 434.592 182.117C447.421 191.422 462.071 196.276 474.815 206.093C491.594 219.007 506.85 234.019 522.565 248.157C539.269 263.179 574.669 304.392 599.699 300.804C620.024 297.887 621.642 270.621 647.513 279.128" stroke="#933A21" stroke-miterlimit="10"/>
<path d="M344.084 152.762C361.321 159.235 372.234 151.059 388.066 154.806C402.63 158.245 410.445 175.759 422.081 184.638C436.113 195.359 451.679 202.599 465.413 214.257C483.171 229.332 499.556 246.09 516.58 261.953C530.378 274.804 571.453 322.255 593.353 314.015C611.931 307.02 605.884 272.813 635.013 282.235" stroke="#933A21" stroke-miterlimit="10"/>
<path d="M331.576 155.809C339.869 159.972 348.472 163.326 357.404 165.87C363.452 164.497 369.499 164.252 375.567 165.135C390.238 167.999 397.936 179.913 409.583 188.611C446.165 215.93 477.764 244.601 510.939 276.286C523.246 288.039 566.045 337.599 585.954 325.462C601.711 315.859 590.16 273.688 622.366 285.058" stroke="#933A21" stroke-miterlimit="10"/>
<path d="M319.056 158.843C346.109 170.831 372.427 177.08 397.18 193.071C438.713 219.911 469.928 256.269 505.232 290.562C517.668 302.635 559.019 351.109 576.767 334.032C588.627 322.629 575.958 273.368 609.569 287.709" stroke="#933A21" stroke-miterlimit="10"/>
<path d="M306.523 161.888C332.565 173.429 359.991 183.468 385.148 196.84C432.174 221.828 462.389 266.852 499.035 304.009C511.129 316.273 551.31 364.055 565.81 339.707C573.465 326.856 562.52 271.835 596.856 290.519" stroke="#933A21" stroke-miterlimit="10"/>
<path d="M293.994 164.923C320.398 176.623 347.376 187.461 373.567 199.588C423.382 222.648 456.046 271.079 490.903 311.387C499.771 321.651 521.075 349.3 536.885 353.526C550.215 357.093 549.576 353.207 553.025 342.358C560.265 319.617 544.806 279.661 584.369 293.661" stroke="#933A21" stroke-miterlimit="10"/>
<path d="M281.451 167.968C308.429 179.935 335.301 191.497 362.673 202.399C414.086 222.872 447.335 269.089 480.574 311.175C489.825 322.897 532.987 387.702 538.416 342.05C541.653 314.88 531.933 279.725 571.825 296.759" stroke="#933A21" stroke-miterlimit="10"/>
<path d="M268.899 171.013C296.591 183.299 323.888 196.309 352.602 205.912C404.771 223.362 435.816 261.093 468.171 304.191C472.068 309.386 500.728 357.381 512.003 358.552C523.767 359.776 521.627 347.469 522.128 338.962C522.745 328.55 518.497 311.175 523.725 301.316C532.721 284.356 544.443 293.278 559.284 299.868" stroke="#933A21" stroke-miterlimit="10"/>
<path d="M256.335 174.068C285.102 186.833 313.284 197.245 342.935 207.583C393.24 225.118 422.028 248.828 453.957 292.095C459.93 300.187 482.32 342.571 494.425 347.33C506.211 351.961 504.124 343.923 504.315 333.436C504.465 325.206 500.983 305.212 507.147 297.813C518.273 284.472 533.807 297.238 546.721 302.966" stroke="#933A21" stroke-miterlimit="10"/>
<path d="M243.773 177.113C258.412 183.618 272.892 191.592 288.5 194.839C303.767 198.012 317.884 197.692 332.832 203.324C375.461 219.411 410.776 240.63 438.446 277.286C448.283 290.317 461.208 319.649 474.644 330.231C484.716 338.163 483.066 336.321 485.302 325.877C486.909 318.36 482.853 300.336 490.614 294.374C501.846 285.739 523.64 301.401 534.159 306.085" stroke="#933A21" stroke-miterlimit="10"/>
<path d="M231.2 180.168C246.797 187.099 259.434 194.285 276.384 193.369C293.291 192.464 304.597 187.109 321.802 192.55C344.192 199.619 359.746 217.963 379.464 229.706C396.041 239.576 409.551 247.145 422.274 262.86C434.379 277.818 441.629 296.737 453.809 311.419C462.529 321.927 459.249 321.245 465.446 315.741C471.067 310.737 465.094 296.865 474.612 291.829C484.471 286.612 512.759 305.275 521.606 309.204" stroke="#933A21" stroke-miterlimit="10"/>
<path d="M218.614 183.225C236.692 191.263 245.06 196.788 263.49 189.655C280.801 182.958 289.329 172.376 309.44 175.974C334.364 180.424 351.633 203.517 368.113 220.679C379.952 233.018 394.698 241.025 406.356 253.236C413.872 261.104 435.698 309.248 445.525 304.872C451.923 302.029 449.762 291.724 459.706 291.117C472.886 290.318 497.075 307.012 509.021 312.314" stroke="#933A21" stroke-miterlimit="10"/>
<path d="M206.03 186.279C225.652 194.999 231.454 196.266 248.925 183.735C264.81 172.343 274.115 155.905 295.408 155.628C340.294 155.032 364.867 222.552 391.249 250.915C401.736 262.189 411.871 292.021 426.276 295.63C431.354 296.897 439.382 291.595 446.515 293.245C463.081 297.068 480.882 308.523 496.426 315.443" stroke="#933A21" stroke-miterlimit="10"/>
<path d="M193.436 189.336C214.378 198.79 217.7 194.053 232.307 178.221C246.158 163.22 258.135 139.84 279.418 134.805C331.565 122.444 357.17 212.12 375.567 246.242C382.583 259.263 394.699 282.973 408.199 289.446C415.715 293.044 425.787 292.874 433.932 296.345C450.679 303.489 467.213 311.154 483.843 318.554" stroke="#933A21" stroke-miterlimit="10"/>
<path d="M180.831 192.391C200.91 202.09 203.689 193.296 214.879 176.815C228.293 157.077 238.152 129.97 260.648 118.366C318.374 88.5767 344.884 195.213 358.171 232.806C365.464 253.439 372.118 274.455 391.559 286.816C414.832 301.614 446.112 310.472 471.259 321.662" stroke="#933A21" stroke-miterlimit="10"/>
<path d="M167.971 195.68C182.801 211.554 190.946 190.836 196.919 180.285C210.227 156.778 219.021 132.653 237.802 112.552C296.528 49.684 328.489 180.051 339.689 216.899C347.887 243.867 350.975 271.974 376.409 287.486C401.578 302.838 431.814 312.835 458.644 324.781" stroke="#933A21" stroke-miterlimit="10"/>
<path d="M154.374 198.3C167.224 213.311 172.973 198.906 178.701 188.292C191.136 165.242 198.567 140.712 213.686 118.929C231.412 93.3777 258.912 73.309 282.058 106.281C301.765 134.356 311.091 171.268 320.726 203.463C329.797 233.763 332.587 274.263 362.684 290.478C389.29 304.797 418.473 315.635 446.036 327.911" stroke="#933A21" stroke-miterlimit="10"/>
<path d="M139.64 201.003C152.352 208.573 151.883 212.352 160.454 199.374C173.208 180.051 178.851 155.521 190.637 135.282C203.657 112.935 231.562 79.2811 260.052 106.004C282.974 127.51 292.652 167.839 301.766 196.042C312.327 228.727 316.192 277.233 349.931 293.831C377.186 307.235 405.655 318.669 433.4 331.04" stroke="#933A21" stroke-miterlimit="10"/>
<path d="M124.595 203.645C134.549 210.129 134.645 217.485 144.206 209.032C157.141 197.587 163.263 167.894 171.993 153.542C183.832 134.091 200.654 115.459 226.312 121.006C260.211 128.331 272.689 168.841 283.016 196.671C297.325 235.254 301.477 277.883 340.113 297.835C366.219 311.313 393.974 322.216 420.783 334.172" stroke="#933A21" stroke-miterlimit="10"/>
<path d="M109.701 206.315C114.45 209.711 120.135 219.89 126.374 220.23C134.21 220.656 149.977 185.97 152.383 182.627C164.244 166.146 182.875 148.185 205.265 149.803C234.948 151.954 254.101 182.797 265.248 206.581C283.187 244.845 289.501 278.999 327.445 299.867C353.38 314.133 381.114 325.227 408.114 337.279" stroke="#933A21" stroke-miterlimit="10"/>
<path d="M95.3496 209.096C115.003 225.045 112.203 233.69 136.137 210.949C150.062 197.715 167.501 182.15 188.145 181.522C215.337 180.691 233.776 202.985 247.5 223.267C260.18 242.005 268.399 266.854 284.752 282.77C292.833 290.638 305.247 296.004 314.829 301.583C340.721 316.669 368.179 328.221 395.498 340.411" stroke="#933A21" stroke-miterlimit="10"/>
<path d="M81.7744 212.001C96.0621 223.808 100.566 240.63 123.072 232.241C141.065 225.544 154.118 213.013 174.24 211.448C199.121 209.51 216.028 223.979 231.827 240.939C245.796 255.929 255.047 273.209 271.763 285.463C281.014 292.245 292.342 297.376 302.18 303.253C328.2 318.797 355.189 331.2 382.86 343.55" stroke="#933A21" stroke-miterlimit="10"/>
<path d="M69.0947 215.078C83.9148 226.992 90.324 240.343 111.713 243.696C128.29 246.294 146.517 237.159 162.902 236.244C185.472 234.977 201.815 243.483 218.881 257.132C232.765 268.226 243.72 279.16 259.094 288.071C269.144 293.895 279.503 299.165 289.511 305.127C315.733 320.767 342.286 334.224 370.191 346.681" stroke="#933A21" stroke-miterlimit="10"/>
<path d="M57.3198 218.316C74.6524 230.741 81.1149 240.152 103.207 247.104C138.787 258.315 174.017 250.384 207.66 269.739C256.379 297.771 306.056 326.9 357.521 349.833" stroke="#933A21" stroke-miterlimit="10"/>
<path d="M46.3325 221.679C64.7511 233.88 74.1627 243.856 96.5631 250.638C129.876 260.731 164.946 264.542 197.131 277.904C248.362 299.176 294.483 330.061 344.852 352.983" stroke="#933A21" stroke-miterlimit="10"/>
<path d="M35.8779 225.151C55.4463 236.98 68.1264 247.69 90.8355 254.429C122.605 263.862 155.098 270.474 186.176 282.26C237.119 301.594 282.857 333.161 332.151 356.115" stroke="#933A21" stroke-miterlimit="10"/>
<path d="M25.6138 228.664C45.3312 239.513 60.3003 250.617 82.2535 257.452C112.884 266.992 144.632 272.379 174.219 285.155C224.119 306.703 270.325 336.12 319.459 359.234" stroke="#933A21" stroke-miterlimit="10"/>
<path d="M15.0405 232.113C36.0782 242.674 53.6663 254.428 76.4074 261.572C104.93 270.536 134.176 275.987 161.516 288.359C211.023 310.738 257.57 339.27 306.757 362.363" stroke="#933A21" stroke-miterlimit="10"/>
<path d="M468.159 294.789L293.986 336.71L157.743 267.341L138.779 258.685L111.829 249.203L56.4336 232.905L4.53125 206.455L77.8932 183.498L141.773 171.521C142.272 170.024 146.364 162.338 158.741 143.574C177.206 108.639 223.619 51.7465 262.047 59.2324C292.789 65.2211 319.106 106.31 328.422 126.107L393.799 111.135L417.254 120.118L460.174 141.078L505.089 160.542L530.541 175.514L550.504 188.988L575.457 209.45L597.415 224.421L613.884 230.909L634.346 234.403L671.775 235.9L684.751 240.391L621.869 256.361L588.931 294.789L564.976 315.578L547.01 326.058L531.539 330.721H512.575L495.108 319.742L468.159 294.789Z" fill="#F9EE8F"/>
<path d="M3.5332 206.467C34.4615 197.534 64.3252 186.44 95.9881 180.021C130.366 173.047 164.701 167.362 198.813 159.079C263.64 143.343 328.594 124.137 394.06 111.691C422.529 119.878 445.196 134.294 472.057 146.154C498.226 157.716 521.926 168.16 545.007 185.333C566.95 201.654 591.16 225.758 618.501 231.954C641.21 237.107 661.002 231.199 684.392 239.961C555.271 275.307 424.02 304.234 294.068 336.589C244.785 313.741 198.227 285.39 148.827 262.872C123.307 251.246 96.3394 245.412 69.7336 236.831C46.0982 229.208 25.8271 217.134 3.5545 206.467H3.5332Z" stroke="#725F00" stroke-miterlimit="10"/>
<path d="M284.623 332.247C349.578 315.819 414.746 300.169 479.785 284.082C544.793 267.995 612.378 259.03 675.32 236.396" stroke="#725F00" stroke-miterlimit="10"/>
<path d="M275.202 327.74C340.029 310.983 405.356 295.95 470.375 279.874C499.717 272.623 529.154 263.35 559.337 260.806C598.826 257.484 630.872 250.915 666.953 233.934" stroke="#725F00" stroke-miterlimit="10"/>
<path d="M265.768 323.122C330.382 305.853 395.986 291.735 460.941 275.691C492.466 267.898 520.594 261.808 553.247 262.127C594.194 262.532 624.377 254.025 659.223 232.573" stroke="#725F00" stroke-miterlimit="10"/>
<path d="M256.357 318.438C320.641 300.402 386.66 287.531 451.53 271.508C484.875 263.278 511.566 263.363 545.742 266.248C589.361 269.921 618.564 259.115 652.037 232.083" stroke="#725F00" stroke-miterlimit="10"/>
<path d="M246.935 313.605C310.964 295.208 377.249 282.847 442.108 267.314C477.476 258.85 507.765 268.666 543.048 273.127C587.977 278.801 615.275 263.896 645.117 232.031" stroke="#725F00" stroke-miterlimit="10"/>
<path d="M237.534 308.706C272.285 298.645 307.088 292.577 342.414 285.135C372.49 278.8 402.364 267.706 432.76 263.267C469.853 257.848 505.572 276.969 541.718 282.217C589.063 289.085 611.463 267.28 638.569 232.551" stroke="#725F00" stroke-miterlimit="10"/>
<path d="M228.123 303.757C262.118 293.845 295.484 286.861 330.288 280.824C360.918 275.511 394.156 260.393 425.372 262.48C466.873 265.259 503.742 288.575 544.88 293.281C591.31 298.593 609.015 267.505 632.288 233.511" stroke="#725F00" stroke-miterlimit="10"/>
<path d="M218.721 298.773C253.78 288.531 287.583 280.791 323.633 275.244C355.189 270.389 387.597 255.537 419.686 262.755C461.57 272.178 498.258 298.847 541.515 303.83C590.915 309.526 604.415 269.729 625.293 233.318" stroke="#725F00" stroke-miterlimit="10"/>
<path d="M209.321 293.779C244.348 283.559 278.034 274.615 314.232 269.824C348.28 265.332 381.135 251.204 415.183 262.574C458.547 277.054 493.68 311.421 541.121 314.487C590.117 317.649 599.507 266.918 617.383 231.635" stroke="#725F00" stroke-miterlimit="10"/>
<path d="M199.931 288.797C234.799 278.683 268.719 268.537 304.843 264.257C340.178 260.073 376.643 246.509 411.085 260.381C455.13 278.129 489.22 324.186 539.685 323.388C585.603 322.653 592.886 261.233 608.472 228.261" stroke="#725F00" stroke-miterlimit="10"/>
<path d="M190.541 283.847C225.248 273.882 259.541 263.129 295.463 258.668C330.415 254.324 373.513 241.399 406.89 255.559C431.015 265.791 451.403 283.9 471.738 299.955C490.348 314.648 510.811 333.066 536.32 329.116C576.83 322.856 584.208 253.898 598.528 223.172" stroke="#725F00" stroke-miterlimit="10"/>
<path d="M181.15 278.939C216.252 269.006 251.769 260.638 286.86 250.918C305.779 245.679 322.26 245.349 341.86 245.605C362.855 245.882 381.88 240.367 402.279 248.384C426.788 258.019 447.229 277.502 466.648 294.622C482.054 308.196 506.286 337.251 529.964 329.936C547.541 324.507 555.217 303.661 560.945 287.893C569.707 263.757 576.319 239.611 587.562 216.433" stroke="#725F00" stroke-miterlimit="10"/>
<path d="M171.771 274.105C207.735 264.118 242.411 256.964 275.372 239.61C295.356 229.091 312.955 227.196 334.78 231.891C355.115 236.256 377.963 234.542 397.276 240.323C422.434 247.861 442.321 268.004 461.027 285.486C475.315 298.837 499.717 333.566 522.373 323.931C536.288 318.011 543.432 293.268 547.818 280.652C556.431 255.846 563.373 231.604 575.787 208.32" stroke="#725F00" stroke-miterlimit="10"/>
<path d="M162.391 269.368C181.033 264.311 200.612 260.797 218.796 254.313C236.97 247.83 250.683 234.181 266.014 222.917C286.445 207.905 304.384 203.061 328.573 211.844C338.528 215.454 347.694 221.043 357.415 225.153C369.041 230.071 379.538 229.613 391.675 231.998C415.939 236.768 433.538 253.217 451.03 269.932C463.433 281.782 488.325 317.533 508.926 311.784C523.043 307.844 529.623 280.302 533.658 268.686C542.122 244.348 549.692 221.235 563.351 199.218" stroke="#725F00" stroke-miterlimit="10"/>
<path d="M153.012 264.822C169.205 260.479 188.71 258.371 203.764 250.854C225.483 240.005 240.133 215.007 258.349 199.314C277.619 182.705 294.579 175.295 319.098 185.42C342.499 195.087 360.258 220.224 385.629 224.898C409.104 229.22 422.21 235.725 440.342 252.781C451.552 263.332 472.728 292.695 490.285 292.663C509.81 292.621 514.495 264.067 520.074 249.31C528.25 227.698 536.618 208.129 550.693 189.626" stroke="#725F00" stroke-miterlimit="10"/>
<path d="M143.643 260.552C159.133 256.283 178.127 254.75 191.446 245.2C213.878 229.113 226.058 197.802 244.966 177.743C263.8 157.76 282.538 143.259 309.9 155.109C338.528 167.512 352.06 198.738 378.176 213.803C386.395 218.552 393.582 216.22 401.63 218.754C410.818 221.639 419.048 228.389 426.309 234.404C438.468 244.487 455.704 268.005 472.515 270.166C492.605 272.764 497.269 248.522 503.795 233.776C512.802 213.431 522.288 196.055 538.119 180.203" stroke="#725F00" stroke-miterlimit="10"/>
<path d="M134.273 256.56C149.444 252.163 167.032 250.193 178.999 239.217C199.43 220.457 209.225 187.89 224.833 165.33C240.249 143.046 265.503 110.947 296.516 121.37C329.222 132.357 346.832 172.612 368.455 195.779C383.03 211.387 395.902 209.364 413 219.808C426.362 227.963 439.925 245.392 456.151 247.393C473.76 249.576 478.945 232.509 486.206 219.276C496.863 199.846 507.872 184.685 526.141 171.803" stroke="#725F00" stroke-miterlimit="10"/>
<path d="M124.212 252.844C137.404 248.298 153.948 245.477 164.275 235.671C184.94 216.039 194.001 178.968 207.98 154.715C222.001 130.366 249.044 84.9799 283.368 91.7937C317.661 98.5969 340.285 148.029 356.116 173.41C369.02 194.107 376.536 200.921 398.085 207.415C412 211.61 423.051 224.354 437.733 226.228C454.576 228.368 460.878 215.581 469.641 203.338C482.342 185.601 495.139 173.985 515.368 165.34" stroke="#725F00" stroke-miterlimit="10"/>
<path d="M112.65 249.267C123.68 244.838 139.469 240.973 148.667 233.169C169.609 215.389 178.552 174.741 190.519 151.116C204.37 123.776 231.093 69.6806 268.303 69.606C304.384 69.5315 328.169 126.427 341.796 150.893C352.262 169.662 361.758 193.564 383.435 199.047C394.561 201.868 408.422 207.149 419.974 207.947C435.88 209.044 443.737 199.558 454.032 188.922C469.278 173.165 484.694 166.351 505.988 161.145" stroke="#725F00" stroke-miterlimit="10"/>
<path d="M100.417 245.775C110.457 241.133 123.477 236.662 132.453 230.22C153.756 214.921 162.455 176.849 173.069 154.438C188.539 121.753 210.513 71.2034 249.384 60.6953C286.817 50.5704 313.317 108.062 326.529 132.017C335.451 148.189 348.929 186.229 368.849 191.744C377.995 194.278 393.507 193.671 403.323 193.362C418.356 192.883 428.012 185.473 440.117 177.403C457.78 165.628 476.135 162.019 496.64 157.015" stroke="#725F00" stroke-miterlimit="10"/>
<path d="M88.1934 242.347C97.4559 237.503 107.219 232.34 115.906 226.527C139.18 210.972 148.219 180.885 160.026 156.046C176.422 121.583 194.893 81.0519 232.699 66.5193C271.57 51.5822 293.832 89.6969 311.133 119.092C321.62 136.904 334.076 173.113 353.282 183.823C362.715 189.083 375.449 184.483 385.861 182.897C401.788 180.469 414.713 173.815 429.597 168.151C448.016 161.135 468.138 157.558 487.28 152.884" stroke="#725F00" stroke-miterlimit="10"/>
<path d="M76.4941 238.949C85.1924 233.935 93.0709 227.696 101.716 222.628C124.233 209.426 132.815 192.786 144.92 169.331C161.464 137.264 182.438 98.915 215.656 81.6463C252.131 62.6848 274.712 82.6258 295.771 113.149C308.824 132.079 319.779 161.772 338.783 175.73C350.856 184.588 359.022 179.35 372.086 175.773C407.251 166.127 442.523 157.397 477.955 148.741" stroke="#725F00" stroke-miterlimit="10"/>
<path d="M65.6777 235.585C90.7611 220.052 116.952 207.01 133.582 182.406C165.234 135.582 223.385 48.291 281.026 114.726C295.74 131.675 306.546 156.258 324.815 169.79C337.975 179.542 345.683 175.464 359.864 171.184C396.179 160.208 432.005 153.564 468.629 144.632" stroke="#725F00" stroke-miterlimit="10"/>
<path d="M55.9463 232.211C64.0803 227.058 71.107 220.287 79.2942 215.261C95.0725 205.584 110.947 204.104 125.096 191.36C162.891 157.323 207.096 75.5785 267.228 123.073C283.261 135.732 294.057 155.907 311.624 166.596C325.145 174.826 334.887 171.504 349.078 167.575C367.689 162.433 383.329 154.076 401.055 146.921C420.123 139.213 439.447 144.11 459.292 140.512" stroke="#725F00" stroke-miterlimit="10"/>
<path d="M47.354 228.805C55.7435 223.63 62.9938 216.731 71.4472 211.738C86.1927 203.04 103.355 202.657 118.367 195.257C164.019 172.761 194.138 105.475 254.121 136.03C269.985 144.111 282.665 159.57 299.358 165.819C313.455 171.1 325.496 166.937 339.443 163.307C360.14 157.92 373.32 147.571 391.718 137.659C411.211 127.151 428.981 135.658 449.954 136.201" stroke="#725F00" stroke-miterlimit="10"/>
<path d="M39.8174 225.345C48.9096 220.192 56.8945 213.261 66.1038 208.331C81.1793 200.272 97.4792 198.569 113.715 194.48C158.953 183.11 190.073 130.654 241.996 148.626C257.21 153.896 271.753 164.233 288.085 166.171C302.16 167.832 316.596 162.477 330.118 159.176C352.071 153.81 364.325 145.176 382.392 132.134C402.408 117.687 417.845 126.672 440.629 130.441" stroke="#725F00" stroke-miterlimit="10"/>
<path d="M33.0562 221.809C59.3638 208.575 80.8806 196.864 110.659 191.519C151.915 184.109 188.965 151.169 232.243 158.888C248.128 161.72 261.223 167.426 277.725 165.361C292.098 163.562 306.716 158.473 320.78 155.044C341.487 150.008 356.19 145.196 373.055 131.888C394.252 115.162 405.75 119.708 431.291 124.616" stroke="#725F00" stroke-miterlimit="10"/>
<path d="M26.7007 218.179C54.3392 206.254 78.0172 194.021 108.296 188.57C127.641 185.089 146.251 182.853 165 176.689C184.877 170.152 202.88 164.775 224.067 165.105C254.686 165.585 281.782 158.132 311.475 150.903C329.606 146.495 347.982 143.674 363.75 133.592C386.491 119.048 394.614 116.248 421.987 119.964" stroke="#725F00" stroke-miterlimit="10"/>
<path d="M19.8545 214.399C47.5995 203.582 72.9383 191.902 102.504 186.217C140.267 178.956 178.51 172.323 216.465 166.436C246.243 161.815 275.596 153.224 304.885 146.112C320.727 142.258 337.612 139.607 352.784 133.623C375.589 124.616 386.917 116.184 412.681 116.823" stroke="#725F00" stroke-miterlimit="10"/>
<path d="M12.0503 210.492C41.3177 200.505 69.1798 189.209 99.6929 183.194C135.891 176.061 172.207 171.898 208.118 163.221C237.279 156.173 266.418 149.061 295.569 141.981C331.086 133.358 367.284 117.888 403.365 114.566" stroke="#725F00" stroke-miterlimit="10"/>
<path d="M381.583 114.056C398.138 116.675 411.169 117.888 425.564 126.906C437.349 134.295 446.889 143.057 459.579 149.189C488.432 163.136 511.311 174.667 536.597 195.065C557.326 211.791 584.41 241.112 611.932 244.721C633.406 247.542 649.269 236.651 672.085 243.305" stroke="#725F00" stroke-miterlimit="10"/>
<path d="M369.084 116.951C385.618 117.856 398.319 115.002 413.065 123.615C425.82 131.057 434.379 143.78 447.081 151.509C459.26 158.919 473.08 162.71 485.121 170.503C500.931 180.734 514.931 194.245 529.155 206.456C548.362 222.937 578.726 257.528 605.757 258.209C626.667 258.731 636.43 238.407 659.831 246.817" stroke="#725F00" stroke-miterlimit="10"/>
<path d="M356.595 120.699C372.075 122.796 386.491 115.972 400.576 121.785C414.587 127.566 422.391 144.334 434.592 153.171C447.421 162.476 462.071 167.331 474.815 177.147C491.594 190.061 506.85 205.073 522.565 219.212C539.269 234.234 574.669 275.447 599.699 271.859C620.024 268.942 621.642 241.676 647.513 250.182" stroke="#725F00" stroke-miterlimit="10"/>
<path d="M344.084 123.816C361.321 130.29 372.234 122.113 388.066 125.861C402.63 129.299 410.445 146.813 422.081 155.692C436.113 166.413 451.679 173.653 465.413 185.311C483.171 200.386 499.556 217.144 516.58 233.008C530.378 245.858 571.453 293.31 593.353 285.069C611.931 278.074 605.884 243.867 635.013 253.289" stroke="#725F00" stroke-miterlimit="10"/>
<path d="M331.576 126.864C339.869 131.027 348.472 134.38 357.404 136.925C363.452 135.551 369.499 135.306 375.567 136.19C390.238 139.054 397.936 150.968 409.583 159.666C446.165 186.985 477.764 215.656 510.939 247.34C523.246 259.094 566.045 308.654 585.954 296.517C601.711 286.914 590.16 244.743 622.366 256.113" stroke="#725F00" stroke-miterlimit="10"/>
<path d="M319.056 129.897C346.109 141.885 372.427 148.135 397.18 164.126C438.713 190.966 469.928 227.324 505.232 261.616C517.668 273.689 559.019 322.163 576.767 305.086C588.627 293.684 575.958 244.422 609.569 258.763" stroke="#725F00" stroke-miterlimit="10"/>
<path d="M306.523 132.942C332.565 144.483 359.991 154.522 385.148 167.895C432.174 192.882 462.389 237.906 499.035 275.063C511.129 287.328 551.31 335.109 565.81 310.761C573.465 297.91 562.52 242.889 596.856 261.574" stroke="#725F00" stroke-miterlimit="10"/>
<path d="M293.994 135.977C320.398 147.678 347.376 158.516 373.567 170.642C423.382 193.703 456.046 242.134 490.903 282.442C499.771 292.705 521.075 320.354 536.885 324.581C550.215 328.148 549.576 324.262 553.025 313.413C560.265 290.672 544.806 250.715 584.369 264.716" stroke="#725F00" stroke-miterlimit="10"/>
<path d="M281.451 139.022C308.429 150.989 335.301 162.551 362.673 173.453C414.086 193.927 447.335 240.143 480.574 282.229C489.825 293.951 532.987 358.757 538.416 313.104C541.653 285.934 531.933 250.779 571.825 267.814" stroke="#725F00" stroke-miterlimit="10"/>
<path d="M268.899 142.067C296.591 154.354 323.888 167.364 352.602 176.967C404.771 194.417 435.816 232.148 468.171 275.245C472.068 280.441 500.728 328.435 512.003 329.607C523.767 330.831 521.627 318.523 522.128 310.017C522.745 299.605 518.497 282.229 523.725 272.371C532.721 255.411 544.443 264.333 559.284 270.923" stroke="#725F00" stroke-miterlimit="10"/>
<path d="M256.335 145.122C285.102 157.887 313.284 168.3 342.935 178.637C393.24 196.172 422.028 219.882 453.957 263.15C459.93 271.241 482.32 313.625 494.425 318.384C506.211 323.015 504.124 314.977 504.315 304.49C504.465 296.261 500.983 276.266 507.147 268.867C518.273 255.527 533.807 268.292 546.721 274.02" stroke="#725F00" stroke-miterlimit="10"/>
<path d="M243.773 148.167C258.412 154.672 272.892 162.647 288.5 165.894C303.767 169.066 317.884 168.747 332.832 174.379C375.461 190.466 410.776 211.685 438.446 248.341C448.283 261.372 461.208 290.703 474.644 301.286C484.716 309.218 483.066 307.376 485.302 296.932C486.909 289.415 482.853 271.391 490.614 265.428C501.846 256.794 523.64 272.455 534.159 277.14" stroke="#725F00" stroke-miterlimit="10"/>
<path d="M231.2 151.222C246.797 158.153 259.434 165.339 276.384 164.424C293.291 163.519 304.597 158.163 321.802 163.604C344.192 170.673 359.746 189.017 379.464 200.76C396.041 210.63 409.551 218.199 422.274 233.914C434.379 248.872 441.629 267.791 453.809 282.473C462.529 292.981 459.249 292.3 465.446 286.795C471.067 281.791 465.094 267.919 474.612 262.883C484.471 257.666 512.759 276.33 521.606 280.258" stroke="#725F00" stroke-miterlimit="10"/>
<path d="M218.614 154.279C236.692 162.317 245.06 167.843 263.49 160.71C280.801 154.013 289.329 143.43 309.44 147.029C334.364 151.479 351.633 174.572 368.113 191.734C379.952 204.073 394.698 212.079 406.356 224.291C413.872 232.159 435.698 280.303 445.525 275.927C451.923 273.084 449.762 262.778 459.706 262.171C472.886 261.373 497.075 278.067 509.021 283.369" stroke="#725F00" stroke-miterlimit="10"/>
<path d="M206.03 157.334C225.652 166.053 231.454 167.32 248.925 154.789C264.81 143.397 274.115 126.959 295.408 126.682C340.294 126.086 364.867 193.607 391.249 221.969C401.736 233.244 411.871 263.076 426.276 266.685C431.354 267.952 439.382 262.65 446.515 264.3C463.081 268.122 480.882 279.578 496.426 286.498" stroke="#725F00" stroke-miterlimit="10"/>
<path d="M193.436 160.391C214.378 169.845 217.7 165.107 232.307 149.276C246.158 134.275 258.135 110.895 279.418 105.859C331.565 93.4986 357.17 183.175 375.567 217.297C382.583 230.318 394.699 254.027 408.199 260.501C415.715 264.099 425.787 263.929 433.932 267.4C450.679 274.543 467.213 282.209 483.843 289.608" stroke="#725F00" stroke-miterlimit="10"/>
<path d="M180.831 163.446C200.91 173.145 203.689 164.351 214.879 147.87C228.293 128.131 238.152 101.025 260.648 89.4204C318.374 59.6313 344.884 166.267 358.171 203.86C365.464 224.493 372.118 245.51 391.559 257.87C414.832 272.669 446.112 281.527 471.259 292.716" stroke="#725F00" stroke-miterlimit="10"/>
<path d="M167.971 166.735C182.801 182.609 190.946 161.891 196.919 151.34C210.227 127.832 219.021 103.707 237.802 83.6066C296.528 20.7387 328.489 151.106 339.689 187.954C347.887 214.921 350.975 243.028 376.409 258.54C401.578 273.893 431.814 283.89 458.644 295.835" stroke="#725F00" stroke-miterlimit="10"/>
<path d="M154.374 169.354C167.224 184.366 172.973 169.961 178.701 159.346C191.136 136.296 198.567 111.767 213.686 89.9839C231.412 64.4322 258.912 44.3634 282.058 77.3358C301.765 105.411 311.091 142.322 320.726 174.518C329.797 204.818 332.587 245.317 362.684 261.532C389.29 275.852 418.473 286.69 446.036 298.965" stroke="#725F00" stroke-miterlimit="10"/>
<path d="M139.64 172.058C152.352 179.628 151.883 183.407 160.454 170.429C173.208 151.105 178.851 126.576 190.637 106.337C203.657 83.9895 231.562 50.3358 260.052 77.0586C282.974 98.5647 292.652 138.894 301.766 167.097C312.327 199.782 316.192 248.287 349.931 264.885C377.186 278.289 405.655 289.724 433.4 302.095" stroke="#725F00" stroke-miterlimit="10"/>
<path d="M124.595 174.699C134.549 181.183 134.645 188.54 144.206 180.087C157.141 168.642 163.263 138.948 171.993 124.597C183.832 105.145 200.654 86.514 226.312 92.0608C260.211 99.3857 272.689 139.896 283.016 167.726C297.325 206.309 301.477 248.938 340.113 268.89C366.219 282.368 393.974 293.27 420.783 305.226" stroke="#725F00" stroke-miterlimit="10"/>
<path d="M109.701 177.37C114.45 180.766 120.135 190.944 126.374 191.285C134.21 191.711 149.977 157.024 152.383 153.681C164.244 137.2 182.875 119.24 205.265 120.858C234.948 123.009 254.101 153.852 265.248 177.636C283.187 215.9 289.501 250.054 327.445 270.921C353.38 285.188 381.114 296.281 408.114 308.333" stroke="#725F00" stroke-miterlimit="10"/>
<path d="M95.3496 180.151C115.003 196.099 112.203 204.744 136.137 182.003C150.062 168.769 167.501 153.204 188.145 152.576C215.337 151.746 233.776 174.039 247.5 194.321C260.18 213.059 268.399 237.908 284.752 253.825C292.833 261.693 305.247 267.058 314.829 272.637C340.721 287.723 368.179 299.275 395.498 311.465" stroke="#725F00" stroke-miterlimit="10"/>
<path d="M81.7744 183.056C96.0621 194.863 100.566 211.684 123.072 203.295C141.065 196.598 154.118 184.067 174.24 182.502C199.121 180.564 216.028 195.033 231.827 211.993C245.796 226.983 255.047 244.263 271.763 256.517C281.014 263.299 292.342 268.43 302.18 274.307C328.2 289.851 355.189 302.255 382.86 314.605" stroke="#725F00" stroke-miterlimit="10"/>
<path d="M69.0947 186.133C83.9148 198.046 90.324 211.397 111.713 214.751C128.29 217.349 146.517 208.214 162.902 207.298C185.472 206.031 201.815 214.538 218.881 228.187C232.765 239.28 243.72 250.214 259.094 259.126C269.144 264.949 279.503 270.219 289.511 276.181C315.733 291.821 342.286 305.278 370.191 317.735" stroke="#725F00" stroke-miterlimit="10"/>
<path d="M57.3198 189.371C74.6524 201.795 81.1149 211.207 103.207 218.159C138.787 229.37 174.017 221.438 207.66 240.794C256.379 268.826 306.056 297.955 357.521 320.888" stroke="#725F00" stroke-miterlimit="10"/>
<path d="M46.3325 192.734C64.7511 204.935 74.1627 214.911 96.5631 221.693C129.876 231.785 164.946 235.597 197.131 248.958C248.362 270.23 294.483 301.116 344.852 324.038" stroke="#725F00" stroke-miterlimit="10"/>
<path d="M35.8779 196.206C55.4463 208.034 68.1264 218.745 90.8355 225.484C122.605 234.917 155.098 241.528 186.176 253.314C237.119 272.648 282.857 304.215 332.151 327.169" stroke="#725F00" stroke-miterlimit="10"/>
<path d="M25.6138 199.719C45.3312 210.568 60.3003 221.672 82.2535 228.507C112.884 238.046 144.632 243.434 174.219 256.209C224.119 277.758 270.325 307.175 319.459 330.288" stroke="#725F00" stroke-miterlimit="10"/>
<path d="M15.0405 203.167C36.0782 213.729 53.6663 225.482 76.4074 232.626C104.93 241.591 134.176 247.042 161.516 259.413C211.023 281.792 257.57 310.325 306.757 333.417" stroke="#725F00" stroke-miterlimit="10"/>
<path d="M468.159 265.843L293.986 307.765L157.743 238.395L138.28 229.24L111.33 220.257L56.4336 203.96L4.53125 177.51L77.8932 154.553L141.773 142.575C142.272 141.078 146.364 133.393 158.741 114.628C177.206 79.6939 223.619 22.8009 262.047 30.2869C292.789 36.2756 319.106 77.3649 328.422 97.161L393.799 82.1892L417.254 91.1722L460.174 112.133L505.089 131.596L530.541 146.568L550.504 160.043L575.457 180.504L597.415 195.476L613.884 201.964L634.346 205.457L671.775 206.954L684.751 211.446L621.869 227.416L588.931 265.843L564.976 286.632L547.01 297.112L531.539 301.776H512.575L495.108 290.797L468.159 265.843Z" fill="#9F93F2"/>
<path d="M3.5332 177.521C34.4615 168.589 64.3252 157.495 95.9881 151.075C130.366 144.101 164.701 138.416 198.813 130.133C263.64 114.398 328.594 95.1912 394.06 82.7454C422.529 90.9326 445.196 105.348 472.057 117.208C498.226 128.77 521.926 139.215 545.007 156.388C566.95 172.709 591.16 196.813 618.501 203.009C641.21 208.162 661.002 202.253 684.392 211.015C555.271 246.362 424.02 275.288 294.068 307.643C244.785 284.796 198.227 256.444 148.827 233.927C123.307 222.3 96.3394 216.466 69.7336 207.885C46.0982 200.262 25.8271 188.189 3.5545 177.521H3.5332Z" stroke="#4D2CAB" stroke-miterlimit="10"/>
<path d="M284.623 303.301C349.578 286.874 414.746 271.223 479.785 255.136C544.793 239.049 612.378 230.085 675.32 207.45" stroke="#4D2CAB" stroke-miterlimit="10"/>
<path d="M275.202 298.795C340.029 282.037 405.356 267.004 470.375 250.928C499.717 243.678 529.154 234.404 559.337 231.86C598.826 228.538 630.872 221.969 666.953 204.988" stroke="#4D2CAB" stroke-miterlimit="10"/>
<path d="M265.768 294.176C330.382 276.907 395.986 262.79 460.941 246.746C492.466 238.952 520.594 232.863 553.247 233.182C594.194 233.587 624.377 225.08 659.223 203.627" stroke="#4D2CAB" stroke-miterlimit="10"/>
<path d="M256.357 289.492C320.641 271.457 386.66 258.585 451.53 242.562C484.875 234.332 511.566 234.418 545.742 237.303C589.361 240.976 618.564 230.17 652.037 203.138" stroke="#4D2CAB" stroke-miterlimit="10"/>
<path d="M246.935 284.659C310.964 266.262 377.249 253.901 442.108 238.368C477.476 229.904 507.765 239.72 543.048 244.181C587.977 249.856 615.275 234.95 645.117 203.085" stroke="#4D2CAB" stroke-miterlimit="10"/>
<path d="M237.534 279.761C272.285 269.7 307.088 263.631 342.414 256.189C372.49 249.854 402.364 238.761 432.76 234.321C469.853 228.902 505.572 248.023 541.718 253.272C589.063 260.139 611.463 238.335 638.569 203.606" stroke="#4D2CAB" stroke-miterlimit="10"/>
<path d="M228.123 274.811C262.118 264.899 295.484 257.915 330.288 251.878C360.918 246.566 394.156 231.447 425.372 233.534C466.873 236.313 503.742 259.629 544.88 264.335C591.31 269.647 609.015 238.559 632.288 204.565" stroke="#4D2CAB" stroke-miterlimit="10"/>
<path d="M218.721 269.827C253.78 259.585 287.583 251.845 323.633 246.298C355.189 241.443 387.597 226.591 419.686 233.81C461.57 243.232 498.258 269.902 541.515 274.884C590.915 280.58 604.415 240.783 625.293 204.372" stroke="#4D2CAB" stroke-miterlimit="10"/>
<path d="M209.321 264.834C244.348 254.613 278.034 245.67 314.232 240.879C348.28 236.386 381.135 222.258 415.183 233.629C458.547 248.108 493.68 282.475 541.121 285.541C590.117 288.703 599.507 237.972 617.383 202.69" stroke="#4D2CAB" stroke-miterlimit="10"/>
<path d="M199.931 259.852C234.799 249.737 268.719 239.591 304.843 235.311C340.178 231.127 376.643 217.563 411.085 231.436C455.13 249.184 489.22 295.241 539.685 294.442C585.603 293.708 592.886 232.288 608.472 199.315" stroke="#4D2CAB" stroke-miterlimit="10"/>
<path d="M190.541 254.902C225.248 244.937 259.541 234.184 295.463 229.723C330.415 225.379 373.513 212.454 406.89 226.614C431.015 236.845 451.403 254.955 471.738 271.01C490.348 285.702 510.811 304.121 536.32 300.171C576.83 293.911 584.208 224.953 598.528 194.227" stroke="#4D2CAB" stroke-miterlimit="10"/>
<path d="M181.15 249.994C216.252 240.061 251.769 231.693 286.86 221.972C305.779 216.734 322.26 216.404 341.86 216.66C362.855 216.936 381.88 211.422 402.279 219.438C426.788 229.074 447.229 248.557 466.648 265.676C482.054 279.251 506.286 308.305 529.964 300.991C547.541 295.561 555.217 274.715 560.945 258.948C569.707 234.812 576.319 210.666 587.562 187.488" stroke="#4D2CAB" stroke-miterlimit="10"/>
<path d="M171.771 245.159C207.735 235.173 242.411 228.018 275.372 210.664C295.356 200.145 312.955 198.25 334.78 202.946C355.115 207.311 377.963 205.597 397.276 211.378C422.434 218.915 442.321 239.059 461.027 256.54C475.315 269.891 499.717 304.62 522.373 294.985C536.288 289.066 543.432 264.323 547.818 251.707C556.431 226.9 563.373 202.658 575.787 179.374" stroke="#4D2CAB" stroke-miterlimit="10"/>
<path d="M162.391 240.422C181.033 235.365 200.612 231.852 218.796 225.368C236.97 218.884 250.683 205.236 266.014 193.971C286.445 178.96 304.384 174.116 328.573 182.899C338.528 186.508 347.694 192.098 357.415 196.207C369.041 201.126 379.538 200.668 391.675 203.053C415.939 207.823 433.538 224.272 451.03 240.987C463.433 252.836 488.325 288.587 508.926 282.838C523.043 278.899 529.623 251.356 533.658 239.741C542.122 215.403 549.692 192.289 563.351 170.272" stroke="#4D2CAB" stroke-miterlimit="10"/>
<path d="M153.012 235.877C169.205 231.533 188.71 229.425 203.764 221.908C225.483 211.059 240.133 186.061 258.349 170.368C277.619 153.76 294.579 146.35 319.098 156.475C342.499 166.142 360.258 191.278 385.629 195.952C409.104 200.275 422.21 206.78 440.342 223.835C451.552 234.386 472.728 263.749 490.285 263.717C509.81 263.675 514.495 235.121 520.074 220.365C528.25 198.752 536.618 179.184 550.693 160.68" stroke="#4D2CAB" stroke-miterlimit="10"/>
<path d="M143.643 231.607C159.133 227.338 178.127 225.804 191.446 216.254C213.878 200.167 226.058 168.856 244.966 148.798C263.8 128.814 282.538 114.314 309.9 126.163C338.528 138.566 352.06 169.793 378.176 184.858C386.395 189.606 393.582 187.275 401.63 189.808C410.818 192.694 419.048 199.444 426.309 205.459C438.468 215.541 455.704 239.059 472.515 241.221C492.605 243.818 497.269 219.576 503.795 204.831C512.802 184.485 522.288 167.11 538.119 151.257" stroke="#4D2CAB" stroke-miterlimit="10"/>
<path d="M134.273 227.614C149.444 223.217 167.032 221.248 178.999 210.271C199.43 191.512 209.225 158.944 224.833 136.384C240.249 114.101 265.503 82.0013 296.516 92.4243C329.222 103.412 346.832 143.666 368.455 166.833C383.03 182.441 395.902 180.418 413 190.862C426.362 199.018 439.925 216.446 456.151 218.448C473.76 220.63 478.945 203.564 486.206 190.33C496.863 170.9 507.872 155.739 526.141 142.857" stroke="#4D2CAB" stroke-miterlimit="10"/>
<path d="M124.212 223.899C137.404 219.353 153.948 216.532 164.275 206.726C184.94 187.094 194.001 150.022 207.98 125.77C222.001 101.421 249.044 56.0346 283.368 62.8484C317.661 69.6515 340.285 119.084 356.116 144.465C369.02 165.162 376.536 171.976 398.085 178.47C412 182.665 423.051 195.409 437.733 197.283C454.576 199.422 460.878 186.636 469.641 174.392C482.342 156.655 495.139 145.04 515.368 136.395" stroke="#4D2CAB" stroke-miterlimit="10"/>
<path d="M112.65 220.321C123.68 215.892 139.469 212.028 148.667 204.224C169.609 186.444 178.552 145.796 190.519 122.171C204.37 94.8304 231.093 40.7352 268.303 40.6607C304.384 40.5862 328.169 97.4814 341.796 121.947C352.262 140.717 361.758 164.619 383.435 170.102C394.561 172.923 408.422 178.204 419.974 179.002C435.88 180.099 443.737 170.613 454.032 159.977C469.278 144.22 484.694 137.406 505.988 132.2" stroke="#4D2CAB" stroke-miterlimit="10"/>
<path d="M100.417 216.83C110.457 212.188 123.477 207.716 132.453 201.275C153.756 185.976 162.455 147.904 173.069 125.493C188.539 92.808 210.513 42.2581 249.384 31.75C286.817 21.6251 313.317 79.1165 326.529 103.071C335.451 119.243 348.929 157.284 368.849 162.798C377.995 165.332 393.507 164.726 403.323 164.417C418.356 163.938 428.012 156.528 440.117 148.458C457.78 136.682 476.135 133.073 496.64 128.069" stroke="#4D2CAB" stroke-miterlimit="10"/>
<path d="M88.1934 213.402C97.4559 208.558 107.219 203.394 115.906 197.581C139.18 182.026 148.219 151.939 160.026 127.101C176.422 92.6378 194.893 52.1063 232.699 37.5738C271.57 22.6366 293.832 60.7513 311.133 90.1465C321.62 107.958 334.076 144.167 353.282 154.878C362.715 160.137 375.449 155.538 385.861 153.951C401.788 151.524 414.713 144.87 429.597 139.206C448.016 132.19 468.138 128.613 487.28 123.939" stroke="#4D2CAB" stroke-miterlimit="10"/>
<path d="M76.4941 210.004C85.1924 204.989 93.0709 198.751 101.716 193.683C124.233 180.481 132.815 163.84 144.92 140.386C161.464 108.319 182.438 69.9697 215.656 52.701C252.131 33.7395 274.712 53.6805 295.771 84.2042C308.824 103.134 319.779 132.827 338.783 146.785C350.856 155.643 359.022 150.404 372.086 146.827C407.251 137.181 442.523 128.451 477.955 119.796" stroke="#4D2CAB" stroke-miterlimit="10"/>
<path d="M65.6777 206.64C90.7611 191.107 116.952 178.065 133.582 153.46C165.234 106.637 223.385 19.3456 281.026 85.7802C295.74 102.73 306.546 127.312 324.815 140.844C337.975 150.596 345.683 146.519 359.864 142.239C396.179 131.262 432.005 124.619 468.629 115.686" stroke="#4D2CAB" stroke-miterlimit="10"/>
<path d="M55.9463 203.265C64.0803 198.112 71.107 191.341 79.2942 186.316C95.0725 176.638 110.947 175.158 125.096 162.414C162.891 128.377 207.096 46.633 267.228 94.1273C283.261 106.786 294.057 126.961 311.624 137.65C325.145 145.88 334.887 142.558 349.078 138.63C367.689 133.488 383.329 125.13 401.055 117.976C420.123 110.267 439.447 115.165 459.292 111.566" stroke="#4D2CAB" stroke-miterlimit="10"/>
<path d="M47.354 199.859C55.7435 194.685 62.9938 187.786 71.4472 182.793C86.1927 174.094 103.355 173.711 118.367 166.312C164.019 143.815 194.138 76.5292 254.121 107.085C269.985 115.166 282.665 130.624 299.358 136.874C313.455 142.155 325.496 137.992 339.443 134.361C360.14 128.974 373.32 118.626 391.718 108.714C411.211 98.2056 428.981 106.712 449.954 107.255" stroke="#4D2CAB" stroke-miterlimit="10"/>
<path d="M39.8174 196.399C48.9096 191.246 56.8945 184.315 66.1038 179.386C81.1793 171.327 97.4792 169.623 113.715 165.535C158.953 154.164 190.073 101.709 241.996 119.68C257.21 124.95 271.753 135.288 288.085 137.226C302.16 138.887 316.596 133.531 330.118 130.231C352.071 124.865 364.325 116.231 382.392 103.189C402.408 88.7413 417.845 97.727 440.629 101.496" stroke="#4D2CAB" stroke-miterlimit="10"/>
<path d="M33.0562 192.864C59.3638 179.63 80.8806 167.919 110.659 162.574C151.915 155.164 188.965 122.224 232.243 129.942C248.128 132.774 261.223 138.481 277.725 136.416C292.098 134.616 306.716 129.527 320.78 126.099C341.487 121.063 356.19 116.251 373.055 102.943C394.252 86.217 405.75 90.7631 431.291 95.6711" stroke="#4D2CAB" stroke-miterlimit="10"/>
<path d="M26.7007 189.233C54.3392 177.309 78.0172 165.076 108.296 159.625C127.641 156.143 146.251 153.908 165 147.743C184.877 141.206 202.88 135.83 224.067 136.16C254.686 136.639 281.782 129.186 311.475 121.957C329.606 117.55 347.982 114.728 363.75 104.646C386.491 90.1029 394.614 87.3028 421.987 91.0185" stroke="#4D2CAB" stroke-miterlimit="10"/>
<path d="M19.8545 185.453C47.5995 174.636 72.9383 162.957 102.504 157.272C140.267 150.011 178.51 143.378 216.465 137.491C246.243 132.87 275.596 124.278 304.885 117.166C320.727 113.312 337.612 110.661 352.784 104.678C375.589 95.6709 386.917 87.2388 412.681 87.8776" stroke="#4D2CAB" stroke-miterlimit="10"/>
<path d="M12.0503 181.546C41.3177 171.56 69.1798 160.264 99.6929 154.249C135.891 147.115 172.207 142.953 208.118 134.276C237.279 127.228 266.418 120.116 295.569 113.036C331.086 104.412 367.284 88.9426 403.365 85.6208" stroke="#4D2CAB" stroke-miterlimit="10"/>
<path d="M381.583 85.1101C398.138 87.7292 411.169 88.9429 425.564 97.9605C437.349 105.349 446.889 114.111 459.579 120.244C488.432 134.191 511.311 145.721 536.597 166.12C557.326 182.846 584.41 212.166 611.932 215.775C633.406 218.597 649.269 207.705 672.085 214.359" stroke="#4D2CAB" stroke-miterlimit="10"/>
<path d="M369.084 88.0051C385.618 88.9101 398.319 86.0568 413.065 94.6699C425.82 102.112 434.379 114.834 447.081 122.564C459.26 129.974 473.08 133.764 485.121 141.557C500.931 151.789 514.931 165.299 529.155 177.511C548.362 193.992 578.726 228.582 605.757 229.264C626.667 229.785 636.43 209.461 659.831 217.872" stroke="#4D2CAB" stroke-miterlimit="10"/>
<path d="M356.595 91.7534C372.075 93.8508 386.491 87.0264 400.576 92.8394C414.587 98.6205 422.391 115.389 434.592 124.225C447.421 133.531 462.071 138.385 474.815 148.202C491.594 161.116 506.85 176.127 522.565 190.266C539.269 205.288 574.669 246.501 599.699 242.913C620.024 239.996 621.642 212.73 647.513 221.237" stroke="#4D2CAB" stroke-miterlimit="10"/>
<path d="M344.084 94.8711C361.321 101.344 372.234 93.1676 388.066 96.9152C402.63 100.354 410.445 117.868 422.081 126.747C436.113 137.468 451.679 144.708 465.413 156.366C483.171 171.441 499.556 188.199 516.58 204.062C530.378 216.913 571.453 264.364 593.353 256.124C611.931 249.129 605.884 214.922 635.013 224.344" stroke="#4D2CAB" stroke-miterlimit="10"/>
<path d="M331.576 97.9182C339.869 102.081 348.472 105.435 357.404 107.979C363.452 106.606 369.499 106.361 375.567 107.245C390.238 110.109 397.936 122.022 409.583 130.72C446.165 158.039 477.764 186.711 510.939 218.395C523.246 230.149 566.045 279.708 585.954 267.571C601.711 257.968 590.16 215.797 622.366 227.167" stroke="#4D2CAB" stroke-miterlimit="10"/>
<path d="M319.056 100.951C346.109 112.939 372.427 119.189 397.18 135.18C438.713 162.02 469.928 198.378 505.232 232.671C517.668 244.744 559.019 293.218 576.767 276.141C588.627 264.738 575.958 215.476 609.569 229.817" stroke="#4D2CAB" stroke-miterlimit="10"/>
<path d="M306.523 103.996C332.565 115.537 359.991 125.577 385.148 138.949C432.174 163.936 462.389 208.961 499.035 246.117C511.129 258.382 551.31 306.164 565.81 281.815C573.465 268.965 562.52 213.943 596.856 232.628" stroke="#4D2CAB" stroke-miterlimit="10"/>
<path d="M293.994 107.032C320.398 118.732 347.376 129.571 373.567 141.697C423.382 164.757 456.046 213.189 490.903 253.496C499.771 263.76 521.075 291.409 536.885 295.636C550.215 299.202 549.576 295.316 553.025 284.467C560.265 261.726 544.806 221.77 584.369 235.77" stroke="#4D2CAB" stroke-miterlimit="10"/>
<path d="M281.451 110.077C308.429 122.044 335.301 133.606 362.673 144.508C414.086 164.981 447.335 211.198 480.574 253.284C489.825 265.006 532.987 329.811 538.416 284.159C541.653 256.989 531.933 221.834 571.825 238.868" stroke="#4D2CAB" stroke-miterlimit="10"/>
<path d="M268.899 113.122C296.591 125.408 323.888 138.418 352.602 148.021C404.771 165.471 435.816 203.202 468.171 246.3C472.068 251.495 500.728 299.49 512.003 300.661C523.767 301.885 521.627 289.578 522.128 281.071C522.745 270.659 518.497 253.284 523.725 243.425C532.721 226.465 544.443 235.387 559.284 241.977" stroke="#4D2CAB" stroke-miterlimit="10"/>
<path d="M256.335 116.177C285.102 128.942 313.284 139.354 342.935 149.692C393.24 167.227 422.028 190.937 453.957 234.205C459.93 242.296 482.32 284.68 494.425 289.439C506.211 294.07 504.124 286.032 504.315 275.545C504.465 267.315 500.983 247.321 507.147 239.922C518.273 226.582 533.807 239.347 546.721 245.075" stroke="#4D2CAB" stroke-miterlimit="10"/>
<path d="M243.773 119.222C258.412 125.727 272.892 133.701 288.5 136.948C303.767 140.121 317.884 139.801 332.832 145.434C375.461 161.52 410.776 182.739 438.446 219.395C448.283 232.427 461.208 261.758 474.644 272.341C484.716 280.272 483.066 278.43 485.302 267.986C486.909 260.47 482.853 242.445 490.614 236.483C501.846 227.849 523.64 243.51 534.159 248.194" stroke="#4D2CAB" stroke-miterlimit="10"/>
<path d="M231.2 122.277C246.797 129.208 259.434 136.394 276.384 135.478C293.291 134.573 304.597 129.218 321.802 134.659C344.192 141.728 359.746 160.072 379.464 171.815C396.041 181.684 409.551 189.254 422.274 204.968C434.379 219.927 441.629 238.846 453.809 253.527C462.529 264.036 459.249 263.354 465.446 257.85C471.067 252.846 465.094 238.974 474.612 233.938C484.471 228.721 512.759 247.384 521.606 251.313" stroke="#4D2CAB" stroke-miterlimit="10"/>
<path d="M218.614 125.334C236.692 133.372 245.06 138.897 263.49 131.764C280.801 125.067 289.329 114.485 309.44 118.083C334.364 122.534 351.633 145.626 368.113 162.788C379.952 175.128 394.698 183.134 406.356 195.345C413.872 203.213 435.698 251.357 445.525 246.981C451.923 244.139 449.762 233.833 459.706 233.226C472.886 232.427 497.075 249.121 509.021 254.423" stroke="#4D2CAB" stroke-miterlimit="10"/>
<path d="M206.03 128.388C225.652 137.108 231.454 138.375 248.925 125.844C264.81 114.452 274.115 98.0136 295.408 97.7368C340.294 97.1406 364.867 164.661 391.249 193.024C401.736 204.298 411.871 234.13 426.276 237.739C431.354 239.006 439.382 233.704 446.515 235.354C463.081 239.176 480.882 250.632 496.426 257.552" stroke="#4D2CAB" stroke-miterlimit="10"/>
<path d="M193.436 131.445C214.378 140.899 217.7 136.162 232.307 120.33C246.158 105.329 258.135 81.9493 279.418 76.9134C331.565 64.5528 357.17 154.229 375.567 188.351C382.583 201.372 394.699 225.082 408.199 231.555C415.715 235.153 425.787 234.983 433.932 238.454C450.679 245.598 467.213 253.263 483.843 260.662" stroke="#4D2CAB" stroke-miterlimit="10"/>
<path d="M180.831 134.5C200.91 144.199 203.689 135.405 214.879 118.924C228.293 99.1858 238.152 72.0796 260.648 60.4749C318.374 30.6858 344.884 137.322 358.171 174.915C365.464 195.548 372.118 216.564 391.559 228.925C414.832 243.723 446.112 252.581 471.259 263.771" stroke="#4D2CAB" stroke-miterlimit="10"/>
<path d="M167.971 137.789C182.801 153.663 190.946 132.945 196.919 122.395C210.227 98.8869 219.021 74.7618 237.802 54.6611C296.528 -8.20687 328.489 122.16 339.689 159.008C347.887 185.976 350.975 214.083 376.409 229.595C401.578 244.947 431.814 254.944 458.644 266.89" stroke="#4D2CAB" stroke-miterlimit="10"/>
<path d="M154.374 140.409C167.224 155.42 172.973 141.016 178.701 130.401C191.136 107.351 198.567 82.8215 213.686 61.0386C231.412 35.4869 258.912 15.4181 282.058 48.3905C301.765 76.4655 311.091 113.377 320.726 145.572C329.797 175.872 332.587 216.372 362.684 232.587C389.29 246.906 418.473 257.744 446.036 270.02" stroke="#4D2CAB" stroke-miterlimit="10"/>
<path d="M139.64 143.112C152.352 150.682 151.883 154.462 160.454 141.483C173.208 122.16 178.851 97.6302 190.637 77.3911C203.657 55.044 231.562 21.3902 260.052 48.1131C282.974 69.6191 292.652 109.948 301.766 138.151C312.327 170.836 316.192 219.342 349.931 235.94C377.186 249.344 405.655 260.778 433.4 273.149" stroke="#4D2CAB" stroke-miterlimit="10"/>
<path d="M124.595 145.754C134.549 152.238 134.645 159.594 144.206 151.141C157.141 139.696 163.263 110.003 171.993 95.6512C183.832 76.1999 200.654 57.5684 226.312 63.1153C260.211 70.4401 272.689 110.95 283.016 138.78C297.325 177.364 301.477 219.992 340.113 239.944C366.219 253.423 393.974 264.325 420.783 276.281" stroke="#4D2CAB" stroke-miterlimit="10"/>
<path d="M109.701 148.424C114.45 151.821 120.135 161.999 126.374 162.339C134.21 162.765 149.977 128.079 152.383 124.736C164.244 108.255 182.875 90.2941 205.265 91.9124C234.948 94.063 254.101 124.906 265.248 148.691C283.187 186.954 289.501 221.108 327.445 241.976C353.38 256.242 381.114 267.336 408.114 279.388" stroke="#4D2CAB" stroke-miterlimit="10"/>
<path d="M95.3496 151.205C115.003 167.154 112.203 175.799 136.137 153.058C150.062 139.824 167.501 124.259 188.145 123.63C215.337 122.8 233.776 145.094 247.5 165.376C260.18 184.114 268.399 208.963 284.752 224.879C292.833 232.747 305.247 238.113 314.829 243.692C340.721 258.778 368.179 270.329 395.498 282.52" stroke="#4D2CAB" stroke-miterlimit="10"/>
<path d="M81.7744 154.11C96.0621 165.917 100.566 182.739 123.072 174.349C141.065 167.653 154.118 155.122 174.24 153.557C199.121 151.619 216.028 166.088 231.827 183.048C245.796 198.038 255.047 215.317 271.763 227.572C281.014 234.353 292.342 239.485 302.18 245.362C328.2 260.906 355.189 273.309 382.86 285.659" stroke="#4D2CAB" stroke-miterlimit="10"/>
<path d="M69.0947 157.188C83.9148 169.101 90.324 182.452 111.713 185.805C128.29 188.403 146.517 179.268 162.902 178.353C185.472 177.086 201.815 185.593 218.881 199.241C232.765 210.335 243.72 221.269 259.094 230.18C269.144 236.004 279.503 241.274 289.511 247.236C315.733 262.876 342.286 276.333 370.191 288.79" stroke="#4D2CAB" stroke-miterlimit="10"/>
<path d="M57.3198 160.425C74.6524 172.85 81.1149 182.261 103.207 189.214C138.787 200.424 174.017 192.493 207.66 211.848C256.379 239.881 306.056 269.01 357.521 291.942" stroke="#4D2CAB" stroke-miterlimit="10"/>
<path d="M46.3325 163.788C64.7511 175.989 74.1627 185.965 96.5631 192.747C129.876 202.84 164.946 206.651 197.131 220.013C248.362 241.285 294.483 272.17 344.852 295.092" stroke="#4D2CAB" stroke-miterlimit="10"/>
<path d="M35.8779 167.26C55.4463 179.089 68.1264 189.799 90.8355 196.539C122.605 205.971 155.098 212.583 186.176 224.369C237.119 243.703 282.857 275.27 332.151 298.224" stroke="#4D2CAB" stroke-miterlimit="10"/>
<path d="M25.6138 170.773C45.3312 181.622 60.3003 192.726 82.2535 199.562C112.884 209.101 144.632 214.488 174.219 227.264C224.119 248.812 270.325 278.229 319.459 301.343" stroke="#4D2CAB" stroke-miterlimit="10"/>
<path d="M15.0405 174.222C36.0782 184.783 53.6663 196.537 76.4074 203.681C104.93 212.645 134.176 218.096 161.516 230.467C211.023 252.847 257.57 281.379 306.757 304.472" stroke="#4D2CAB" stroke-miterlimit="10"/>
<path d="M468.159 236.228L293.986 278.149L157.743 208.779L134.287 198.299L108.336 189.815L56.4336 173.346L4.53125 147.894L77.8932 124.937L141.773 112.959C142.272 111.462 146.364 103.777 158.741 85.0121C177.206 50.0779 223.619 -6.81502 262.047 0.670886C292.789 6.65961 319.106 47.7489 328.422 67.545L393.799 52.5732L417.254 61.5563L460.174 82.5168L505.089 101.98L530.541 116.952L550.504 130.427L575.457 150.888L597.415 165.86L613.884 172.348L634.346 175.841L671.775 177.338L684.751 181.83L622.867 196.802L588.931 236.228L556.991 261.181L531.539 272.16H512.575L495.108 261.181L468.159 236.228Z" fill="#CDF3A3"/>
<path d="M3.5332 147.905C34.4615 138.973 64.3252 127.879 95.9881 121.459C130.366 114.486 164.701 108.8 198.813 100.517C263.64 84.7816 328.594 65.5752 394.06 53.1294C422.529 61.3166 445.196 75.732 472.057 87.5923C498.226 99.1545 521.926 109.599 545.007 126.772C566.95 143.093 591.16 167.197 618.501 173.393C641.21 178.546 661.002 172.637 684.392 181.399C555.271 216.746 424.02 245.672 294.068 278.027C244.785 255.18 198.227 226.828 148.827 204.311C123.307 192.685 96.3394 186.85 69.7336 178.269C46.0982 170.646 25.8271 158.573 3.5545 147.905H3.5332Z" stroke="#6AB418" stroke-miterlimit="10"/>
<path d="M284.623 273.685C349.578 257.258 414.746 241.607 479.785 225.52C544.793 209.433 612.378 200.469 675.32 177.834" stroke="#6AB418" stroke-miterlimit="10"/>
<path d="M275.202 269.179C340.029 252.421 405.356 237.388 470.375 221.312C499.717 214.061 529.154 204.788 559.337 202.244C598.826 198.922 630.872 192.353 666.953 175.372" stroke="#6AB418" stroke-miterlimit="10"/>
<path d="M265.768 264.56C330.382 247.291 395.986 233.174 460.941 217.13C492.466 209.336 520.594 203.246 553.247 203.566C594.194 203.97 624.377 195.464 659.223 174.011" stroke="#6AB418" stroke-miterlimit="10"/>
<path d="M256.357 259.876C320.641 241.841 386.66 228.969 451.53 212.946C484.875 204.716 511.566 204.802 545.742 207.687C589.361 211.36 618.564 200.554 652.037 173.522" stroke="#6AB418" stroke-miterlimit="10"/>
<path d="M246.935 255.043C310.964 236.646 377.249 224.285 442.108 208.752C477.476 200.288 507.765 210.104 543.048 214.565C587.977 220.24 615.275 205.334 645.117 173.469" stroke="#6AB418" stroke-miterlimit="10"/>
<path d="M237.534 250.145C272.285 240.084 307.088 234.015 342.414 226.573C372.49 220.238 402.364 209.145 432.76 204.705C469.853 199.286 505.572 218.407 541.718 223.656C589.063 230.523 611.463 208.719 638.569 173.99" stroke="#6AB418" stroke-miterlimit="10"/>
<path d="M228.123 245.195C262.118 235.283 295.484 228.299 330.288 222.262C360.918 216.95 394.156 201.832 425.372 203.918C466.873 206.697 503.742 230.013 544.88 234.719C591.31 240.031 609.015 208.943 632.288 174.949" stroke="#6AB418" stroke-miterlimit="10"/>
<path d="M218.721 240.211C253.78 229.969 287.583 222.229 323.633 216.682C355.189 211.827 387.597 196.975 419.686 204.194C461.57 213.616 498.258 240.285 541.515 245.268C590.915 250.964 604.415 211.167 625.293 174.756" stroke="#6AB418" stroke-miterlimit="10"/>
<path d="M209.321 235.218C244.348 224.997 278.034 216.054 314.232 211.263C348.28 206.77 381.135 192.642 415.183 204.013C458.547 218.492 493.68 252.859 541.121 255.925C590.117 259.087 599.507 208.356 617.383 173.074" stroke="#6AB418" stroke-miterlimit="10"/>
<path d="M199.931 230.235C234.799 220.121 268.719 209.975 304.843 205.695C340.178 201.511 376.643 187.947 411.085 201.82C455.13 219.567 489.22 265.624 539.685 264.826C585.603 264.091 592.886 202.671 608.472 169.699" stroke="#6AB418" stroke-miterlimit="10"/>
<path d="M190.541 225.286C225.248 215.32 259.541 204.567 295.463 200.106C330.415 195.763 373.513 182.838 406.89 196.998C431.015 207.229 451.403 225.339 471.738 241.394C490.348 256.086 510.811 274.505 536.32 270.555C576.83 264.295 584.208 195.337 598.528 164.611" stroke="#6AB418" stroke-miterlimit="10"/>
<path d="M181.15 220.378C216.252 210.444 251.769 202.076 286.86 192.356C305.779 187.118 322.26 186.788 341.86 187.043C362.855 187.32 381.88 181.805 402.279 189.822C426.788 199.457 447.229 218.94 466.648 236.06C482.054 249.634 506.286 278.689 529.964 271.375C547.541 265.945 555.217 245.099 560.945 229.331C569.707 205.196 576.319 181.049 587.562 157.872" stroke="#6AB418" stroke-miterlimit="10"/>
<path d="M171.771 215.543C207.735 205.557 242.411 198.402 275.372 181.048C295.356 170.529 312.955 168.634 334.78 173.33C355.115 177.695 377.963 175.981 397.276 181.762C422.434 189.299 442.321 209.443 461.027 226.924C475.315 240.275 499.717 275.004 522.373 265.369C536.288 259.45 543.432 234.707 547.818 222.091C556.431 197.284 563.373 173.042 575.787 149.758" stroke="#6AB418" stroke-miterlimit="10"/>
<path d="M162.391 210.806C181.033 205.749 200.612 202.236 218.796 195.752C236.97 189.268 250.683 175.619 266.014 164.355C286.445 149.344 304.384 144.499 328.573 153.283C338.528 156.892 347.694 162.481 357.415 166.591C369.041 171.51 379.538 171.052 391.675 173.437C415.939 178.206 433.538 194.655 451.03 211.37C463.433 223.22 488.325 258.971 508.926 253.222C523.043 249.283 529.623 221.74 533.658 210.125C542.122 185.787 549.692 162.673 563.351 140.656" stroke="#6AB418" stroke-miterlimit="10"/>
<path d="M153.012 206.261C169.205 201.917 188.71 199.809 203.764 192.292C225.483 181.444 240.133 156.445 258.349 140.752C277.619 124.144 294.579 116.734 319.098 126.859C342.499 136.526 360.258 161.662 385.629 166.336C409.104 170.659 422.21 177.164 440.342 194.219C451.552 204.77 472.728 234.133 490.285 234.101C509.81 234.059 514.495 205.505 520.074 190.749C528.25 169.136 536.618 149.568 550.693 131.064" stroke="#6AB418" stroke-miterlimit="10"/>
<path d="M143.643 201.99C159.133 197.721 178.127 196.188 191.446 186.638C213.878 170.551 226.058 139.24 244.966 119.181C263.8 99.1978 282.538 84.6972 309.9 96.5468C338.528 108.95 352.06 140.176 378.176 155.241C386.395 159.99 393.582 157.658 401.63 160.192C410.818 163.077 419.048 169.827 426.309 175.842C438.468 185.925 455.704 209.443 472.515 211.604C492.605 214.202 497.269 189.96 503.795 175.214C512.802 154.869 522.288 137.493 538.119 121.641" stroke="#6AB418" stroke-miterlimit="10"/>
<path d="M134.273 197.998C149.444 193.601 167.032 191.632 178.999 180.655C199.43 161.896 209.225 129.328 224.833 106.768C240.249 84.4848 265.503 52.3854 296.516 62.8084C329.222 73.7956 346.832 114.05 368.455 137.217C383.03 152.825 395.902 150.802 413 161.246C426.362 169.402 439.925 186.83 456.151 188.832C473.76 191.014 478.945 173.948 486.206 160.714C496.863 141.284 507.872 126.123 526.141 113.241" stroke="#6AB418" stroke-miterlimit="10"/>
<path d="M124.212 194.283C137.404 189.737 153.948 186.915 164.275 177.11C184.94 157.478 194.001 120.406 207.98 96.1534C222.001 71.8047 249.044 26.4184 283.368 33.2322C317.661 40.0353 340.285 89.4673 356.116 114.849C369.02 135.546 376.536 142.359 398.085 148.854C412 153.049 423.051 165.793 437.733 167.666C454.576 169.806 460.878 157.02 469.641 144.776C482.342 127.039 495.139 115.424 515.368 106.779" stroke="#6AB418" stroke-miterlimit="10"/>
<path d="M112.65 190.705C123.68 186.276 139.469 182.412 148.667 174.608C169.609 156.828 178.552 116.179 190.519 92.5546C204.37 65.2142 231.093 11.119 268.303 11.0445C304.384 10.97 328.169 67.8652 341.796 92.331C352.262 111.101 361.758 135.002 383.435 140.485C394.561 143.307 408.422 148.587 419.974 149.386C435.88 150.483 443.737 140.996 454.032 130.361C469.278 114.604 484.694 107.79 505.988 102.584" stroke="#6AB418" stroke-miterlimit="10"/>
<path d="M100.417 187.214C110.457 182.572 123.477 178.1 132.453 171.659C153.756 156.36 162.455 118.288 173.069 95.8767C188.539 63.1918 210.513 12.6419 249.384 2.13375C286.817 -7.99113 313.317 49.5003 326.529 73.4551C335.451 89.6272 348.929 127.667 368.849 133.182C377.995 135.716 393.507 135.109 403.323 134.801C418.356 134.321 428.012 126.911 440.117 118.841C457.78 107.066 476.135 103.457 496.64 98.4532" stroke="#6AB418" stroke-miterlimit="10"/>
<path d="M88.1934 183.786C97.4559 178.942 107.219 173.778 115.906 167.965C139.18 152.41 148.219 122.323 160.026 97.4848C176.422 63.0218 194.893 22.4904 232.699 7.95781C271.57 -6.97932 293.832 31.1354 311.133 60.5305C321.62 78.3422 334.076 114.551 353.282 125.262C362.715 130.521 375.449 125.922 385.861 124.335C401.788 121.908 414.713 115.254 429.597 109.59C448.016 102.574 468.138 98.9966 487.28 94.3227" stroke="#6AB418" stroke-miterlimit="10"/>
<path d="M76.4941 180.387C85.1924 175.373 93.0709 169.134 101.716 164.066C124.233 150.865 132.815 134.224 144.92 110.77C161.464 78.7022 182.438 40.3533 215.656 23.0845C252.131 4.12302 274.712 24.064 295.771 54.5877C308.824 73.5173 319.779 103.211 338.783 117.168C350.856 126.026 359.022 120.788 372.086 117.211C407.251 107.565 442.523 98.8348 477.955 90.1792" stroke="#6AB418" stroke-miterlimit="10"/>
<path d="M65.6777 177.024C90.7611 161.49 116.952 148.448 133.582 123.844C165.234 77.0206 223.385 -10.2706 281.026 56.164C295.74 73.1133 306.546 97.6962 324.815 111.228C337.975 120.98 345.683 116.903 359.864 112.623C396.179 101.646 432.005 95.0026 468.629 86.0702" stroke="#6AB418" stroke-miterlimit="10"/>
<path d="M55.9463 173.649C64.0803 168.496 71.107 161.725 79.2942 156.7C95.0725 147.022 110.947 145.542 125.096 132.798C162.891 98.7613 207.096 17.017 267.228 64.5113C283.261 77.1701 294.057 97.3453 311.624 108.034C325.145 116.264 334.887 112.943 349.078 109.014C367.689 103.872 383.329 95.5141 401.055 88.3596C420.123 80.6515 439.447 85.5489 459.292 81.9504" stroke="#6AB418" stroke-miterlimit="10"/>
<path d="M47.354 170.243C55.7435 165.069 62.9938 158.17 71.4472 153.177C86.1927 144.478 103.355 144.095 118.367 136.696C164.019 114.2 194.138 46.9132 254.121 77.4689C269.985 85.5496 282.665 101.008 299.358 107.258C313.455 112.539 325.496 108.376 339.443 104.745C360.14 99.3582 373.32 89.0097 391.718 79.0978C411.211 68.5896 428.981 77.0963 449.954 77.6392" stroke="#6AB418" stroke-miterlimit="10"/>
<path d="M39.8174 166.783C48.9096 161.63 56.8945 154.699 66.1038 149.77C81.1793 141.71 97.4792 140.007 113.715 135.919C158.953 124.548 190.073 72.0926 241.996 90.064C257.21 95.3341 271.753 105.672 288.085 107.61C302.16 109.27 316.596 103.915 330.118 100.615C352.071 95.2489 364.325 86.6145 382.392 73.5725C402.408 59.1251 417.845 68.1108 440.629 71.8797" stroke="#6AB418" stroke-miterlimit="10"/>
<path d="M33.0562 163.247C59.3638 150.014 80.8806 138.302 110.659 132.958C151.915 125.548 188.965 92.6074 232.243 100.326C248.128 103.158 261.223 108.865 277.725 106.799C292.098 105 306.716 99.911 320.78 96.4828C341.487 91.447 356.19 86.6347 373.055 73.3265C394.252 56.6008 405.75 61.1469 431.291 66.0549" stroke="#6AB418" stroke-miterlimit="10"/>
<path d="M26.7007 159.617C54.3392 147.693 78.0172 135.46 108.296 130.009C127.641 126.527 146.251 124.292 165 118.127C184.877 111.59 202.88 106.214 224.067 106.544C254.686 107.023 281.782 99.5704 311.475 92.3414C329.606 87.9337 347.982 85.1124 363.75 75.0301C386.491 60.4869 394.614 57.6868 421.987 61.4025" stroke="#6AB418" stroke-miterlimit="10"/>
<path d="M19.8545 155.837C47.5995 145.02 72.9383 133.341 102.504 127.655C140.267 120.394 178.51 113.762 216.465 107.874C246.243 103.254 275.596 94.6618 304.885 87.5499C320.727 83.6958 337.612 81.0448 352.784 75.0614C375.589 66.0544 386.917 57.6224 412.681 58.2612" stroke="#6AB418" stroke-miterlimit="10"/>
<path d="M12.0503 151.93C41.3177 141.944 69.1798 130.648 99.6929 124.633C135.891 117.499 172.207 113.337 208.118 104.66C237.279 97.6117 266.418 90.4997 295.569 83.4198C331.086 74.7961 367.284 59.3266 403.365 56.0049" stroke="#6AB418" stroke-miterlimit="10"/>
<path d="M381.583 55.4941C398.138 58.1132 411.169 59.3269 425.564 68.3445C437.349 75.7333 446.889 84.4954 459.579 90.6278C488.432 104.575 511.311 116.105 536.597 136.504C557.326 153.23 584.41 182.55 611.932 186.159C633.406 188.981 649.269 178.089 672.085 184.743" stroke="#6AB418" stroke-miterlimit="10"/>
<path d="M369.084 58.3892C385.618 59.2941 398.319 56.4408 413.065 65.0539C425.82 72.4959 434.379 85.2185 447.081 92.9479C459.26 100.358 473.08 104.148 485.121 111.941C500.931 122.173 514.931 135.683 529.155 147.895C548.362 164.376 578.726 198.966 605.757 199.648C626.667 200.169 636.43 179.845 659.831 188.256" stroke="#6AB418" stroke-miterlimit="10"/>
<path d="M356.595 62.1375C372.075 64.2349 386.491 57.4104 400.576 63.2234C414.587 69.0045 422.391 85.7728 434.592 94.6095C447.421 103.915 462.071 108.769 474.815 118.586C491.594 131.5 506.85 146.511 522.565 160.65C539.269 175.672 574.669 216.885 599.699 213.297C620.024 210.38 621.642 183.114 647.513 191.621" stroke="#6AB418" stroke-miterlimit="10"/>
<path d="M344.084 65.2549C361.321 71.728 372.234 63.5514 388.066 67.299C402.63 70.7379 410.445 88.2515 422.081 97.1307C436.113 107.852 451.679 115.091 465.413 126.749C483.171 141.825 499.556 158.583 516.58 174.446C530.378 187.296 571.453 234.748 593.353 226.508C611.931 219.513 605.884 185.306 635.013 194.728" stroke="#6AB418" stroke-miterlimit="10"/>
<path d="M331.576 68.3018C339.869 72.4646 348.472 75.8182 357.404 78.3628C363.452 76.9894 369.499 76.7445 375.567 77.6281C390.238 80.4921 397.936 92.4056 409.583 101.104C446.165 128.423 477.764 157.094 510.939 188.778C523.246 200.532 566.045 250.092 585.954 237.955C601.711 228.352 590.16 186.18 622.366 197.551" stroke="#6AB418" stroke-miterlimit="10"/>
<path d="M319.056 71.3352C346.109 83.3232 372.427 89.5728 397.18 105.564C438.713 132.404 469.928 168.762 505.232 203.054C517.668 215.128 559.019 263.601 576.767 246.524C588.627 235.122 575.958 185.86 609.569 200.201" stroke="#6AB418" stroke-miterlimit="10"/>
<path d="M306.523 74.3804C332.565 85.9212 359.991 95.961 385.148 109.333C432.174 134.321 462.389 179.345 499.035 216.501C511.129 228.766 551.31 276.548 565.81 252.199C573.465 239.349 562.52 184.327 596.856 203.012" stroke="#6AB418" stroke-miterlimit="10"/>
<path d="M293.994 77.4158C320.398 89.1163 347.376 99.9545 373.567 112.081C423.382 135.141 456.046 183.573 490.903 223.881C499.771 234.144 521.075 261.793 536.885 266.02C550.215 269.586 549.576 265.7 553.025 254.851C560.265 232.11 544.806 192.154 584.369 206.154" stroke="#6AB418" stroke-miterlimit="10"/>
<path d="M281.451 80.4607C308.429 92.4274 335.301 103.99 362.673 114.892C414.086 135.365 447.335 181.582 480.574 223.668C489.825 235.389 532.987 300.195 538.416 254.543C541.653 227.373 531.933 192.218 571.825 209.252" stroke="#6AB418" stroke-miterlimit="10"/>
<path d="M268.899 83.5059C296.591 95.792 323.888 108.802 352.602 118.405C404.771 135.855 435.816 173.586 468.171 216.684C472.068 221.879 500.728 269.874 512.003 271.045C523.767 272.269 521.627 259.962 522.128 251.455C522.745 241.043 518.497 223.668 523.725 213.809C532.721 196.849 544.443 205.771 559.284 212.361" stroke="#6AB418" stroke-miterlimit="10"/>
<path d="M256.335 86.5605C285.102 99.3258 313.284 109.738 342.935 120.076C393.24 137.611 422.028 161.321 453.957 204.588C459.93 212.68 482.32 255.064 494.425 259.823C506.211 264.454 504.124 256.416 504.315 245.929C504.465 237.699 500.983 217.705 507.147 210.306C518.273 196.965 533.807 209.731 546.721 215.458" stroke="#6AB418" stroke-miterlimit="10"/>
<path d="M243.773 89.6057C258.412 96.1108 272.892 104.085 288.5 107.332C303.767 110.505 317.884 110.186 332.832 115.818C375.461 131.905 410.776 153.123 438.446 189.779C448.283 202.811 461.208 232.142 474.644 242.725C484.716 250.656 483.066 248.814 485.302 238.37C486.909 230.854 482.853 212.829 490.614 206.867C501.846 198.233 523.64 213.894 534.159 218.578" stroke="#6AB418" stroke-miterlimit="10"/>
<path d="M231.2 92.6604C246.797 99.5913 259.434 106.778 276.384 105.862C293.291 104.957 304.597 99.602 321.802 105.042C344.192 112.112 359.746 130.456 379.464 142.199C396.041 152.068 409.551 159.638 422.274 175.352C434.379 190.311 441.629 209.23 453.809 223.911C462.529 234.419 459.249 233.738 465.446 228.234C471.067 223.23 465.094 209.357 474.612 204.322C484.471 199.105 512.759 217.768 521.606 221.697" stroke="#6AB418" stroke-miterlimit="10"/>
<path d="M218.614 95.7177C236.692 103.756 245.06 109.281 263.49 102.148C280.801 95.4515 289.329 84.8688 309.44 88.4674C334.364 92.9176 351.633 116.01 368.113 133.172C379.952 145.512 394.698 153.518 406.356 165.729C413.872 173.597 435.698 221.741 445.525 217.365C451.923 214.523 449.762 204.217 459.706 203.61C472.886 202.811 497.075 219.505 509.021 224.807" stroke="#6AB418" stroke-miterlimit="10"/>
<path d="M206.03 98.7721C225.652 107.492 231.454 108.759 248.925 96.2275C264.81 84.8357 274.115 68.3974 295.408 68.1206C340.294 67.5244 364.867 135.045 391.249 163.407C401.736 174.682 411.871 204.514 426.276 208.123C431.354 209.39 439.382 204.088 446.515 205.738C463.081 209.56 480.882 221.016 496.426 227.936" stroke="#6AB418" stroke-miterlimit="10"/>
<path d="M193.436 101.829C214.378 111.283 217.7 106.546 232.307 90.7142C246.158 75.7132 258.135 52.3333 279.418 47.2975C331.565 34.9368 357.17 124.613 375.567 158.735C382.583 171.756 394.699 195.466 408.199 201.939C415.715 205.537 425.787 205.367 433.932 208.838C450.679 215.982 467.213 223.647 483.843 231.047" stroke="#6AB418" stroke-miterlimit="10"/>
<path d="M180.831 104.884C200.91 114.583 203.689 105.789 214.879 89.3085C228.293 69.5698 238.152 42.4636 260.648 30.8589C318.374 1.06982 344.884 107.706 358.171 145.299C365.464 165.932 372.118 186.948 391.559 199.309C414.832 214.107 446.112 222.965 471.259 234.155" stroke="#6AB418" stroke-miterlimit="10"/>
<path d="M167.971 108.173C182.801 124.048 190.946 103.329 196.919 92.7785C210.227 69.2709 219.021 45.1458 237.802 25.0451C296.528 -37.8228 328.489 92.5443 339.689 129.392C347.887 156.36 350.975 184.467 376.409 199.979C401.578 215.331 431.814 225.328 458.644 237.274" stroke="#6AB418" stroke-miterlimit="10"/>
<path d="M154.374 110.792C167.224 125.804 172.973 111.399 178.701 100.785C191.136 77.7347 198.567 53.205 213.686 31.4222C231.412 5.87042 258.912 -14.1983 282.058 18.7741C301.765 46.849 311.091 83.7607 320.726 115.956C329.797 146.256 332.587 186.755 362.684 202.97C389.29 217.29 418.473 228.128 446.036 240.404" stroke="#6AB418" stroke-miterlimit="10"/>
<path d="M139.64 113.496C152.352 121.066 151.883 124.845 160.454 111.867C173.208 92.5435 178.851 68.0138 190.637 47.7747C203.657 25.4275 231.562 -8.22626 260.052 18.4966C282.974 40.0027 292.652 80.3319 301.766 108.535C312.327 141.22 316.192 189.725 349.931 206.323C377.186 219.727 405.655 231.162 433.4 243.533" stroke="#6AB418" stroke-miterlimit="10"/>
<path d="M124.595 116.138C134.549 122.621 134.645 129.978 144.206 121.525C157.141 110.08 163.263 80.3865 171.993 66.035C183.832 46.5837 200.654 27.9522 226.312 33.4991C260.211 40.8239 272.689 81.3341 283.016 109.164C297.325 147.747 301.477 190.376 340.113 210.328C366.219 223.806 393.974 234.708 420.783 246.665" stroke="#6AB418" stroke-miterlimit="10"/>
<path d="M109.701 118.808C114.45 122.204 120.135 132.382 126.374 132.723C134.21 133.149 149.977 98.4623 152.383 95.1193C164.244 78.6384 182.875 60.6777 205.265 62.2959C234.948 64.4466 254.101 95.2896 265.248 119.074C283.187 157.338 289.501 191.492 327.445 212.359C353.38 226.626 381.114 237.719 408.114 249.771" stroke="#6AB418" stroke-miterlimit="10"/>
<path d="M95.3496 121.589C115.003 137.538 112.203 146.183 136.137 123.442C150.062 110.208 167.501 94.6426 188.145 94.0145C215.337 93.184 233.776 115.478 247.5 135.76C260.18 154.498 268.399 179.347 284.752 195.263C292.833 203.131 305.247 208.497 314.829 214.076C340.721 229.162 368.179 240.713 395.498 252.904" stroke="#6AB418" stroke-miterlimit="10"/>
<path d="M81.7744 124.494C96.0621 136.301 100.566 153.123 123.072 144.733C141.065 138.037 154.118 125.506 174.24 123.94C199.121 122.003 216.028 136.471 231.827 153.431C245.796 168.422 255.047 185.701 271.763 197.955C281.014 204.737 292.342 209.869 302.18 215.746C328.2 231.29 355.189 243.693 382.86 256.043" stroke="#6AB418" stroke-miterlimit="10"/>
<path d="M69.0947 127.571C83.9148 139.485 90.324 152.836 111.713 156.189C128.29 158.787 146.517 149.652 162.902 148.737C185.472 147.47 201.815 155.976 218.881 169.625C232.765 180.719 243.72 191.653 259.094 200.564C269.144 206.388 279.503 211.658 289.511 217.62C315.733 233.26 342.286 246.717 370.191 259.173" stroke="#6AB418" stroke-miterlimit="10"/>
<path d="M57.3198 130.809C74.6524 143.234 81.1149 152.645 103.207 159.597C138.787 170.808 174.017 162.877 207.66 182.232C256.379 210.264 306.056 239.393 357.521 262.326" stroke="#6AB418" stroke-miterlimit="10"/>
<path d="M46.3325 134.172C64.7511 146.373 74.1627 156.349 96.5631 163.131C129.876 173.223 164.946 177.035 197.131 190.396C248.362 211.668 294.483 242.554 344.852 265.476" stroke="#6AB418" stroke-miterlimit="10"/>
<path d="M35.8779 137.644C55.4463 149.472 68.1264 160.183 90.8355 166.922C122.605 176.355 155.098 182.966 186.176 194.752C237.119 214.086 282.857 245.653 332.151 268.607" stroke="#6AB418" stroke-miterlimit="10"/>
<path d="M25.6138 141.157C45.3312 152.006 60.3003 163.11 82.2535 169.946C112.884 179.485 144.632 184.872 174.219 197.648C224.119 219.197 270.325 248.613 319.459 271.727" stroke="#6AB418" stroke-miterlimit="10"/>
<path d="M15.0405 144.606C36.0782 155.167 53.6663 166.921 76.4074 174.065C104.93 183.029 134.176 188.48 161.516 200.852C211.023 223.231 257.57 251.763 306.757 274.856" stroke="#6AB418" stroke-miterlimit="10"/>
</svg>
