<svg width="116" height="38" viewBox="0 0 116 38" fill="none" xmlns="http://www.w3.org/2000/svg">
<path d="M22.4391 24.8726V15.8584C22.432 14.7727 21.996 13.7337 21.2261 12.9681C20.4562 12.2025 19.4149 11.7723 18.3291 11.7712V26.1771C18.3231 26.6896 18.4216 27.1979 18.6186 27.671C18.8156 28.1442 19.1069 28.5722 19.4748 28.929C19.8427 29.2859 20.2794 29.564 20.7583 29.7465C21.2373 29.9289 21.7484 30.0119 22.2604 29.9902C23.2586 30.0578 24.2486 29.7709 25.056 29.1802C22.6833 28.929 22.4401 27.4994 22.4401 24.8726" fill="#725F00"/>
<path d="M13.7476 8C12.7514 8.00655 11.7983 8.4069 11.0961 9.11366C10.394 9.82043 9.99998 10.7762 10 11.7725H26.7706C27.7668 11.7659 28.72 11.3656 29.4221 10.6588C30.1242 9.95203 30.5182 8.99623 30.5182 8H13.7476Z" fill="#725F00"/>
<path d="M45.7823 24.8481H40.5183V13.6481H45.6543C47.6063 13.6481 48.9663 14.8001 48.9663 16.4641C48.9663 17.6641 48.1183 18.6561 46.8063 19.0721C48.2623 19.3601 49.2223 20.4161 49.2223 21.7921C49.2223 23.6001 47.8143 24.8481 45.7823 24.8481ZM41.8463 14.8801V18.5441H45.5743C46.7743 18.5441 47.6063 17.7441 47.6063 16.6081C47.6063 15.5841 46.8543 14.8801 45.7823 14.8801H41.8463ZM41.8463 19.7441V23.6161H45.9263C47.0463 23.6161 47.8303 22.8161 47.8303 21.6481C47.8303 20.4001 46.8543 19.7441 45.6543 19.7441H41.8463Z" fill="#725F00"/>
<path d="M51.8089 14.9441C51.2489 14.9441 50.8169 14.5121 50.8169 13.9521C50.8169 13.3921 51.2489 12.9761 51.8089 12.9761C52.3689 12.9761 52.7849 13.3921 52.7849 13.9521C52.7849 14.5121 52.3689 14.9441 51.8089 14.9441ZM52.4649 24.8481H51.1369V16.3681H52.4649V24.8481Z" fill="#725F00"/>
<path d="M59.0529 24.8481H58.1089C56.4609 24.8481 55.5809 24.0001 55.5809 22.4321V17.4881H54.0129V16.3681H55.5809V13.4721H56.9089V16.3681H60.2049V13.4721H61.5329V16.3681H63.8209V17.4881H61.5329V22.4321C61.5329 23.2801 61.9489 23.7281 62.7329 23.7281H63.6769V24.8481H62.7329C61.0849 24.8481 60.2049 24.0001 60.2049 22.4321V17.4881H56.9089V22.4321C56.9089 23.2801 57.3249 23.7281 58.1089 23.7281H59.0529V24.8481Z" fill="#725F00"/>
<path d="M68.9278 25.0241C66.4158 25.0241 64.7518 23.1841 64.7518 20.6401C64.7518 17.7441 66.6238 16.1761 68.7678 16.1761C71.1038 16.1761 72.6078 17.7441 72.6558 20.4641V20.8321H66.0798C66.1598 22.6401 67.2158 23.8721 68.9278 23.8721C70.1118 23.8721 70.9758 23.2801 71.3278 22.1761H72.6238C72.2398 23.9201 70.8638 25.0241 68.9278 25.0241ZM66.1598 19.7281H71.2638C71.0238 18.2401 70.1278 17.3281 68.7678 17.3281C67.4238 17.3281 66.4318 18.2081 66.1598 19.7281Z" fill="#725F00"/>
<path d="M75.7306 24.8481H74.4026V16.3681H75.4586L75.5866 17.6641C76.1626 16.7681 77.2666 16.1761 78.5306 16.1761C80.3546 16.1761 81.5706 17.3601 81.5706 19.2321V24.8481H80.2426V19.2801C80.2426 18.0961 79.4746 17.3441 78.1946 17.3441C76.6746 17.3441 75.7466 18.4001 75.7306 19.6961V24.8481Z" fill="#725F00"/>
<path d="M86.8206 25.0241C84.8046 25.0241 83.3166 23.9681 83.2046 22.1761H84.5006C84.5966 23.2801 85.6046 23.8881 86.8846 23.8881C88.0846 23.8881 88.6606 23.4241 88.6606 22.5761C88.6606 21.7761 88.0366 21.6001 87.1566 21.2961L85.9246 20.8801C84.6766 20.4641 83.4286 20.0801 83.4286 18.5441C83.4286 17.1041 84.5486 16.1761 86.4046 16.1761C88.2766 16.1761 89.5726 17.1841 89.7806 19.0721H88.4846C88.3406 17.8881 87.5086 17.3121 86.3566 17.3121C85.3166 17.3121 84.7086 17.7761 84.7086 18.5121C84.7086 19.3921 85.6366 19.5681 86.3406 19.8081L87.4926 20.1921C89.0446 20.7041 89.9726 21.2321 89.9726 22.6401C89.9726 24.1281 88.8846 25.0241 86.8206 25.0241Z" fill="#725F00"/>
<path d="M95.3337 25.0241C92.6137 25.0241 91.1737 23.0881 91.1737 20.5281C91.1737 17.6961 93.0297 16.1761 95.3337 16.1761C98.0377 16.1761 99.4937 18.1281 99.4937 20.5281C99.4937 23.4561 97.7177 25.0241 95.3337 25.0241ZM95.3337 23.8721C97.1417 23.8721 98.1337 22.3681 98.1337 20.5281C98.1337 18.6241 97.0297 17.3281 95.3337 17.3281C93.6377 17.3281 92.5337 18.6241 92.5337 20.5281C92.5337 22.7041 93.7977 23.8721 95.3337 23.8721Z" fill="#725F00"/>
<path d="M102.559 24.8481H101.231V16.3681H102.287L102.447 17.9841C102.991 16.8961 103.983 16.3201 105.391 16.3201H105.679V17.6321H105.391C103.599 17.6321 102.559 18.6561 102.559 20.4001V24.8481Z" fill="#725F00"/>
</svg>
