<svg width="98" height="38" viewBox="0 0 98 38" fill="none" xmlns="http://www.w3.org/2000/svg">
<mask id="mask0_1202_105" style="mask-type:luminance" maskUnits="userSpaceOnUse" x="10" y="8" width="20" height="22">
<path d="M29.9725 8.4353H10V29.5649H29.9725V8.4353Z" fill="white"/>
</mask>
<g mask="url(#mask0_1202_105)">
<path d="M11.5877 14.2341C11.904 13.711 12.4912 13.1349 12.2475 12.6942C12.0037 12.2535 10.4022 10.3726 10.145 10.1891C9.88768 10.0057 9.97385 9.61552 10.3776 9.39518C10.7814 9.17484 14.153 7.95741 20.2475 8.64182C26.342 9.32625 29.3875 14.3117 29.5019 17.847H24.2875C24.0395 16.978 23.5519 16.1964 22.8806 15.5915C22.2093 14.9865 21.3813 14.5827 20.4912 14.4261C17.5751 14.2957 15.6523 16.6899 15.6523 18.8896C15.6523 21.0894 17.2833 23.3704 19.7514 23.4688C22.2195 23.5673 23.8481 21.5461 24.1743 20.3569H29.5019C29.5019 20.3569 29.2902 22.5395 28.0358 24.3157C27.7429 24.7232 27.6075 24.8537 27.7897 25.2439C27.9718 25.6341 29.7087 27.5827 29.8429 27.8105C29.9771 28.0382 30.1359 28.2832 29.5746 28.6168C29.0132 28.9503 19.6529 31.0368 14.9359 27.6886C10.2188 24.3404 9.24142 18.108 11.5877 14.2341Z" fill="#1F504A"/>
</g>
<path d="M46.2924 25.176C42.8524 25.176 40.8204 22.76 40.8204 19.368C40.8204 16.04 42.8524 13.624 46.2924 13.624C49.1404 13.624 51.0924 15.288 51.5724 18.104H50.1804C49.7644 16.056 48.3244 14.856 46.2924 14.856C43.7804 14.856 42.2284 16.6 42.2284 19.368C42.2284 22.232 43.7804 23.944 46.2924 23.944C48.3884 23.944 49.7484 22.808 50.1804 20.696H51.5724C51.0764 23.608 49.2204 25.176 46.2924 25.176ZM54.8895 25H53.5615V13H54.8895V25ZM57.7793 15.096C57.2193 15.096 56.7873 14.664 56.7873 14.104C56.7873 13.544 57.2193 13.128 57.7793 13.128C58.3393 13.128 58.7553 13.544 58.7553 14.104C58.7553 14.664 58.3393 15.096 57.7793 15.096ZM58.4353 25H57.1073V16.52H58.4353V25ZM68.3033 28.2H66.9753V23.592C66.3833 24.568 65.3273 25.176 64.0313 25.176C61.7593 25.176 60.1753 23.352 60.1753 20.712C60.1753 18.12 61.7433 16.328 64.0153 16.328C65.3913 16.328 66.5273 16.968 67.1033 17.992L67.2473 16.52H68.3033V28.2ZM64.2393 24.024C65.8553 24.024 66.9753 22.648 66.9753 20.68C66.9753 18.776 65.8873 17.464 64.3193 17.464C62.6873 17.464 61.5513 18.792 61.5513 20.712C61.5513 22.664 62.6553 24.024 64.2393 24.024ZM73.6015 25.176C71.5375 25.176 70.3535 23.912 70.3535 22.184V16.52H71.6815V22.136C71.6815 23.352 72.5295 24.008 73.7295 24.008C75.3135 24.008 76.1775 22.952 76.1935 21.672V16.52H77.5215V25H76.4655L76.3535 23.72C75.7935 24.68 74.7695 25.176 73.6015 25.176ZM83.445 25.176C80.933 25.176 79.269 23.336 79.269 20.792C79.269 17.896 81.141 16.328 83.285 16.328C85.621 16.328 87.125 17.896 87.173 20.616V20.984H80.597C80.677 22.792 81.733 24.024 83.445 24.024C84.629 24.024 85.493 23.432 85.845 22.328H87.141C86.757 24.072 85.381 25.176 83.445 25.176ZM80.677 19.88H85.781C85.541 18.392 84.645 17.48 83.285 17.48C81.941 17.48 80.949 18.36 80.677 19.88Z" fill="#1F504A"/>
</svg>
