<svg width="114" height="38" viewBox="0 0 114 38" fill="none" xmlns="http://www.w3.org/2000/svg">
<path fill-rule="evenodd" clip-rule="evenodd" d="M31.6 19C31.6 24.3019 27.3019 28.6 22 28.6C16.6981 28.6 12.4 24.3019 12.4 19C12.4 13.6981 16.6981 9.4 22 9.4C27.3019 9.4 31.6 13.6981 31.6 19ZM34 19C34 25.6274 28.6274 31 22 31C15.3726 31 10 25.6274 10 19C10 12.3726 15.3726 7 22 7C28.6274 7 34 12.3726 34 19ZM17.0508 19.4799C17.0508 16.6141 19.374 14.2908 22.24 14.2908V11.8583C18.0306 11.8583 14.6184 15.2707 14.6184 19.4799H17.0508Z" fill="#933A21"/>
<path d="M100.955 11.24H103.375V26.22H100.955V25.1C100.175 26.08 99.3155 26.5 98.1155 26.5C95.6755 26.5 93.8555 24.52 93.8555 21.88C93.8555 19.28 95.6955 17.28 98.0755 17.28C99.2555 17.28 100.115 17.7 100.955 18.68V11.24ZM98.7955 19.46C97.4355 19.46 96.3555 20.54 96.3555 21.88C96.3555 23.24 97.4555 24.32 98.7955 24.32C100.115 24.32 101.215 23.22 101.215 21.92C101.215 20.54 100.155 19.46 98.7955 19.46Z" fill="#933A21"/>
<path d="M83.6514 17.56H86.0714V18.64C86.8314 17.66 87.6114 17.28 88.7914 17.28C89.8114 17.28 90.7314 17.66 91.3114 18.32C91.8114 18.9 91.9914 19.54 91.9914 20.72V26.22H89.5714V21.42C89.5714 20.7 89.5114 20.32 89.3314 20.02C89.0914 19.6 88.5514 19.34 87.9114 19.34C86.6714 19.34 86.0714 20.1 86.0714 21.74V26.22H83.6514V17.56Z" fill="#933A21"/>
<path d="M75.3682 17.5601V22.4601C75.3682 23.7601 75.9682 24.4401 77.1482 24.4401C78.3082 24.4401 78.9082 23.7601 78.9082 22.4601V17.5601H81.3282V22.8601C81.3282 25.2001 79.8282 26.5001 77.1482 26.5001C74.4482 26.5001 72.9482 25.2001 72.9482 22.8601V17.5601H75.3682Z" fill="#933A21"/>
<path d="M69.4718 19.66V26.22H67.0518V19.66H66.1118V17.56H67.0518V14.78C67.0518 13.5 67.2718 12.8 67.8518 12.14C68.5118 11.42 69.4518 11 70.4118 11C70.8918 11 71.1718 11.06 71.6918 11.3V13.5C71.1718 13.26 70.9118 13.18 70.5918 13.18C70.1718 13.18 69.7918 13.42 69.6518 13.8C69.5118 14.1 69.4718 14.46 69.4718 15.14V17.56H71.6918V19.66H69.4718Z" fill="#933A21"/>
<path d="M63.3117 23.3398C64.1917 23.3398 64.8917 24.0398 64.8917 24.8998C64.8917 25.7798 64.1917 26.4798 63.3317 26.4798C62.4517 26.4798 61.7517 25.7798 61.7517 24.8998C61.7517 24.0398 62.4717 23.3398 63.3117 23.3398Z" fill="#933A21"/>
<path d="M55.7412 17.56H58.1612V18.88C58.7812 17.78 59.5812 17.28 60.6812 17.28C61.0612 17.28 61.3012 17.32 61.7412 17.5L61.4012 19.76C60.9612 19.52 60.7212 19.46 60.2412 19.46C59.5812 19.46 59.0612 19.68 58.7012 20.08C58.3012 20.54 58.1612 21.08 58.1612 22.06V26.22H55.7412V17.56Z" fill="#933A21"/>
<path d="M53.4151 11.24V26.22H50.9951V11.24H53.4151Z" fill="#933A21"/>
<path d="M48.96 17.8V20.2C48.26 19.66 47.72 19.46 47 19.46C45.56 19.46 44.5 20.5 44.5 21.9C44.5 23.3 45.56 24.32 47 24.32C47.74 24.32 48.3 24.12 48.96 23.6V25.96C48.18 26.36 47.54 26.5 46.74 26.5C44.06 26.5 42 24.52 42 21.94C42 19.3 44.06 17.28 46.76 17.28C47.62 17.28 48.26 17.44 48.96 17.8Z" fill="#933A21"/>
</svg>
