<svg width="77" height="38" viewBox="0 0 77 38" fill="none" xmlns="http://www.w3.org/2000/svg">
<path d="M66.3984 21.4531C66.3984 21.8542 66.3464 22.2161 66.2422 22.5391C66.1432 22.8568 66.0104 23.138 65.8438 23.3828C65.6771 23.6276 65.4818 23.8359 65.2578 24.0078C65.0339 24.1797 64.8021 24.3203 64.5625 24.4297C64.3229 24.5391 64.0781 24.6198 63.8281 24.6719C63.5833 24.724 63.3516 24.75 63.1328 24.75H55.2969V22.7188H63.1328C63.5234 22.7188 63.8255 22.6042 64.0391 22.375C64.2578 22.1458 64.3672 21.8385 64.3672 21.4531C64.3672 21.2656 64.3385 21.0938 64.2812 20.9375C64.224 20.7812 64.1406 20.6458 64.0312 20.5312C63.9271 20.4167 63.7969 20.3281 63.6406 20.2656C63.4896 20.2031 63.3203 20.1719 63.1328 20.1719H58.4609C58.1328 20.1719 57.7786 20.1146 57.3984 20C57.0182 19.8802 56.6641 19.6901 56.3359 19.4297C56.013 19.1693 55.7422 18.8281 55.5234 18.4062C55.3099 17.9844 55.2031 17.4688 55.2031 16.8594C55.2031 16.25 55.3099 15.737 55.5234 15.3203C55.7422 14.8984 56.013 14.5573 56.3359 14.2969C56.6641 14.0312 57.0182 13.8411 57.3984 13.7266C57.7786 13.6068 58.1328 13.5469 58.4609 13.5469H65.375V15.5781H58.4609C58.0755 15.5781 57.7734 15.6953 57.5547 15.9297C57.3411 16.1641 57.2344 16.474 57.2344 16.8594C57.2344 17.25 57.3411 17.5599 57.5547 17.7891C57.7734 18.013 58.0755 18.125 58.4609 18.125H63.1328H63.1484C63.3672 18.1302 63.599 18.1615 63.8438 18.2188C64.0885 18.2708 64.3307 18.3542 64.5703 18.4688C64.8151 18.5833 65.0469 18.7292 65.2656 18.9062C65.4844 19.0781 65.6771 19.2865 65.8438 19.5312C66.0156 19.776 66.151 20.0573 66.25 20.375C66.349 20.6927 66.3984 21.0521 66.3984 21.4531Z" fill="#1F504A"/>
<path d="M53.2656 24.75H51.2344V22H44.0938V24.75H42.0625V19.1484C42.0625 18.3307 42.2031 17.5781 42.4844 16.8906C42.7656 16.2031 43.1562 15.612 43.6562 15.1172C44.1562 14.6224 44.7474 14.237 45.4297 13.9609C46.112 13.6849 46.8568 13.5469 47.6641 13.5469H52.2422C52.3828 13.5469 52.5156 13.5729 52.6406 13.625C52.7656 13.6771 52.875 13.75 52.9688 13.8438C53.0625 13.9375 53.1354 14.0469 53.1875 14.1719C53.2396 14.2969 53.2656 14.4297 53.2656 14.5703V24.75ZM44.0938 19.9688H51.2344V15.5781H47.6641C47.6016 15.5781 47.4688 15.5885 47.2656 15.6094C47.0677 15.625 46.8359 15.6693 46.5703 15.7422C46.3099 15.8151 46.0339 15.9271 45.7422 16.0781C45.4505 16.2292 45.1823 16.4375 44.9375 16.7031C44.6927 16.9688 44.4896 17.3021 44.3281 17.7031C44.1719 18.099 44.0938 18.5807 44.0938 19.1484V19.9688Z" fill="#1F504A"/>
<path d="M39.3906 20.1719H32.9766V18.125H39.3906V20.1719ZM40.3047 24.75H32.9766C32.6953 24.75 32.388 24.7005 32.0547 24.6016C31.7214 24.5026 31.4115 24.3411 31.125 24.1172C30.8438 23.888 30.6068 23.5938 30.4141 23.2344C30.2266 22.8698 30.1328 22.4245 30.1328 21.8984V14.5703C30.1328 14.4297 30.1589 14.2969 30.2109 14.1719C30.263 14.0469 30.3333 13.9375 30.4219 13.8438C30.5156 13.75 30.625 13.6771 30.75 13.625C30.875 13.5729 31.0104 13.5469 31.1562 13.5469H40.3047V15.5781H32.1641V21.8984C32.1641 22.1641 32.2344 22.3672 32.375 22.5078C32.5156 22.6484 32.7214 22.7188 32.9922 22.7188H40.3047V24.75Z" fill="#1F504A"/>
<path d="M26 29.5H10V27.4231L16.5882 8.5H19.6471L26 27.4231V29.5Z" fill="#4C63B6"/>
<path d="M23 25.5H13V24.2143L17.1176 12.5H19.0294L23 24.2143V25.5Z" fill="#7B93DB"/>
<path d="M20 23.5H16V22.8077L17.6471 16.5H18.4118L20 22.8077V23.5Z" fill="#BED0F7"/>
</svg>
