<svg width="99" height="38" viewBox="0 0 99 38" fill="none" xmlns="http://www.w3.org/2000/svg">
<g clip-path="url(#clip0_1204_178)">
<path d="M30.8368 19.2566C30.8164 19.5488 30.8093 19.8428 30.7736 20.1328C30.3955 23.2126 28.9633 25.6805 26.4491 27.4877C24.571 28.838 22.4513 29.4681 20.1426 29.388C17.4727 29.2959 15.171 28.2993 13.2409 26.4462C13.2232 26.4291 13.2236 26.3609 13.2409 26.3426C15.6482 23.9243 18.0578 21.5085 20.4696 19.0951C20.5266 19.0428 20.6004 19.0125 20.6776 19.0098C24.0643 19.0056 27.4509 19.0044 30.8375 19.0062L30.8368 19.2566Z" fill="#933A21"/>
<path d="M20.7223 8.60498C21.007 8.62667 21.2923 8.63931 21.576 8.67005C23.2374 8.85067 24.7675 9.40075 26.1663 10.3203C26.1758 10.3274 26.1849 10.3351 26.1936 10.3433L25.3093 11.2283C25.1168 11.4209 24.9256 11.6148 24.7308 11.805C24.7185 11.813 24.7044 11.8179 24.6898 11.8191C24.6753 11.8204 24.6606 11.8181 24.647 11.8124C23.2388 10.9998 21.7229 10.6261 20.0994 10.6912C16.4672 10.838 13.3006 13.4181 12.4297 16.956C11.8906 19.1481 12.1905 21.2306 13.3006 23.1961C13.3112 23.2148 13.3118 23.256 13.2991 23.2679C12.8172 23.7548 12.3336 24.2404 11.8484 24.7248C11.8436 24.7295 11.8378 24.7334 11.8267 24.7423C11.781 24.6714 11.7351 24.6027 11.6918 24.5326C10.4946 22.5916 9.96612 20.482 10.1371 18.2049C10.4936 13.4712 14.0066 9.59314 18.6811 8.7696C19.1537 8.68643 19.6371 8.66531 20.1153 8.61547L20.213 8.60498H20.7223Z" fill="#933A21"/>
<path d="M25.9763 14.8804C25.9771 14.4481 26.1273 14.0295 26.4012 13.6957C26.6752 13.362 27.056 13.1337 27.4788 13.0499C27.9016 12.9661 28.3404 13.0318 28.7203 13.2359C29.1003 13.44 29.398 13.7698 29.5628 14.1692C29.7276 14.5687 29.7493 15.0131 29.6241 15.4268C29.499 15.8405 29.2348 16.1978 28.8765 16.4381C28.5182 16.6785 28.088 16.7868 27.659 16.7447C27.23 16.7026 26.8288 16.5128 26.5237 16.2074C26.35 16.0332 26.2121 15.8263 26.1182 15.5986C26.0243 15.3709 25.9761 15.1268 25.9763 14.8804Z" fill="#933A21"/>
</g>
<path d="M46.296 25.0881C43.208 25.0881 41 22.8161 41 19.2801C41 15.9521 43.032 13.5361 46.44 13.5361C49.288 13.5361 51.256 15.2641 51.72 18.0161H50.328C49.912 15.9681 48.488 14.7681 46.44 14.7681C43.96 14.7681 42.408 16.4801 42.408 19.2801C42.408 22.1121 43.992 23.8561 46.296 23.8561C48.392 23.8561 49.72 22.4321 49.72 20.4001H45.944V19.2481H49.88C51.048 19.2481 51.672 19.8401 51.672 20.9281V24.9121H50.472V21.0881H50.44C50.232 23.5521 48.776 25.0881 46.296 25.0881Z" fill="#933A21"/>
<path d="M54.4901 15.0081C53.9301 15.0081 53.4981 14.5761 53.4981 14.0161C53.4981 13.4561 53.9301 13.0401 54.4901 13.0401C55.0501 13.0401 55.4661 13.4561 55.4661 14.0161C55.4661 14.5761 55.0501 15.0081 54.4901 15.0081ZM55.1461 24.9121H53.8181V16.4321H55.1461V24.9121Z" fill="#933A21"/>
<path d="M61.4781 24.9121H60.0861L56.5501 16.4321H57.9901L60.7901 23.3601L63.5741 16.4321H65.0141L61.4781 24.9121Z" fill="#933A21"/>
<path d="M69.859 25.0881C67.347 25.0881 65.683 23.2481 65.683 20.7041C65.683 17.8081 67.555 16.2401 69.699 16.2401C72.035 16.2401 73.539 17.8081 73.587 20.5281V20.8961H67.011C67.091 22.7041 68.147 23.9361 69.859 23.9361C71.043 23.9361 71.907 23.3441 72.259 22.2401H73.555C73.171 23.9841 71.795 25.0881 69.859 25.0881ZM67.091 19.7921H72.195C71.955 18.3041 71.059 17.3921 69.699 17.3921C68.355 17.3921 67.363 18.2721 67.091 19.7921Z" fill="#933A21"/>
<path d="M79.531 24.9121H78.587C76.939 24.9121 76.059 24.0641 76.059 22.4961V17.5521H74.491V16.4321H76.059V13.5361H77.387V16.4321H79.675V17.5521H77.387V22.4961C77.387 23.3441 77.803 23.7921 78.587 23.7921H79.531V24.9121Z" fill="#933A21"/>
<path d="M82.616 24.9121H81.288V12.9121H82.616V17.5201C83.224 16.7521 84.264 16.2401 85.416 16.2401C87.24 16.2401 88.456 17.4241 88.456 19.2961V24.9121H87.128V19.3441C87.128 18.1601 86.36 17.4081 85.16 17.4081C83.56 17.4081 82.632 18.4641 82.616 19.7601V24.9121Z" fill="#933A21"/>
<defs>
<clipPath id="clip0_1204_178">
<rect width="21" height="21" fill="white" transform="translate(10 8.5)"/>
</clipPath>
</defs>
</svg>
