<svg width="162" height="38" viewBox="0 0 162 38" fill="none" xmlns="http://www.w3.org/2000/svg">
<path d="M32.1761 25.1926V15.6287H29.4697V12.824H37.9178V15.6294H35.2114V25.1933H32.1768L32.1761 25.1926Z" fill="#933A21"/>
<path d="M10 19.0578C10 15.219 12.9363 12.5942 16.6436 12.5942C18.8744 12.5942 20.8921 13.4962 22.188 15.4322L19.5141 16.8263C18.7921 15.842 17.857 15.3173 16.6761 15.3173C14.5927 15.3173 13.1328 16.9412 13.1328 19.0738C13.1328 21.2064 14.7242 22.7977 16.5778 22.7977C18.1034 22.7977 19.2026 21.8792 19.3992 20.6651V20.6485H16.8076V18.3193H22.7951V18.844C22.7951 22.8794 20.3834 25.4058 16.5453 25.4058C12.9196 25.4058 10 22.7977 10 19.0578Z" fill="#933A21"/>
<path d="M24.8762 25.1926V12.824H27.9108V25.1926H24.8762Z" fill="#933A21"/>
<path d="M64.665 25.1926V12.824H67.6997V25.1926H64.665Z" fill="#933A21"/>
<path d="M78.9918 12.824H81.9616V25.1926H79.5008L73.3003 17.4007L73.3495 25.1926H70.364V12.824H72.8902L79.0912 20.5668L78.9929 12.824H78.9918Z" fill="#933A21"/>
<path d="M45.2702 22.6011C43.3839 22.6011 41.7927 21.1247 41.7927 19.0087C41.7927 17.0076 43.3182 15.4162 45.3034 15.4162C46.2811 15.4162 47.1346 15.7862 47.7555 16.3985C48.055 15.4421 48.5212 14.5475 49.1409 13.7479C48.0557 13.0233 46.7353 12.6108 45.3194 12.6108C41.6778 12.6108 38.6592 15.3339 38.6592 18.9921C38.6592 22.8309 41.6937 25.4058 45.2702 25.4058C46.6982 25.4058 48.0284 25.006 49.1196 24.2954C48.5073 23.4965 48.0457 22.5965 47.7502 21.6281C47.1199 22.2378 46.2538 22.6011 45.2702 22.6011Z" fill="#933A21"/>
<path d="M56.1477 12.6108C53.8624 12.6108 51.8228 13.6835 50.62 15.3864C49.9066 16.3972 49.4875 17.6299 49.4875 18.9921C49.4875 20.3542 49.9054 21.6653 50.6133 22.6748C51.8135 24.3864 53.8491 25.4058 56.0987 25.4058C59.7568 25.4058 62.7754 22.7811 62.7754 19.0246C62.7754 15.2681 59.7734 12.6108 56.1477 12.6108ZM56.0987 22.6011C54.2124 22.6011 52.6212 21.1247 52.6212 19.0087C52.6212 17.0076 54.1466 15.4162 56.1318 15.4162C58.117 15.4162 59.6426 16.991 59.6426 19.0253C59.6426 21.0596 58.117 22.6011 56.0993 22.6011H56.0987Z" fill="#933A21"/>
<path d="M148.128 25.154C146.05 25.154 144.586 24.0995 143.91 22.6041L145.531 21.3923C146.129 22.557 146.995 23.1078 148.018 23.1078C149.01 23.1078 149.592 22.5098 149.592 21.6441C149.592 20.7785 149.151 20.2905 147.545 19.5979C145.61 18.7638 144.461 17.9453 144.461 16.1353C144.461 14.2623 146.019 12.8457 148.175 12.8457C149.828 12.8457 151.009 13.5697 151.763 14.6872L150.253 16.0408C149.764 15.3168 149.151 14.8919 148.269 14.8919C147.435 14.8919 146.853 15.4113 146.853 16.0566C146.853 16.7019 147.357 17.0954 148.963 17.7879C151.071 18.6694 152 19.6767 152 21.6127C152 23.7532 150.331 25.154 148.128 25.154Z" fill="#933A21"/>
<path d="M140.994 24.9338H138.618V15.254H135.958V13.0662H143.639V15.254H140.994V24.9338Z" fill="#933A21"/>
<path d="M132.324 20.9989L132.261 13.0662H134.59V24.9338H133L126.091 17.0168L126.138 24.9338H123.808V13.0662H125.414L132.324 20.9989Z" fill="#933A21"/>
<path d="M122.689 24.9338H120.092L119.1 22.3682H114.347L113.292 24.9338H110.79L115.984 13.0662H117.653L122.689 24.9338ZM115.858 18.7009L115.15 20.4165H118.329L117.668 18.7009C117.369 17.9139 117.069 17.127 116.787 16.34C116.488 17.127 116.173 17.9139 115.858 18.7009Z" fill="#933A21"/>
<path d="M107.418 20.0703L110.912 24.9338H108.08L105.104 20.3221H104.758V24.9338H102.397V13.0662H105.246C107.953 13.0662 109.889 14.1365 109.889 16.702C109.889 18.213 109.071 19.3777 107.418 20.0703ZM105.341 15.1123H104.758V18.4648H105.277C106.709 18.4648 107.559 17.9297 107.559 16.7492C107.559 15.616 106.788 15.1123 105.341 15.1123Z" fill="#933A21"/>
<path d="M94.6461 25.154C91.2305 25.154 88.4915 22.5098 88.4915 19.0471C88.4915 15.4427 91.2937 12.8457 94.772 12.8457C96.8021 12.8457 98.4869 13.6169 99.8718 15.4113L97.9357 16.6862C97.1171 15.5686 96.078 15.002 94.8033 15.002C92.5522 15.002 90.8847 16.7491 90.8847 19.0471C90.8847 21.3765 92.7257 23.0607 94.6931 23.0607C96.4087 23.0607 97.6521 21.9275 97.8255 20.5267V20.5109H95.1021V18.5435H100.422V18.9999C100.422 22.7302 98.1875 25.154 94.6461 25.154Z" fill="#933A21"/>
</svg>
