<svg width="151" height="38" viewBox="0 0 151 38" fill="none" xmlns="http://www.w3.org/2000/svg">
<path d="M13.9763 14.0444L21.3514 9.77993V9.77843C21.598 9.6357 21.902 9.6357 22.1487 9.77843L29.5238 14.0429C29.7704 14.1856 29.9224 14.4491 29.9224 14.7346V23.2629C29.9224 23.5484 29.7704 23.8119 29.5238 23.9546L22.1487 28.2191C21.902 28.3618 21.598 28.3618 21.3514 28.2191L17.5642 26.0292C17.3175 25.8865 17.1655 25.623 17.1655 25.3375V16.8091C17.1655 16.5237 17.3175 16.2602 17.5642 16.1175L21.3514 13.9276C21.598 13.7849 21.902 13.7849 22.1487 13.9276L25.9359 16.1175C26.1825 16.2602 26.3345 16.5237 26.3345 16.8091V21.1889C26.3345 21.4743 26.1825 21.7378 25.9359 21.8806L22.1417 24.0744C21.896 24.2166 21.5936 24.2171 21.3474 24.0764L21.155 23.9666C20.9069 23.8244 20.7534 23.5599 20.7534 23.2734V18.7839C20.7534 18.5703 20.8675 18.3722 21.0524 18.2654L21.5507 17.9774C21.6743 17.9061 21.8258 17.9061 21.9494 17.9774L22.348 18.208C22.5947 18.3507 22.7467 18.6142 22.7467 18.8997V21.0756C22.7467 21.2293 22.9126 21.3251 23.0457 21.2483L23.9426 20.7297C24.1893 20.587 24.3413 20.3235 24.3413 20.038V17.9635C24.3413 17.678 24.1893 17.4145 23.9426 17.2718L22.1487 16.2347C21.902 16.092 21.598 16.092 21.3514 16.2347L19.5574 17.2718C19.3108 17.4145 19.1588 17.678 19.1588 17.9635V24.1872C19.1588 24.4727 19.3108 24.7362 19.5574 24.8789L21.3514 25.9159C21.598 26.0587 21.902 26.0587 22.1487 25.9159L27.5305 22.8043C27.7772 22.6616 27.9291 22.3981 27.9291 22.1126V15.8889C27.9291 15.6034 27.7772 15.3399 27.5305 15.1972L22.1487 12.0856C21.902 11.9428 21.598 11.9428 21.3514 12.0856L15.9696 15.1972C15.7229 15.3399 15.5709 15.6034 15.5709 15.8889V24.5325C15.5709 24.6863 15.405 24.7821 15.2719 24.7052L14.3749 24.1867C13.8816 23.9017 13.5776 23.3742 13.5776 22.8038V14.7361C13.5776 14.4506 13.7296 14.1871 13.9763 14.0444Z" fill="#1F504A"/>
<path fill-rule="evenodd" clip-rule="evenodd" d="M21.3516 32.3578L10.3987 26.0247C10.152 25.882 10 25.6185 10 25.333V12.6669C10 12.3815 10.152 12.118 10.3987 11.9752L21.3516 5.6422C21.5983 5.49947 21.9023 5.49947 22.1489 5.6422L33.1019 11.9752C33.3486 12.118 33.5006 12.3815 33.5006 12.6669V25.333C33.5006 25.6185 33.3486 25.882 33.1019 26.0247L22.1489 32.3578C21.9023 32.5005 21.5983 32.5005 21.3516 32.3578ZM12.3919 24.8724L21.3516 30.0531C21.5983 30.1958 21.9023 30.1958 22.1489 30.0531L31.1087 24.8724C31.3553 24.7297 31.5073 24.4662 31.5073 24.1807V13.8197C31.5073 13.5343 31.3553 13.2708 31.1087 13.1281L22.1489 7.94735C21.9023 7.80462 21.5983 7.80462 21.3516 7.94735L12.3919 13.1281C12.1453 13.2708 11.9933 13.5343 11.9933 13.8197V24.1807C11.9933 24.4662 12.1453 24.7297 12.3919 24.8724Z" fill="#1F504A"/>
<path d="M53.225 23.6909C54.3171 23.6909 54.8632 22.9362 54.8632 21.4267V17.5354H56.4742V24.8298H54.8632V23.8265C54.43 24.6129 53.7124 25.0061 52.7106 25.0061C51.086 25.0061 50.2737 24.048 50.2737 22.1317V17.5354H51.8847V21.7385C51.8847 22.0277 51.8983 22.2718 51.9254 22.4707C51.9524 22.6695 52.0066 22.8729 52.0878 23.0808C52.1781 23.2796 52.318 23.4333 52.5075 23.5418C52.697 23.6412 52.9362 23.6909 53.225 23.6909Z" fill="#1F504A"/>
<path d="M61.7401 17.3728C60.7654 17.3728 60.0614 17.766 59.6282 18.5523V17.5355H58.0171V24.8299H59.6282V20.9522C59.6282 19.4427 60.1607 18.6879 61.2257 18.6879C61.5145 18.6879 61.7492 18.7422 61.9297 18.8506C62.1102 18.9501 62.2411 19.1037 62.3223 19.3116C62.4035 19.5105 62.4532 19.7093 62.4712 19.9082C62.4983 20.098 62.5118 20.3421 62.5118 20.6404V24.8299H64.1229V20.9522C64.1229 19.4427 64.6554 18.6879 65.7204 18.6879C66.0092 18.6879 66.2439 18.7422 66.4244 18.8506C66.6049 18.9501 66.7358 19.1037 66.817 19.3116C66.8983 19.5105 66.9479 19.7093 66.966 19.9082C66.993 20.098 67.0066 20.3421 67.0066 20.6404V24.8299H68.6176V20.2472C68.6176 18.3309 67.8234 17.3728 66.2349 17.3728C65.2511 17.3728 64.4614 17.8021 63.8657 18.6608C63.5046 17.8021 62.7961 17.3728 61.7401 17.3728Z" fill="#1F504A"/>
<path fill-rule="evenodd" clip-rule="evenodd" d="M72.2896 25.0061C71.4953 25.0061 70.8455 24.8072 70.3401 24.4095C69.8437 24.0118 69.5955 23.483 69.5955 22.8232C69.5955 22.5249 69.6496 22.2582 69.7579 22.0232C69.8753 21.7882 70.0513 21.5848 70.2859 21.4131C70.5206 21.2414 70.7733 21.0967 71.0441 20.9792C71.3148 20.8527 71.6488 20.7442 72.0459 20.6538C72.4521 20.5634 72.8356 20.4911 73.1967 20.4369C73.5667 20.3826 73.9999 20.3284 74.4963 20.2742V20.1386C74.4963 19.0539 73.9909 18.5116 72.9801 18.5116C72.5559 18.5116 72.2084 18.6246 71.9376 18.8505C71.6759 19.0765 71.536 19.4019 71.5179 19.8267H69.9339C69.9881 19.0855 70.2995 18.4845 70.8681 18.0235C71.4367 17.5534 72.1587 17.3184 73.0342 17.3184C73.9819 17.3184 74.7355 17.567 75.2951 18.0641C75.8547 18.5522 76.1255 19.3477 76.1074 20.4504C76.1074 20.5408 76.1029 20.8165 76.0939 21.2775C76.0848 21.7385 76.0803 22.091 76.0803 22.3351C76.0803 23.4107 76.1525 24.2423 76.297 24.8298H74.8213C74.7491 24.4321 74.7039 24.1022 74.6859 23.8401C74.2256 24.6174 73.4268 25.0061 72.2896 25.0061ZM74.036 23.3384C74.37 23.0311 74.537 22.5701 74.537 21.9554V21.3995C73.3636 21.508 72.5288 21.6662 72.0324 21.8741C71.545 22.0729 71.3013 22.3757 71.3013 22.7825C71.3013 23.0989 71.4231 23.3474 71.6668 23.5282C71.9105 23.709 72.2355 23.7994 72.6416 23.7994C73.2463 23.7994 73.7111 23.6457 74.036 23.3384Z" fill="#1F504A"/>
<path d="M81.2836 17.3728C80.2457 17.3728 79.5101 17.766 79.0769 18.5523V17.5355H77.4658V24.8299H79.0769V20.9522C79.0769 19.4427 79.641 18.6879 80.7692 18.6879C81.067 18.6879 81.3107 18.7422 81.5002 18.8506C81.6988 18.9501 81.8387 19.1037 81.9199 19.3116C82.0102 19.5105 82.0688 19.7093 82.0959 19.9082C82.132 20.1071 82.1501 20.3511 82.1501 20.6404V24.8299H83.7611V20.2472C83.7611 18.3309 82.9353 17.3728 81.2836 17.3728Z" fill="#1F504A"/>
<path fill-rule="evenodd" clip-rule="evenodd" d="M92.9852 20.9929C92.5249 21.0742 91.9834 21.1149 91.3606 21.1149H89.8172V24.8299H88.0979V15H91.3335C91.8209 15 92.2451 15.0181 92.6061 15.0542C92.9672 15.0904 93.3372 15.1717 93.7163 15.2983C94.1044 15.4248 94.4203 15.5966 94.664 15.8135C94.9077 16.0305 95.1062 16.3333 95.2597 16.7219C95.4221 17.1016 95.5034 17.5581 95.5034 18.0914C95.5034 18.6879 95.3996 19.1941 95.192 19.6099C94.9844 20.0167 94.682 20.3285 94.2849 20.5454C93.8878 20.7533 93.4546 20.9025 92.9852 20.9929ZM92.0511 16.4101C91.8525 16.392 91.6133 16.383 91.3335 16.383H89.8172V19.7048H91.4148C92.1729 19.7048 92.746 19.6009 93.1341 19.393C93.5222 19.176 93.7163 18.7467 93.7163 18.1049C93.7163 17.7976 93.6666 17.5355 93.5674 17.3185C93.4771 17.1016 93.3643 16.9344 93.2289 16.8169C93.0935 16.6903 92.913 16.5954 92.6874 16.5321C92.4617 16.4689 92.2496 16.4282 92.0511 16.4101Z" fill="#1F504A"/>
<path fill-rule="evenodd" clip-rule="evenodd" d="M96.3601 24.4095C96.8655 24.8072 97.5154 25.0061 98.3096 25.0061C99.4468 25.0061 100.246 24.6174 100.706 23.8401C100.724 24.1022 100.769 24.4321 100.841 24.8298H102.317C102.173 24.2423 102.1 23.4107 102.1 22.3351C102.1 22.091 102.105 21.7385 102.114 21.2775C102.123 20.8165 102.127 20.5408 102.127 20.4504C102.145 19.3477 101.875 18.5522 101.315 18.0641C100.755 17.567 100.002 17.3184 99.0542 17.3184C98.1787 17.3184 97.4567 17.5534 96.8881 18.0235C96.3195 18.4845 96.0081 19.0855 95.9539 19.8267H97.5379C97.556 19.4019 97.6959 19.0765 97.9576 18.8505C98.2284 18.6246 98.5759 18.5116 99.0001 18.5116C100.011 18.5116 100.516 19.0539 100.516 20.1386V20.2742C100.02 20.3284 99.5867 20.3826 99.2167 20.4369C98.8556 20.4911 98.4721 20.5634 98.0659 20.6538C97.6688 20.7442 97.3348 20.8527 97.0641 20.9792C96.7933 21.0967 96.5406 21.2414 96.3059 21.4131C96.0713 21.5848 95.8953 21.7882 95.7779 22.0232C95.6696 22.2582 95.6155 22.5249 95.6155 22.8232C95.6155 23.483 95.8637 24.0118 96.3601 24.4095ZM98.0524 21.8741C98.5488 21.6662 99.3836 21.508 100.557 21.3995V21.9554C100.557 22.5701 100.39 23.0311 100.056 23.3384C99.7311 23.6457 99.2663 23.7994 98.6616 23.7994C98.2555 23.7994 97.9305 23.709 97.6869 23.5282C97.4432 23.3474 97.3213 23.0989 97.3213 22.7825C97.3213 22.3757 97.565 22.0729 98.0524 21.8741Z" fill="#1F504A"/>
<path d="M108.102 17.9287C108.662 18.2993 109.014 18.8326 109.158 19.5286H107.642C107.479 18.9139 106.947 18.6066 106.044 18.6066C105.674 18.6066 105.354 18.6834 105.083 18.8371C104.821 18.9817 104.691 19.1715 104.691 19.4065C104.691 19.8585 105.016 20.1477 105.665 20.2743L106.694 20.4777C107.1 20.559 107.443 20.6494 107.723 20.7488C108.012 20.8392 108.283 20.9658 108.535 21.1285C108.788 21.2912 108.978 21.4991 109.104 21.7522C109.23 22.0052 109.294 22.3035 109.294 22.647C109.294 23.3792 108.996 23.9577 108.4 24.3825C107.804 24.7983 107.073 25.0062 106.207 25.0062C105.331 25.0062 104.609 24.7847 104.041 24.3418C103.472 23.8899 103.143 23.3114 103.052 22.6063H104.623C104.776 23.3927 105.322 23.7859 106.261 23.7859C106.694 23.7859 107.046 23.7001 107.317 23.5283C107.588 23.3566 107.723 23.1261 107.723 22.8368C107.723 22.3397 107.303 22.0052 106.464 21.8335L105.368 21.6166C104.682 21.4719 104.145 21.2369 103.756 20.9115C103.368 20.5861 103.174 20.1116 103.174 19.4879C103.174 18.8642 103.463 18.358 104.041 17.9693C104.627 17.5716 105.327 17.3728 106.139 17.3728C106.888 17.3728 107.543 17.5581 108.102 17.9287Z" fill="#1F504A"/>
<path d="M112.9 18.6066C113.803 18.6066 114.335 18.9139 114.497 19.5286H116.014C115.869 18.8326 115.517 18.2993 114.958 17.9287C114.398 17.5581 113.744 17.3728 112.995 17.3728C112.182 17.3728 111.483 17.5716 110.896 17.9693C110.319 18.358 110.03 18.8642 110.03 19.4879C110.03 20.1116 110.224 20.5861 110.612 20.9115C111 21.2369 111.537 21.4719 112.223 21.6166L113.32 21.8335C114.159 22.0052 114.579 22.3397 114.579 22.8368C114.579 23.1261 114.443 23.3566 114.173 23.5283C113.902 23.7001 113.55 23.7859 113.117 23.7859C112.178 23.7859 111.632 23.3927 111.478 22.6063H109.908C109.998 23.3114 110.328 23.8899 110.896 24.3418C111.465 24.7847 112.187 25.0062 113.062 25.0062C113.929 25.0062 114.66 24.7983 115.256 24.3825C115.851 23.9577 116.149 23.3792 116.149 22.647C116.149 22.3035 116.086 22.0052 115.96 21.7522C115.833 21.4991 115.644 21.2912 115.391 21.1285C115.138 20.9658 114.868 20.8392 114.579 20.7488C114.299 20.6494 113.956 20.559 113.55 20.4777L112.521 20.2743C111.871 20.1477 111.546 19.8585 111.546 19.4065C111.546 19.1715 111.677 18.9817 111.939 18.8371C112.209 18.6834 112.53 18.6066 112.9 18.6066Z" fill="#1F504A"/>
<path fill-rule="evenodd" clip-rule="evenodd" d="M120.974 25.0062C119.99 25.0062 119.268 24.6266 118.808 23.8673V27.2027H117.197V17.5355H118.808V18.5117C119.268 17.7524 119.99 17.3728 120.974 17.3728C121.885 17.3728 122.634 17.7208 123.221 18.4168C123.808 19.1128 124.101 20.0347 124.101 21.1827C124.101 22.3397 123.808 23.2662 123.221 23.9622C122.634 24.6582 121.885 25.0062 120.974 25.0062ZM119.268 19.3387C118.916 19.7636 118.74 20.3782 118.74 21.1827C118.74 21.9872 118.916 22.6063 119.268 23.0402C119.62 23.4741 120.071 23.691 120.622 23.691C121.19 23.691 121.633 23.4696 121.949 23.0267C122.264 22.5837 122.422 21.9691 122.422 21.1827C122.422 20.4144 122.264 19.8088 121.949 19.3659C121.633 18.9139 121.19 18.6879 120.622 18.6879C120.071 18.6879 119.62 18.9049 119.268 19.3387Z" fill="#1F504A"/>
<path fill-rule="evenodd" clip-rule="evenodd" d="M128.329 17.3728C127.354 17.3728 126.51 17.7027 125.797 18.3625C125.093 19.0224 124.741 19.967 124.741 21.1963C124.741 22.4346 125.093 23.3792 125.797 24.03C126.51 24.6808 127.354 25.0062 128.329 25.0062C129.304 25.0062 130.143 24.6808 130.847 24.03C131.56 23.3792 131.917 22.4346 131.917 21.1963C131.917 19.967 131.56 19.0224 130.847 18.3625C130.143 17.7027 129.304 17.3728 128.329 17.3728ZM126.406 21.1963C126.406 20.3918 126.587 19.7726 126.948 19.3387C127.318 18.9049 127.778 18.6879 128.329 18.6879C128.879 18.6879 129.335 18.9049 129.696 19.3387C130.066 19.7726 130.251 20.3918 130.251 21.1963C130.251 22.0007 130.066 22.6199 129.696 23.0538C129.335 23.4786 128.879 23.691 128.329 23.691C127.778 23.691 127.318 23.4786 126.948 23.0538C126.587 22.6199 126.406 22.0007 126.406 21.1963Z" fill="#1F504A"/>
<path d="M138.279 24.4502C138.044 24.1881 137.927 23.6774 137.927 22.9181V18.7014H136.95V19.1759C136.679 19.1488 136.422 19.1353 136.178 19.1353C135.637 19.1353 135.235 19.2754 134.974 19.5556C134.712 19.8267 134.581 20.3103 134.581 21.0063V24.8298H132.97V17.5354H134.554V18.837C134.969 17.9783 135.628 17.5399 136.53 17.5218C136.621 17.5218 136.726 17.5272 136.844 17.5381V17.5354H137.927V15.6101H139.538V17.5354H141V18.7014H139.538V22.674C139.538 23.0446 139.597 23.2932 139.714 23.4198C139.831 23.5373 140.061 23.596 140.404 23.596H140.986V24.8298H139.795C139.028 24.8298 138.522 24.7033 138.279 24.4502Z" fill="#1F504A"/>
<path d="M47.0231 15H48.7425V24.8299H47.0231V20.4912H42.3388V24.8299H40.6194V15H42.3388V19.0676H47.0231V15Z" fill="#1F504A"/>
</svg>
