<svg width="131" height="38" viewBox="0 0 131 38" fill="none" xmlns="http://www.w3.org/2000/svg">
<path d="M31.7833 18.2046H11.4792V19.9001H31.7833V18.2046Z" fill="#F5F4FE"/>
<path d="M16.6333 28.4305V29.9999H10.0002L16.8519 19.7954H19.6422L21.6311 22.7676L23.5986 19.7954H26.4308L33.0947 29.9999H26.5973V28.4305H30.2625L24.9736 20.465L21.6311 25.5514L18.2577 20.4444L12.9571 28.4305H16.6333Z" fill="#F5F4FE"/>
<path d="M10 8L16.8516 18.2044H19.642L21.6308 15.2322L23.5984 18.2044H26.4306L33.0944 8H10ZM12.9568 9.56935H30.263L24.9734 17.5349L21.6308 12.4484L18.2574 17.5562L12.9568 9.56935Z" fill="#F5F4FE"/>
<path d="M44.4387 24.9121H43.0947V13.7121H44.4387V19.8401L50.2147 13.7121H51.9587L47.4947 18.3841L52.2627 24.9121H50.5987L46.5667 19.3601L44.4387 21.5841V24.9121Z" fill="#4D2CAB"/>
<path d="M55.0581 24.9121H53.7301V12.9121H55.0581V24.9121Z" fill="#4D2CAB"/>
<path d="M57.9479 15.0081C57.3879 15.0081 56.9559 14.5761 56.9559 14.0161C56.9559 13.4561 57.3879 13.0401 57.9479 13.0401C58.5079 13.0401 58.9239 13.4561 58.9239 14.0161C58.9239 14.5761 58.5079 15.0081 57.9479 15.0081ZM58.6039 24.9121H57.2759V16.4321H58.6039V24.9121Z" fill="#4D2CAB"/>
<path d="M62.1039 24.9121H60.7759V16.4321H61.8319L61.9599 17.7441C62.5359 16.8321 63.6399 16.2401 64.8559 16.2401C66.1359 16.2401 67.0959 16.8961 67.5279 17.9201C68.0719 16.9281 69.2399 16.2401 70.5359 16.2401C72.3279 16.2401 73.4799 17.5041 73.4799 19.2321V24.9121H72.1519V19.2801C72.1519 18.1441 71.4479 17.4081 70.3119 17.4081C68.7279 17.4081 67.7999 18.4641 67.7839 19.7601V24.9121H66.4719V19.2801C66.4719 18.1441 65.7679 17.4081 64.6319 17.4081C63.0479 17.4081 62.1199 18.4641 62.1039 19.7601V24.9121Z" fill="#4D2CAB"/>
<path d="M78.2931 25.0401C76.3731 25.0401 75.1411 24.0481 75.1411 22.4961C75.1411 20.5441 77.0291 20.1761 78.7251 20.0001C80.0211 19.8721 81.1411 19.8881 81.1571 19.2001C81.1411 18.1281 80.2611 17.3761 78.9811 17.3761C77.7491 17.3761 76.7891 18.0641 76.6451 19.0721H75.3331C75.4931 17.4081 76.9971 16.2401 79.0131 16.2401C81.1091 16.2401 82.4531 17.4881 82.4531 19.2801V23.4081C82.4531 23.6801 82.5971 23.8241 82.8851 23.8241H83.3651V24.9121H82.6131C81.7011 24.9121 81.2211 24.4961 81.2211 23.7121V23.4561C80.7251 24.4321 79.7651 25.0401 78.2931 25.0401ZM78.4851 23.9041C80.0691 23.9041 81.1571 22.8961 81.1571 21.4881V20.3841C80.7891 20.8801 79.8451 20.9761 78.8051 21.0881C77.6371 21.2161 76.4691 21.3761 76.4691 22.4641C76.4691 23.3441 77.2691 23.9041 78.4851 23.9041Z" fill="#4D2CAB"/>
<path d="M92.6717 24.9121H88.7197V13.7121H92.6717C95.8877 13.7121 98.1277 15.9841 98.1277 19.2481C98.1277 22.5921 95.8877 24.9121 92.6717 24.9121ZM90.0637 14.9441V23.6801H92.7517C95.0717 23.6801 96.7037 21.8561 96.7037 19.2481C96.7037 16.8321 95.0717 14.9441 92.7517 14.9441H90.0637Z" fill="#4D2CAB"/>
<path d="M100.215 24.9121H98.8234L103.431 13.7121H104.791L109.415 24.9121H108.023L106.711 21.7121H101.527L100.215 24.9121ZM104.119 15.4241L102.039 20.4961H106.199L104.119 15.4241Z" fill="#4D2CAB"/>
<path d="M115.506 25.0881C112.306 25.0881 110.114 22.8161 110.114 19.2801C110.114 15.9521 112.146 13.5361 115.506 13.5361C118.738 13.5361 120.93 15.8081 120.93 19.2801C120.93 22.6401 118.898 25.0881 115.506 25.0881ZM115.506 23.8561C118.002 23.8561 119.554 22.0801 119.554 19.2801C119.554 16.5121 117.986 14.7681 115.506 14.7681C113.042 14.7681 111.49 16.5121 111.49 19.2801C111.49 22.0801 113.042 23.8561 115.506 23.8561Z" fill="#4D2CAB"/>
</svg>
