<svg width="168" height="38" viewBox="0 0 168 38" fill="none" xmlns="http://www.w3.org/2000/svg">
<path fill-rule="evenodd" clip-rule="evenodd" d="M12.8139 18.5888C12.8139 19.2347 12.2847 19.7586 11.6308 19.7586C10.9775 19.7586 10.4477 19.2347 10.4477 18.5889C10.4477 17.9429 10.9775 17.4196 11.6308 17.4196C12.2846 17.4196 12.8139 17.9429 12.8139 18.5888ZM31.6163 18.5888C31.6163 19.2347 31.0864 19.7586 30.4334 19.7586C29.7799 19.7586 29.25 19.2347 29.25 18.5889C29.25 17.9429 29.7799 17.4196 30.4334 17.4196C31.0864 17.4196 31.6163 17.9429 31.6163 18.5888ZM22.2151 23.2039C22.2151 23.8497 21.6853 24.3736 21.0321 24.3736C20.3786 24.3736 19.8488 23.8497 19.8488 23.2039C19.8488 22.5581 20.3786 22.0345 21.0321 22.0345C21.6853 22.0345 22.2151 22.5581 22.2151 23.2039ZM17.4825 20.9282C17.4825 21.5738 16.953 22.0977 16.2993 22.0977C15.6458 22.0977 15.1163 21.5738 15.1163 20.9282C15.1163 20.282 15.6458 19.7586 16.2993 19.7586C16.9531 19.7586 17.4825 20.282 17.4825 20.9282ZM26.8837 20.9282C26.8837 21.5738 26.3539 22.0977 25.7007 22.0977C25.0469 22.0977 24.5174 21.5738 24.5174 20.9282C24.5174 20.282 25.047 19.7586 25.7007 19.7586C26.3539 19.7586 26.8837 20.282 26.8837 20.9282ZM12.4302 22.1296C12.4302 22.5653 12.0726 22.9196 11.6312 22.9196C11.1893 22.9196 10.8314 22.5653 10.8314 22.1296C10.8314 21.6929 11.1893 21.3391 11.6312 21.3391C12.0727 21.3391 12.4302 21.6928 12.4302 22.1296ZM31.2325 22.1296C31.2325 22.5653 30.8744 22.9196 30.4331 22.9196C29.9915 22.9196 29.6337 22.5653 29.6337 22.1296C29.6337 21.6929 29.9915 21.3391 30.4331 21.3391C30.8744 21.3391 31.2326 21.6928 31.2326 22.1296M21.8314 26.807C21.8314 27.2435 21.4731 27.5977 21.0323 27.5977C20.5911 27.5977 20.2326 27.2435 20.2326 26.8069C20.2326 26.3707 20.5911 26.0173 21.0323 26.0173C21.4731 26.0173 21.8314 26.3707 21.8314 26.807ZM17.0988 24.4687C17.0988 24.9051 16.741 25.2586 16.2997 25.2586C15.8581 25.2586 15.5 24.9051 15.5 24.4687C15.5 24.032 15.8581 23.6782 16.2997 23.6782C16.741 23.6782 17.0988 24.032 17.0988 24.4687ZM26.5 24.4687C26.5 24.9051 26.1417 25.2586 25.701 25.2586C25.2592 25.2586 24.9011 24.9051 24.9011 24.4687C24.9011 24.032 25.2592 23.6782 25.701 23.6782C26.1417 23.6782 26.5 24.032 26.5 24.4687ZM12.0465 24.9105C12.0465 25.0195 12.0027 25.124 11.9247 25.2011C11.8468 25.2781 11.741 25.3214 11.6308 25.3214C11.5205 25.3214 11.4148 25.2781 11.3368 25.2011C11.2589 25.124 11.2151 25.0195 11.2151 24.9105C11.2151 24.8566 11.2259 24.8031 11.2468 24.7533C11.2677 24.7035 11.2983 24.6582 11.337 24.6201C11.3756 24.582 11.4214 24.5517 11.4719 24.5311C11.5223 24.5105 11.5764 24.5 11.6309 24.5C11.6855 24.5 11.7395 24.5106 11.7899 24.5312C11.8404 24.5518 11.8862 24.5821 11.9248 24.6202C11.9633 24.6583 11.994 24.7036 12.0148 24.7534C12.0357 24.8032 12.0465 24.8566 12.0465 24.9105ZM30.8488 24.9105C30.8488 25.0195 30.805 25.124 30.727 25.2011C30.6491 25.2781 30.5433 25.3214 30.4331 25.3214C30.3228 25.3214 30.2171 25.2781 30.1391 25.2011C30.0612 25.124 30.0174 25.0195 30.0174 24.9105C30.0174 24.8566 30.0281 24.8031 30.0491 24.7533C30.07 24.7035 30.1006 24.6582 30.1392 24.62C30.1778 24.5819 30.2237 24.5517 30.2741 24.5311C30.3246 24.5105 30.3787 24.5 30.4332 24.5C30.6624 24.5 30.8488 24.6837 30.8488 24.9105ZM21.4476 29.5888C21.4476 29.8158 21.2612 30 21.0321 30C20.9218 30 20.816 29.9566 20.7381 29.8795C20.6601 29.8024 20.6163 29.6978 20.6163 29.5888C20.6163 29.5348 20.6271 29.4814 20.648 29.4316C20.6689 29.3817 20.6995 29.3364 20.7381 29.2983C20.7767 29.2602 20.8226 29.2299 20.873 29.2093C20.9234 29.1887 20.9775 29.1781 21.0321 29.1781C21.1423 29.1781 21.248 29.2214 21.3259 29.2984C21.4038 29.3754 21.4476 29.4799 21.4476 29.5888ZM16.7151 27.25C16.7151 27.359 16.6712 27.4635 16.5932 27.5405C16.5153 27.6176 16.4095 27.6609 16.2993 27.6609C16.1891 27.6608 16.0834 27.6175 16.0055 27.5405C15.9276 27.4634 15.8838 27.359 15.8837 27.25C15.8837 27.1961 15.8944 27.1426 15.9153 27.0928C15.9362 27.0429 15.9668 26.9976 16.0054 26.9595C16.044 26.9213 16.0898 26.891 16.1402 26.8704C16.1906 26.8497 16.2447 26.8391 16.2993 26.8391C16.3539 26.8391 16.408 26.8497 16.4584 26.8703C16.5089 26.891 16.5547 26.9212 16.5933 26.9594C16.632 26.9975 16.6626 27.0429 16.6835 27.0927C16.7044 27.1426 16.7151 27.196 16.7151 27.25ZM26.1163 27.25C26.1163 27.4767 25.9298 27.6609 25.7007 27.6609C25.6461 27.661 25.592 27.6504 25.5416 27.6297C25.4911 27.6091 25.4453 27.5788 25.4066 27.5407C25.368 27.5025 25.3374 27.4572 25.3165 27.4073C25.2956 27.3574 25.2849 27.304 25.2849 27.25C25.2848 27.196 25.2955 27.1425 25.3164 27.0926C25.3373 27.0428 25.3679 26.9974 25.4065 26.9592C25.4452 26.9211 25.491 26.8908 25.5415 26.8702C25.592 26.8496 25.6461 26.839 25.7007 26.8391C25.7553 26.8391 25.8093 26.8498 25.8598 26.8704C25.9102 26.8911 25.956 26.9213 25.9946 26.9595C26.0332 26.9976 26.0638 27.0429 26.0847 27.0928C26.1055 27.1426 26.1163 27.1961 26.1163 27.25ZM22.5989 9.58056C22.5989 10.4536 21.8829 11.1609 21.0004 11.1609C20.1171 11.1609 19.4011 10.4536 19.4011 9.58056C19.4011 8.70765 20.1171 8 21.0004 8C21.8829 8 22.5988 8.70765 22.5988 9.5805M22.5988 14.2586C22.5988 15.1315 21.8829 15.8391 21.0004 15.8391C20.1171 15.8391 19.4011 15.1315 19.4011 14.2586C19.4011 13.3859 20.1171 12.6782 21.0004 12.6782C21.8829 12.6782 22.5988 13.3859 22.5988 14.2586ZM22.5988 18.8738C22.5988 19.7464 21.8829 20.454 21.0004 20.454C20.1171 20.454 19.4011 19.7464 19.4011 18.8738C19.4011 18.0007 20.1171 17.2931 21.0004 17.2931C21.8829 17.2931 22.5988 18.0007 22.5988 18.8738ZM32 14.2586C32 15.1315 31.2841 15.8391 30.4013 15.8391C29.5181 15.8391 28.8024 15.1315 28.8024 14.2586C28.8024 13.3859 29.5181 12.6782 30.4013 12.6782C31.2842 12.6782 32 13.3859 32 14.2586ZM13.1976 14.2586C13.1976 15.1315 12.482 15.8391 11.599 15.8391C10.7159 15.8391 10 15.1315 10 14.2586C10 13.3859 10.7159 12.6782 11.5989 12.6782C12.482 12.6782 13.1976 13.3859 13.1976 14.2586ZM17.9302 11.9195C17.9302 12.7923 17.2145 13.5 16.3314 13.5C15.4483 13.5 14.7326 12.7923 14.7326 11.9195C14.7326 11.0461 15.4483 10.3391 16.3314 10.3391C17.2145 10.3391 17.9302 11.0461 17.9302 11.9195ZM17.9302 16.5343C17.9302 17.4072 17.2145 18.1149 16.3314 18.1149C15.4483 18.1149 14.7326 17.4072 14.7326 16.5343C14.7326 15.6617 15.4483 14.954 16.3314 14.954C17.2145 14.954 17.9302 15.6617 17.9302 16.5343ZM27.3314 11.9195C27.3314 12.7923 26.6155 13.5 25.7324 13.5C24.8494 13.5 24.1337 12.7923 24.1337 11.9195C24.1337 11.0461 24.8494 10.3391 25.7324 10.3391C26.6155 10.3391 27.3314 11.0461 27.3314 11.9195ZM27.3314 16.5343C27.3314 17.4072 26.6155 18.1149 25.7324 18.1149C24.8494 18.1149 24.1337 17.4072 24.1337 16.5343C24.1337 15.6617 24.8494 14.954 25.7324 14.954C26.6155 14.954 27.3314 15.6617 27.3314 16.5343Z" fill="#725F00"/>
<path d="M47.392 25.0881C44.192 25.0881 42 22.8161 42 19.2801C42 15.9521 44.032 13.5361 47.392 13.5361C50.624 13.5361 52.816 15.8081 52.816 19.2801C52.816 22.6401 50.784 25.0881 47.392 25.0881ZM47.392 23.8561C49.888 23.8561 51.44 22.0801 51.44 19.2801C51.44 16.5121 49.872 14.7681 47.392 14.7681C44.928 14.7681 43.376 16.5121 43.376 19.2801C43.376 22.0801 44.928 23.8561 47.392 23.8561Z" fill="#725F00"/>
<path d="M58.5476 25.0881C55.7956 25.0881 54.3236 23.0721 54.3236 20.6241C54.3236 17.7761 56.1956 16.2401 58.4996 16.2401C60.6276 16.2401 62.1476 17.5201 62.3876 19.6961H61.0916C60.8676 18.2881 59.8916 17.3921 58.4676 17.3921C56.7876 17.3921 55.6676 18.6241 55.6676 20.6241C55.6676 22.7841 56.9796 23.9361 58.5636 23.9361C59.9236 23.9361 60.8516 23.0721 61.0916 21.6001H62.3876C62.1476 23.7921 60.7396 25.0881 58.5476 25.0881Z" fill="#725F00"/>
<path d="M67.8746 25.0881C65.3626 25.0881 63.6986 23.2481 63.6986 20.7041C63.6986 17.8081 65.5706 16.2401 67.7146 16.2401C70.0506 16.2401 71.5546 17.8081 71.6026 20.5281V20.8961H65.0266C65.1066 22.7041 66.1626 23.9361 67.8746 23.9361C69.0586 23.9361 69.9226 23.3441 70.2746 22.2401H71.5706C71.1866 23.9841 69.8106 25.0881 67.8746 25.0881ZM65.1066 19.7921H70.2106C69.9706 18.3041 69.0746 17.3921 67.7146 17.3921C66.3706 17.3921 65.3786 18.2721 65.1066 19.7921Z" fill="#725F00"/>
<path d="M76.0854 25.0401C74.1654 25.0401 72.9334 24.0481 72.9334 22.4961C72.9334 20.5441 74.8214 20.1761 76.5174 20.0001C77.8134 19.8721 78.9334 19.8881 78.9494 19.2001C78.9334 18.1281 78.0534 17.3761 76.7734 17.3761C75.5414 17.3761 74.5814 18.0641 74.4374 19.0721H73.1254C73.2854 17.4081 74.7894 16.2401 76.8054 16.2401C78.9014 16.2401 80.2454 17.4881 80.2454 19.2801V23.4081C80.2454 23.6801 80.3894 23.8241 80.6774 23.8241H81.1574V24.9121H80.4054C79.4934 24.9121 79.0134 24.4961 79.0134 23.7121V23.4561C78.5174 24.4321 77.5574 25.0401 76.0854 25.0401ZM76.2774 23.9041C77.8614 23.9041 78.9494 22.8961 78.9494 21.4881V20.3841C78.5814 20.8801 77.6374 20.9761 76.5974 21.0881C75.4294 21.2161 74.2614 21.3761 74.2614 22.4641C74.2614 23.3441 75.0614 23.9041 76.2774 23.9041Z" fill="#725F00"/>
<path d="M83.9743 24.9121H82.6463V16.4321H83.7023L83.8302 17.7281C84.4062 16.8321 85.5103 16.2401 86.7743 16.2401C88.5983 16.2401 89.8143 17.4241 89.8143 19.2961V24.9121H88.4863V19.3441C88.4863 18.1601 87.7183 17.4081 86.4383 17.4081C84.9183 17.4081 83.9903 18.4641 83.9743 19.7601V24.9121Z" fill="#725F00"/>
<path d="M97.106 24.9121H95.762V13.7121H101.058C103.394 13.7121 104.642 15.2001 104.642 16.9921C104.642 19.2641 103.042 20.4801 101.058 20.4801H97.106V24.9121ZM97.106 14.9441V19.2481H101.122C102.514 19.2481 103.266 18.2401 103.266 16.9921C103.266 15.6641 102.306 14.9441 101.122 14.9441H97.106Z" fill="#725F00"/>
<path d="M107.693 24.9121H106.365V16.4321H107.421L107.581 18.0481C108.125 16.9601 109.117 16.3841 110.525 16.3841H110.813V17.6961H110.525C108.733 17.6961 107.693 18.7201 107.693 20.4641V24.9121Z" fill="#725F00"/>
<path d="M115.671 25.0881C112.951 25.0881 111.511 23.1521 111.511 20.5921C111.511 17.7601 113.367 16.2401 115.671 16.2401C118.375 16.2401 119.831 18.1921 119.831 20.5921C119.831 23.5201 118.055 25.0881 115.671 25.0881ZM115.671 23.9361C117.479 23.9361 118.471 22.4321 118.471 20.5921C118.471 18.6881 117.367 17.3921 115.671 17.3921C113.975 17.3921 112.871 18.6881 112.871 20.5921C112.871 22.7681 114.135 23.9361 115.671 23.9361Z" fill="#725F00"/>
<path d="M125.765 24.9121H124.821C123.173 24.9121 122.293 24.0641 122.293 22.4961V17.5521H120.725V16.4321H122.293V13.5361H123.621V16.4321H125.909V17.5521H123.621V22.4961C123.621 23.3441 124.037 23.7921 124.821 23.7921H125.765V24.9121Z" fill="#725F00"/>
<path d="M130.999 25.0881C128.279 25.0881 126.839 23.1521 126.839 20.5921C126.839 17.7601 128.695 16.2401 130.999 16.2401C133.703 16.2401 135.159 18.1921 135.159 20.5921C135.159 23.5201 133.383 25.0881 130.999 25.0881ZM130.999 23.9361C132.807 23.9361 133.799 22.4321 133.799 20.5921C133.799 18.6881 132.695 17.3921 130.999 17.3921C129.303 17.3921 128.199 18.6881 128.199 20.5921C128.199 22.7681 129.463 23.9361 130.999 23.9361Z" fill="#725F00"/>
<path d="M140.688 25.0881C137.936 25.0881 136.464 23.0721 136.464 20.6241C136.464 17.7761 138.336 16.2401 140.64 16.2401C142.768 16.2401 144.288 17.5201 144.528 19.6961H143.232C143.008 18.2881 142.032 17.3921 140.608 17.3921C138.928 17.3921 137.808 18.6241 137.808 20.6241C137.808 22.7841 139.12 23.9361 140.704 23.9361C142.064 23.9361 142.992 23.0721 143.232 21.6001H144.528C144.288 23.7921 142.88 25.0881 140.688 25.0881Z" fill="#725F00"/>
<path d="M149.999 25.0881C147.279 25.0881 145.839 23.1521 145.839 20.5921C145.839 17.7601 147.695 16.2401 149.999 16.2401C152.703 16.2401 154.159 18.1921 154.159 20.5921C154.159 23.5201 152.383 25.0881 149.999 25.0881ZM149.999 23.9361C151.807 23.9361 152.799 22.4321 152.799 20.5921C152.799 18.6881 151.695 17.3921 149.999 17.3921C148.303 17.3921 147.199 18.6881 147.199 20.5921C147.199 22.7681 148.463 23.9361 149.999 23.9361Z" fill="#725F00"/>
<path d="M157.272 24.9121H155.944V12.9121H157.272V24.9121Z" fill="#725F00"/>
</svg>
