<svg width="165" height="38" viewBox="0 0 165 38" fill="none" xmlns="http://www.w3.org/2000/svg">
<path d="M19.1163 29.6568L18.0581 30L17.3936 29.0935L20.3645 22.845L19.1163 29.6568ZM31 24.6579V25.7703L29.9417 26.1135L24.8951 21.3756L31 24.6579ZM22.1684 25.6876L21.6123 26.0997L21.0561 25.7014L21.5989 23.0374L22.1684 25.6876ZM24.2712 25.1661L23.8644 25.7152L23.2133 25.5093L22.901 22.845L24.2712 25.1661ZM18.0446 24.7264L17.3526 24.6989L17.1766 24.04L19.1979 22.2408L18.0446 24.7264ZM16.403 23.326L15.752 23.0922L15.7791 22.4057L18.3023 21.3071L16.403 23.326ZM15.3451 21.5543L14.7889 21.1422L14.9922 20.4967L17.7189 20.2086L15.3451 21.5543ZM17.5291 18.986L10.6648 19.9201L10 19.0136L10.6648 18.1075L17.5291 18.986ZM28.7345 18.9998L28.3272 19.5631L25.6549 18.9726L28.3272 18.437L28.7345 18.9998ZM30.9862 12.2022V13.3145L24.8951 16.624L29.9145 11.8589L30.9862 12.2022ZM18.7229 16.1296L16.444 14.6603L16.5523 13.9738L17.2305 13.864L18.7229 16.1296ZM25.3567 13.3968L23.5658 15.4431L24.3799 12.8339L25.0716 12.7654L25.3567 13.3968ZM20.3507 15.1409V15.1546L20.3464 15.1319L20.3507 15.1409ZM19.0758 8.34323L20.3464 15.1319L17.3526 8.90647L18.0175 8L19.0758 8.34323ZM22.1684 12.2573L21.5851 14.935L21.0427 12.2982L21.5989 11.8727L22.1684 12.2573Z" fill="#F5F4FE"/>
<path d="M42.344 23.3042H41V12.1042H46.104C48.216 12.1042 49.672 13.3682 49.672 15.1922C49.672 16.5202 48.776 17.6402 47.416 18.0722C48.008 18.2322 48.424 18.6162 48.632 19.1762L50.184 23.3042H48.744L47.304 19.4162C47.128 18.9362 46.744 18.6802 46.216 18.6802H42.344V23.3042ZM42.344 13.3362V17.4802H46.168C47.56 17.4802 48.312 16.5202 48.312 15.3202C48.312 14.0082 47.384 13.3362 46.168 13.3362H42.344Z" fill="#4D2CAB"/>
<path d="M55.2533 23.4802C52.7413 23.4802 51.0772 21.6402 51.0772 19.0962C51.0772 16.2002 52.9492 14.6322 55.0933 14.6322C57.4293 14.6322 58.9333 16.2002 58.9813 18.9202V19.2882H52.4053C52.4853 21.0962 53.5412 22.3282 55.2533 22.3282C56.4373 22.3282 57.3012 21.7362 57.6532 20.6322H58.9493C58.5653 22.3762 57.1892 23.4802 55.2533 23.4802ZM52.4853 18.1842H57.5893C57.3493 16.6962 56.4532 15.7842 55.0933 15.7842C53.7492 15.7842 52.7573 16.6642 52.4853 18.1842Z" fill="#4D2CAB"/>
<path d="M64.424 26.6962C62.136 26.6962 60.584 25.5922 60.584 23.8002H61.912C61.912 24.8082 62.936 25.5762 64.424 25.5762C66.168 25.5762 67.08 24.5362 67.08 23.0802V21.7042C66.488 22.5842 65.464 23.1602 64.168 23.1602C61.912 23.1602 60.296 21.4322 60.296 18.9362C60.296 16.3922 61.928 14.6322 64.168 14.6322C65.528 14.6322 66.632 15.2722 67.208 16.2962L67.352 14.8242H68.392V23.0802C68.392 25.2242 66.952 26.6962 64.424 26.6962ZM64.36 22.0082C65.96 22.0082 67.08 20.7282 67.08 18.8882C67.08 17.0642 65.96 15.7842 64.36 15.7842C62.776 15.7842 61.672 17.0642 61.672 18.9202C61.672 20.7442 62.776 22.0082 64.36 22.0082Z" fill="#4D2CAB"/>
<path d="M74.3158 23.4802C71.8038 23.4802 70.1397 21.6402 70.1397 19.0962C70.1397 16.2002 72.0117 14.6322 74.1558 14.6322C76.4918 14.6322 77.9958 16.2002 78.0438 18.9202V19.2882H71.4678C71.5478 21.0962 72.6037 22.3282 74.3158 22.3282C75.4998 22.3282 76.3638 21.7362 76.7158 20.6322H78.0117C77.6277 22.3762 76.2517 23.4802 74.3158 23.4802ZM71.5478 18.1842H76.6517C76.4117 16.6962 75.5157 15.7842 74.1558 15.7842C72.8117 15.7842 71.8198 16.6642 71.5478 18.1842Z" fill="#4D2CAB"/>
<path d="M81.1185 23.3042H79.7905V14.8242H80.8465L80.9745 16.1202C81.5505 15.2242 82.6545 14.6322 83.9185 14.6322C85.7425 14.6322 86.9585 15.8162 86.9585 17.6882V23.3042H85.6305V17.7362C85.6305 16.5522 84.8625 15.8002 83.5825 15.8002C82.0625 15.8002 81.1345 16.8562 81.1185 18.1522V23.3042Z" fill="#4D2CAB"/>
<path d="M94.2503 23.3042H92.9062V12.1042H94.4422L100.778 21.3842V12.1042H102.122V23.3042H100.586L94.2503 14.0242V23.3042Z" fill="#4D2CAB"/>
<path d="M108.316 23.4802C105.804 23.4802 104.14 21.6402 104.14 19.0962C104.14 16.2002 106.012 14.6322 108.156 14.6322C110.492 14.6322 111.996 16.2002 112.044 18.9202V19.2882H105.468C105.548 21.0962 106.604 22.3282 108.316 22.3282C109.5 22.3282 110.364 21.7362 110.716 20.6322H112.012C111.628 22.3762 110.252 23.4802 108.316 23.4802ZM105.548 18.1842H110.652C110.412 16.6962 109.516 15.7842 108.156 15.7842C106.812 15.7842 105.82 16.6642 105.548 18.1842Z" fill="#4D2CAB"/>
<path d="M117.988 23.3042H117.044C115.396 23.3042 114.516 22.4562 114.516 20.8882V15.9442H112.948V14.8242H114.516V11.9282H115.844V14.8242H118.132V15.9442H115.844V20.8882C115.844 21.7362 116.26 22.1842 117.044 22.1842H117.988V23.3042Z" fill="#4D2CAB"/>
<path d="M122.913 23.3042H121.441L118.929 14.8242H120.289L122.241 21.6562L124.129 14.8242H125.281L127.169 21.6242L129.105 14.8242H130.465L127.953 23.3042H126.497L124.705 16.8402L122.913 23.3042Z" fill="#4D2CAB"/>
<path d="M135.487 23.4802C132.767 23.4802 131.327 21.5442 131.327 18.9842C131.327 16.1522 133.183 14.6322 135.487 14.6322C138.191 14.6322 139.647 16.5842 139.647 18.9842C139.647 21.9122 137.871 23.4802 135.487 23.4802ZM135.487 22.3282C137.295 22.3282 138.287 20.8242 138.287 18.9842C138.287 17.0802 137.183 15.7842 135.487 15.7842C133.791 15.7842 132.687 17.0802 132.687 18.9842C132.687 21.1602 133.951 22.3282 135.487 22.3282Z" fill="#4D2CAB"/>
<path d="M142.712 23.3042H141.384V14.8242H142.44L142.6 16.4402C143.144 15.3522 144.136 14.7762 145.544 14.7762H145.832V16.0882H145.544C143.752 16.0882 142.712 17.1122 142.712 18.8562V23.3042Z" fill="#4D2CAB"/>
<path d="M148.729 23.3042H147.401V11.3042H148.729V19.0002L152.857 14.8242H154.457L151.401 17.9122L154.921 23.3042H153.369L150.489 18.8402L148.729 20.6162V23.3042Z" fill="#4D2CAB"/>
</svg>
