<svg width="122" height="38" viewBox="0 0 122 38" fill="none" xmlns="http://www.w3.org/2000/svg">
<path d="M27.7297 8H39.0513V9.28162H27.7297V8Z" fill="#725F00"/>
<path d="M15.9807 8H39.0513L39.0512 8.64081H15.9807V8Z" fill="#725F00"/>
<path d="M13.311 10.1365H41.7218V10.7773H13.311V10.1365Z" fill="#725F00"/>
<path d="M11.709 12.2722H43.324V12.913H11.709V12.2722Z" fill="#725F00"/>
<path d="M10.2139 16.5449H44.8195V17.1857H10.2139V16.5449Z" fill="#725F00"/>
<path d="M10.7483 14.4089H44.2859V15.0497H10.7483V14.4089Z" fill="#725F00"/>
<path d="M25.0601 10.1365H41.7229L41.722 11.3113H25.0601V10.1365Z" fill="#725F00"/>
<path d="M23.4585 12.2722H43.3245L43.3247 13.3402H23.4585V12.2722Z" fill="#725F00"/>
<path d="M22.4961 14.4089H44.2846L44.2848 15.3702H22.4961V14.4089Z" fill="#725F00"/>
<path d="M21.9631 16.5449H44.8197L44.82 17.3993H21.9631V16.5449Z" fill="#725F00"/>
<path d="M10 18.6816H45.0328V19.3224H10V18.6816Z" fill="#725F00"/>
<path d="M15.9807 29.3584H39.0512V29.9992H15.9807V29.3584Z" fill="#725F00"/>
<path d="M13.311 27.2258H41.7218V27.8666H13.311V27.2258Z" fill="#725F00"/>
<path d="M11.709 25.0906H43.324V25.7314H11.709V25.0906Z" fill="#725F00"/>
<path d="M10.7483 22.9539H44.2859V23.5947H10.7483V22.9539Z" fill="#725F00"/>
<path d="M10.2139 20.8174H44.8195V21.4583H10.2139V20.8174Z" fill="#725F00"/>
<path d="M10.2139 20.6016H33.0707V21.456H10.2139V20.6016Z" fill="#725F00"/>
<path d="M10.7483 22.6323H32.5371V23.5936H10.7483V22.6323Z" fill="#725F00"/>
<path d="M11.709 24.6628H31.5751V25.7308L11.709 25.7309V24.6628Z" fill="#725F00"/>
<path d="M13.311 26.6887H29.9731V27.8636H13.311V26.6887Z" fill="#725F00"/>
<path d="M15.9807 28.7192H27.3023V30.0009H15.9807V28.7192Z" fill="#725F00"/>
<path d="M60.249 23.4004H58.905V13.4324H55.033V12.2004H64.121V13.4324H60.249V23.4004Z" fill="#725F00"/>
<path d="M67.1401 23.4004H65.8121V11.4004H67.1401V16.0084C67.7481 15.2404 68.7881 14.7284 69.9401 14.7284C71.7641 14.7284 72.9801 15.9124 72.9801 17.7844V23.4004H71.6521V17.8324C71.6521 16.6484 70.8841 15.8964 69.6841 15.8964C68.0841 15.8964 67.1561 16.9524 67.1401 18.2484V23.4004Z" fill="#725F00"/>
<path d="M78.805 23.5764C76.293 23.5764 74.629 21.7364 74.629 19.1924C74.629 16.2964 76.501 14.7284 78.645 14.7284C80.981 14.7284 82.485 16.2964 82.533 19.0164V19.3844H75.957C76.037 21.1924 77.093 22.4244 78.805 22.4244C79.989 22.4244 80.853 21.8324 81.205 20.7284H82.501C82.117 22.4724 80.741 23.5764 78.805 23.5764ZM76.037 18.2804H81.141C80.901 16.7924 80.005 15.8804 78.645 15.8804C77.301 15.8804 76.309 16.7604 76.037 18.2804Z" fill="#725F00"/>
<path d="M88.0077 23.5764C85.2877 23.5764 83.8477 21.6404 83.8477 19.0804C83.8477 16.2484 85.7037 14.7284 88.0077 14.7284C90.7117 14.7284 92.1677 16.6804 92.1677 19.0804C92.1677 22.0084 90.3917 23.5764 88.0077 23.5764ZM88.0077 22.4244C89.8157 22.4244 90.8077 20.9204 90.8077 19.0804C90.8077 17.1764 89.7037 15.8804 88.0077 15.8804C86.3117 15.8804 85.2077 17.1764 85.2077 19.0804C85.2077 21.2564 86.4717 22.4244 88.0077 22.4244Z" fill="#725F00"/>
<path d="M95.2327 23.4004H93.9047V14.9204H94.9607L95.1207 16.5364C95.6647 15.4484 96.6567 14.8724 98.0647 14.8724H98.3527V16.1844H98.0647C96.2727 16.1844 95.2327 17.2084 95.2327 18.9524V23.4004Z" fill="#725F00"/>
<path d="M100.545 13.4964C99.9855 13.4964 99.5535 13.0644 99.5535 12.5044C99.5535 11.9444 99.9855 11.5284 100.545 11.5284C101.105 11.5284 101.521 11.9444 101.521 12.5044C101.521 13.0644 101.105 13.4964 100.545 13.4964ZM101.201 23.4004H99.8735V14.9204H101.201V23.4004Z" fill="#725F00"/>
<path d="M111.069 26.6004H109.741V21.9924C109.149 22.9684 108.093 23.5764 106.797 23.5764C104.525 23.5764 102.941 21.7524 102.941 19.1124C102.941 16.5204 104.509 14.7284 106.781 14.7284C108.157 14.7284 109.293 15.3684 109.869 16.3924L110.013 14.9204H111.069V26.6004ZM107.005 22.4244C108.621 22.4244 109.741 21.0484 109.741 19.0804C109.741 17.1764 108.653 15.8644 107.085 15.8644C105.453 15.8644 104.317 17.1924 104.317 19.1124C104.317 21.0644 105.421 22.4244 107.005 22.4244Z" fill="#725F00"/>
</svg>
