<svg width="175" height="38" viewBox="0 0 175 38" fill="none" xmlns="http://www.w3.org/2000/svg">
<g clip-path="url(#clip0_1204_186)">
<mask id="mask0_1204_186" style="mask-type:luminance" maskUnits="userSpaceOnUse" x="10" y="8" width="22" height="22">
<path d="M32 8H10V30H32V8Z" fill="white"/>
</mask>
<g mask="url(#mask0_1204_186)">
<path d="M19.1118 15.9625H23.8906H31.6305C31.6305 11.7008 28.1652 8.24609 23.8906 8.24609H20.2535L19.1118 15.9625Z" fill="#FFBA7B"/>
<path d="M19.3999 12.7202C19.3999 12.7202 22.5819 12.7202 25.3309 12.7202C29.7432 12.7202 31.0156 15.4292 31.0156 15.4292H19.3999V12.7202Z" fill="#F87AA3"/>
<path d="M13.8261 11.1035C13.8743 11.0316 13.9175 10.9571 13.9609 10.8822C14.7762 9.47552 17.6643 8.16045 19.03 8.94418C19.5597 9.24817 19.7688 11.571 19.5264 13.377L18.5059 18.8994C18.4859 19.0073 18.4568 19.1138 18.4096 19.213C17.691 20.7229 15.5769 21.4808 14.0331 20.8203C12.4008 20.1218 12.2371 17.2763 12.2371 15.3061C12.2371 13.5855 13.5049 11.5832 13.8261 11.1035Z" fill="white"/>
<path d="M17.0796 12.6381C17.635 12.6381 18.0852 12.1879 18.0852 11.6325C18.0852 11.4427 18.0325 11.2651 17.9411 11.1136C17.8939 11.2371 17.7744 11.3247 17.6343 11.3247C17.453 11.3247 17.306 11.1777 17.306 10.9964C17.306 10.8722 17.3749 10.7641 17.4765 10.7083C17.3547 10.656 17.2205 10.627 17.0796 10.627C16.5242 10.627 16.074 11.0772 16.074 11.6325C16.074 12.1879 16.5242 12.6381 17.0796 12.6381Z" fill="#152239"/>
<path fill-rule="evenodd" clip-rule="evenodd" d="M19.1325 15.8806L20.1545 8.00748C20.0265 8.00251 19.8979 8 19.7687 8C14.3736 8 10 12.3736 10 17.7687C10 21.8339 12.4832 25.3191 16.0155 26.7903L16.5461 23.0429C16.5461 23.0429 16.6472 25.8188 17.6278 27.302C18.3168 27.456 19.0333 27.5373 19.7687 27.5373C20.7491 27.5373 21.6958 27.3929 22.5887 27.1241C20.0814 24.3485 20.052 19.3013 21.0502 15.8806H19.1325ZM17.8757 9.05799C18.8059 8.84494 19.5112 9.68585 19.3739 10.6303L18.3592 17.6056C18.0257 19.8986 15.8147 21.8694 14.1218 20.2873C13.0614 19.2962 12.3396 17.5267 12.9695 14.373C13.7101 10.6657 16.1635 9.45011 17.8757 9.05799Z" fill="#152239"/>
<path fill-rule="evenodd" clip-rule="evenodd" d="M19.5973 15.347H27.3619H31.097C30.961 14.183 30.5503 13.1022 29.9354 12.1697C28.6214 10.177 26.3566 8.86194 23.791 8.86194H20.5538L19.5973 15.347ZM18.5989 16.209L19.8097 8L23.791 8C28.0336 8 31.5323 11.2185 31.9631 15.347C31.9926 15.6303 32 15.9179 32 16.209H18.5989Z" fill="#152239"/>
<path d="M31.2816 15.9626C30.5858 15.8655 27.1786 16.2866 27.3619 15.347C27.6413 13.9141 28.6265 12.7315 29.9354 12.1697C31.2522 11.6044 31.666 16.0163 31.2816 15.9626Z" fill="#152239"/>
<path d="M31.877 29.9815C31.877 29.9815 20.1382 31.0616 20.1382 16.7837C27.2764 16.7837 31.4308 22.9976 31.877 29.9815Z" fill="#152239"/>
</g>
</g>
<path d="M47.776 23H46.432V13.032H42.56V11.8H51.648V13.032H47.776V23ZM55.4254 23.176C52.7054 23.176 51.2654 21.24 51.2654 18.68C51.2654 15.848 53.1214 14.328 55.4254 14.328C58.1294 14.328 59.5854 16.28 59.5854 18.68C59.5854 21.608 57.8094 23.176 55.4254 23.176ZM55.4254 22.024C57.2334 22.024 58.2254 20.52 58.2254 18.68C58.2254 16.776 57.1214 15.48 55.4254 15.48C53.7294 15.48 52.6254 16.776 52.6254 18.68C52.6254 20.856 53.8894 22.024 55.4254 22.024ZM64.4104 23.176C62.3464 23.176 61.1624 21.912 61.1624 20.184V14.52H62.4904V20.136C62.4904 21.352 63.3384 22.008 64.5384 22.008C66.1224 22.008 66.9864 20.952 67.0024 19.672V14.52H68.3304V23H67.2744L67.1624 21.72C66.6024 22.68 65.5784 23.176 64.4104 23.176ZM74.3019 23.176C71.5499 23.176 70.0779 21.16 70.0779 18.712C70.0779 15.864 71.9499 14.328 74.2539 14.328C76.3819 14.328 77.9019 15.608 78.1419 17.784H76.8459C76.6219 16.376 75.6459 15.48 74.2219 15.48C72.5419 15.48 71.4219 16.712 71.4219 18.712C71.4219 20.872 72.7339 22.024 74.3179 22.024C75.6779 22.024 76.6059 21.16 76.8459 19.688H78.1419C77.9019 21.88 76.4939 23.176 74.3019 23.176ZM82.6209 23.128C80.7009 23.128 79.4689 22.136 79.4689 20.584C79.4689 18.632 81.3569 18.264 83.0529 18.088C84.3489 17.96 85.4689 17.976 85.4849 17.288C85.4689 16.216 84.5889 15.464 83.3089 15.464C82.0769 15.464 81.1169 16.152 80.9729 17.16H79.6609C79.8209 15.496 81.3249 14.328 83.3409 14.328C85.4369 14.328 86.7809 15.576 86.7809 17.368V21.496C86.7809 21.768 86.9249 21.912 87.2129 21.912H87.6929V23H86.9409C86.0289 23 85.5489 22.584 85.5489 21.8V21.544C85.0529 22.52 84.0929 23.128 82.6209 23.128ZM82.8129 21.992C84.3969 21.992 85.4849 20.984 85.4849 19.576V18.472C85.1169 18.968 84.1729 19.064 83.1329 19.176C81.9649 19.304 80.7969 19.464 80.7969 20.552C80.7969 21.432 81.5969 21.992 82.8129 21.992ZM90.5098 23H89.1818V14.52H90.2378L90.3658 15.816C90.9418 14.92 92.0458 14.328 93.3098 14.328C95.1338 14.328 96.3498 15.512 96.3498 17.384V23H95.0218V17.432C95.0218 16.248 94.2538 15.496 92.9738 15.496C91.4538 15.496 90.5258 16.552 90.5098 17.848V23ZM103.642 23H102.298V11.8H107.594C109.93 11.8 111.178 13.288 111.178 15.08C111.178 17.352 109.578 18.568 107.594 18.568H103.642V23ZM103.642 13.032V17.336H107.658C109.05 17.336 109.802 16.328 109.802 15.08C109.802 13.752 108.842 13.032 107.658 13.032H103.642ZM114.229 23H112.901V14.52H113.957L114.117 16.136C114.661 15.048 115.653 14.472 117.061 14.472H117.349V15.784H117.061C115.269 15.784 114.229 16.808 114.229 18.552V23ZM122.207 23.176C119.487 23.176 118.047 21.24 118.047 18.68C118.047 15.848 119.903 14.328 122.207 14.328C124.911 14.328 126.367 16.28 126.367 18.68C126.367 21.608 124.591 23.176 122.207 23.176ZM122.207 22.024C124.015 22.024 125.007 20.52 125.007 18.68C125.007 16.776 123.903 15.48 122.207 15.48C120.511 15.48 119.407 16.776 119.407 18.68C119.407 20.856 120.671 22.024 122.207 22.024ZM132.301 23H131.357C129.709 23 128.829 22.152 128.829 20.584V15.64H127.261V14.52H128.829V11.624H130.157V14.52H132.445V15.64H130.157V20.584C130.157 21.432 130.573 21.88 131.357 21.88H132.301V23ZM137.535 23.176C134.815 23.176 133.375 21.24 133.375 18.68C133.375 15.848 135.231 14.328 137.535 14.328C140.239 14.328 141.695 16.28 141.695 18.68C141.695 21.608 139.919 23.176 137.535 23.176ZM137.535 22.024C139.343 22.024 140.335 20.52 140.335 18.68C140.335 16.776 139.231 15.48 137.535 15.48C135.839 15.48 134.735 16.776 134.735 18.68C134.735 20.856 135.999 22.024 137.535 22.024ZM147.224 23.176C144.472 23.176 143 21.16 143 18.712C143 15.864 144.872 14.328 147.176 14.328C149.304 14.328 150.824 15.608 151.064 17.784H149.768C149.544 16.376 148.568 15.48 147.144 15.48C145.464 15.48 144.344 16.712 144.344 18.712C144.344 20.872 145.656 22.024 147.24 22.024C148.6 22.024 149.528 21.16 149.768 19.688H151.064C150.824 21.88 149.416 23.176 147.224 23.176ZM156.535 23.176C153.815 23.176 152.375 21.24 152.375 18.68C152.375 15.848 154.231 14.328 156.535 14.328C159.239 14.328 160.695 16.28 160.695 18.68C160.695 21.608 158.919 23.176 156.535 23.176ZM156.535 22.024C158.343 22.024 159.335 20.52 159.335 18.68C159.335 16.776 158.231 15.48 156.535 15.48C154.839 15.48 153.735 16.776 153.735 18.68C153.735 20.856 154.999 22.024 156.535 22.024ZM163.808 23H162.48V11H163.808V23Z" fill="#4D2CAB"/>
<defs>
<clipPath id="clip0_1204_186">
<rect width="22" height="22" fill="white" transform="translate(10 8)"/>
</clipPath>
</defs>
</svg>
